<svg width="473" height="360" viewBox="0 0 473 360" fill="none" xmlns="http://www.w3.org/2000/svg">
<g filter="url(#filter0_b_1140_1059)">
<path d="M473 340C473 351.046 464.046 360 453 360L20 360C8.95431 360 1.84774e-06 351.046 1.84774e-06 340L1.84774e-06 20C1.84774e-06 8.95431 8.95431 0 20 0L273.044 0C284.089 0 293.044 8.95431 293.044 20V50C293.044 61.0457 301.998 70 313.044 70H453C464.046 70 473 78.9543 473 90V340Z" fill="#0F0E10"/>
</g>
<rect x="16" y="48" width="26" height="16" rx="8" fill="url(#paint0_linear_1140_1059)"/>
<rect x="58" y="48" width="77" height="16" rx="8" fill="#1B1A1C"/>
<rect x="58.5" y="48.5" width="76" height="15" rx="7.5" stroke="white" stroke-opacity="0.2"/>
<rect x="151" y="48" width="26" height="16" rx="8" fill="#A98BED"/>
<rect x="193" y="48" width="77" height="16" rx="8" fill="#1B1A1C"/>
<rect x="193.5" y="48.5" width="76" height="15" rx="7.5" stroke="white" stroke-opacity="0.2"/>
<rect x="16" y="80" width="61" height="8" rx="4" fill="white" fill-opacity="0.05"/>
<rect x="16" y="104" width="61" height="8" rx="4" fill="white" fill-opacity="0.05"/>
<rect x="16" y="128" width="61" height="8" rx="4" fill="white" fill-opacity="0.05"/>
<rect x="16" y="152" width="61" height="8" rx="4" fill="white" fill-opacity="0.05"/>
<rect x="16" y="176" width="61" height="8" rx="4" fill="white" fill-opacity="0.05"/>
<rect x="16" y="200" width="61" height="8" rx="4" fill="white" fill-opacity="0.05"/>
<rect x="16" y="224" width="61" height="8" rx="4" fill="white" fill-opacity="0.05"/>
<rect x="93" y="248" width="168" height="4" rx="2" transform="rotate(-90 93 248)" fill="white" fill-opacity="0.05"/>
<rect x="109" y="304" width="44" height="8" rx="2" transform="rotate(-90 109 304)" fill="white" fill-opacity="0.05"/>
<rect x="129" y="321" width="61" height="8" rx="2" transform="rotate(-90 129 321)" fill="white" fill-opacity="0.05"/>
<rect x="149" y="304" width="44" height="8" rx="2" transform="rotate(-90 149 304)" fill="white" fill-opacity="0.05"/>
<path d="M130.49 331.824C130.49 333.224 130.222 334.3 129.686 335.052C129.158 335.796 128.426 336.168 127.49 336.168C126.554 336.168 125.818 335.796 125.282 335.052C124.754 334.3 124.49 333.224 124.49 331.824C124.49 331.128 124.558 330.512 124.694 329.976C124.838 329.44 125.042 328.988 125.306 328.62C125.57 328.252 125.886 327.972 126.254 327.78C126.622 327.588 127.034 327.492 127.49 327.492C128.426 327.492 129.158 327.868 129.686 328.62C130.222 329.364 130.49 330.432 130.49 331.824ZM128.666 331.824C128.666 331.408 128.646 331.032 128.606 330.696C128.566 330.352 128.502 330.056 128.414 329.808C128.326 329.56 128.206 329.368 128.054 329.232C127.902 329.096 127.714 329.028 127.49 329.028C127.266 329.028 127.078 329.096 126.926 329.232C126.782 329.368 126.662 329.56 126.566 329.808C126.478 330.056 126.414 330.352 126.374 330.696C126.334 331.032 126.314 331.408 126.314 331.824C126.314 332.24 126.334 332.62 126.374 332.964C126.414 333.308 126.478 333.604 126.566 333.852C126.662 334.1 126.782 334.292 126.926 334.428C127.078 334.564 127.266 334.632 127.49 334.632C127.714 334.632 127.902 334.564 128.054 334.428C128.206 334.292 128.326 334.1 128.414 333.852C128.502 333.604 128.566 333.308 128.606 332.964C128.646 332.62 128.666 332.24 128.666 331.824ZM135.57 329.82C135.57 330.572 135.378 331.148 134.994 331.548C134.61 331.948 134.094 332.148 133.446 332.148C132.798 332.148 132.282 331.948 131.898 331.548C131.514 331.148 131.322 330.572 131.322 329.82C131.322 329.068 131.514 328.492 131.898 328.092C132.282 327.692 132.798 327.492 133.446 327.492C134.094 327.492 134.61 327.692 134.994 328.092C135.378 328.492 135.57 329.068 135.57 329.82ZM134.214 329.82C134.214 329.412 134.142 329.116 133.998 328.932C133.854 328.748 133.67 328.656 133.446 328.656C133.214 328.656 133.026 328.748 132.882 328.932C132.746 329.116 132.678 329.412 132.678 329.82C132.678 330.228 132.746 330.528 132.882 330.72C133.026 330.904 133.214 330.996 133.446 330.996C133.67 330.996 133.854 330.904 133.998 330.72C134.142 330.528 134.214 330.228 134.214 329.82ZM137.91 327.684H139.578L134.886 336H133.218L137.91 327.684ZM141.498 333.864C141.498 334.616 141.306 335.192 140.922 335.592C140.538 335.992 140.022 336.192 139.374 336.192C138.726 336.192 138.21 335.992 137.826 335.592C137.442 335.192 137.25 334.616 137.25 333.864C137.25 333.112 137.442 332.536 137.826 332.136C138.21 331.736 138.726 331.536 139.374 331.536C140.022 331.536 140.538 331.736 140.922 332.136C141.306 332.536 141.498 333.112 141.498 333.864ZM140.142 333.864C140.142 333.456 140.07 333.16 139.926 332.976C139.782 332.792 139.598 332.7 139.374 332.7C139.142 332.7 138.954 332.792 138.81 332.976C138.674 333.16 138.606 333.456 138.606 333.864C138.606 334.272 138.674 334.572 138.81 334.764C138.954 334.948 139.142 335.04 139.374 335.04C139.598 335.04 139.782 334.948 139.926 334.764C140.07 334.572 140.142 334.272 140.142 333.864Z" fill="white" fill-opacity="0.2"/>
<rect x="181" y="304" width="44" height="8" rx="2" transform="rotate(-90 181 304)" fill="white" fill-opacity="0.05"/>
<rect x="201" y="321" width="61" height="8" rx="2" transform="rotate(-90 201 321)" fill="white" fill-opacity="0.05"/>
<rect x="221" y="304" width="44" height="8" rx="2" transform="rotate(-90 221 304)" fill="white" fill-opacity="0.05"/>
<path d="M198.624 329.868C198.624 330.172 198.564 330.464 198.444 330.744C198.324 331.024 198.168 331.296 197.976 331.56C197.784 331.816 197.568 332.064 197.328 332.304C197.088 332.544 196.852 332.772 196.62 332.988C196.5 333.1 196.368 333.228 196.224 333.372C196.088 333.508 195.956 333.648 195.828 333.792C195.7 333.936 195.584 334.072 195.48 334.2C195.384 334.32 195.324 334.42 195.3 334.5H198.876V336H193.332C193.316 335.912 193.308 335.8 193.308 335.664C193.308 335.528 193.308 335.432 193.308 335.376C193.308 334.992 193.368 334.64 193.488 334.32C193.616 334 193.78 333.704 193.98 333.432C194.18 333.152 194.404 332.892 194.652 332.652C194.908 332.412 195.16 332.172 195.408 331.932C195.6 331.748 195.78 331.576 195.948 331.416C196.116 331.248 196.264 331.088 196.392 330.936C196.52 330.776 196.62 330.62 196.692 330.468C196.764 330.308 196.8 330.148 196.8 329.988C196.8 329.636 196.7 329.388 196.5 329.244C196.3 329.1 196.052 329.028 195.756 329.028C195.54 329.028 195.336 329.064 195.144 329.136C194.96 329.2 194.788 329.28 194.628 329.376C194.476 329.464 194.344 329.556 194.232 329.652C194.12 329.74 194.036 329.812 193.98 329.868L193.092 328.62C193.444 328.292 193.852 328.024 194.316 327.816C194.788 327.6 195.292 327.492 195.828 327.492C196.316 327.492 196.736 327.548 197.088 327.66C197.44 327.772 197.728 327.932 197.952 328.14C198.184 328.34 198.352 328.588 198.456 328.884C198.568 329.172 198.624 329.5 198.624 329.868ZM203.812 333.552C203.812 333.32 203.76 333.116 203.656 332.94C203.552 332.756 203.372 332.604 203.116 332.484C202.86 332.364 202.516 332.272 202.084 332.208C201.652 332.144 201.108 332.112 200.452 332.112C200.54 331.368 200.612 330.612 200.668 329.844C200.724 329.076 200.768 328.356 200.8 327.684H205.3V329.184H202.3C202.284 329.472 202.264 329.752 202.24 330.024C202.224 330.288 202.204 330.52 202.18 330.72C203.348 330.8 204.208 331.076 204.76 331.548C205.32 332.012 205.6 332.66 205.6 333.492C205.6 333.876 205.532 334.232 205.396 334.56C205.26 334.888 205.056 335.172 204.784 335.412C204.512 335.652 204.168 335.84 203.752 335.976C203.344 336.112 202.864 336.18 202.312 336.18C202.096 336.18 201.868 336.164 201.628 336.132C201.396 336.108 201.168 336.072 200.944 336.024C200.728 335.984 200.532 335.94 200.356 335.892C200.18 335.844 200.044 335.796 199.948 335.748L200.272 334.272C200.472 334.36 200.736 334.448 201.064 334.536C201.392 334.616 201.784 334.656 202.24 334.656C202.792 334.656 203.192 334.548 203.44 334.332C203.688 334.108 203.812 333.848 203.812 333.552ZM210.981 329.82C210.981 330.572 210.789 331.148 210.405 331.548C210.021 331.948 209.505 332.148 208.857 332.148C208.209 332.148 207.693 331.948 207.309 331.548C206.925 331.148 206.733 330.572 206.733 329.82C206.733 329.068 206.925 328.492 207.309 328.092C207.693 327.692 208.209 327.492 208.857 327.492C209.505 327.492 210.021 327.692 210.405 328.092C210.789 328.492 210.981 329.068 210.981 329.82ZM209.625 329.82C209.625 329.412 209.553 329.116 209.409 328.932C209.265 328.748 209.081 328.656 208.857 328.656C208.625 328.656 208.437 328.748 208.293 328.932C208.157 329.116 208.089 329.412 208.089 329.82C208.089 330.228 208.157 330.528 208.293 330.72C208.437 330.904 208.625 330.996 208.857 330.996C209.081 330.996 209.265 330.904 209.409 330.72C209.553 330.528 209.625 330.228 209.625 329.82ZM213.321 327.684H214.989L210.297 336H208.629L213.321 327.684ZM216.909 333.864C216.909 334.616 216.717 335.192 216.333 335.592C215.949 335.992 215.433 336.192 214.785 336.192C214.137 336.192 213.621 335.992 213.237 335.592C212.853 335.192 212.661 334.616 212.661 333.864C212.661 333.112 212.853 332.536 213.237 332.136C213.621 331.736 214.137 331.536 214.785 331.536C215.433 331.536 215.949 331.736 216.333 332.136C216.717 332.536 216.909 333.112 216.909 333.864ZM215.553 333.864C215.553 333.456 215.481 333.16 215.337 332.976C215.193 332.792 215.009 332.7 214.785 332.7C214.553 332.7 214.365 332.792 214.221 332.976C214.085 333.16 214.017 333.456 214.017 333.864C214.017 334.272 214.085 334.572 214.221 334.764C214.365 334.948 214.553 335.04 214.785 335.04C215.009 335.04 215.193 334.948 215.337 334.764C215.481 334.572 215.553 334.272 215.553 333.864Z" fill="white" fill-opacity="0.2"/>
<rect x="253" y="304" width="44" height="8" rx="2" transform="rotate(-90 253 304)" fill="white" fill-opacity="0.05"/>
<rect x="273" y="321" width="61" height="8" rx="2" transform="rotate(-90 273 321)" fill="white" fill-opacity="0.05"/>
<rect x="293" y="304" width="44" height="8" rx="2" transform="rotate(-90 293 304)" fill="white" fill-opacity="0.05"/>
<path d="M268.992 333.552C268.992 333.32 268.94 333.116 268.836 332.94C268.732 332.756 268.552 332.604 268.296 332.484C268.04 332.364 267.696 332.272 267.264 332.208C266.832 332.144 266.288 332.112 265.632 332.112C265.72 331.368 265.792 330.612 265.848 329.844C265.904 329.076 265.948 328.356 265.98 327.684H270.48V329.184H267.48C267.464 329.472 267.444 329.752 267.42 330.024C267.404 330.288 267.384 330.52 267.36 330.72C268.528 330.8 269.388 331.076 269.94 331.548C270.5 332.012 270.78 332.66 270.78 333.492C270.78 333.876 270.712 334.232 270.576 334.56C270.44 334.888 270.236 335.172 269.964 335.412C269.692 335.652 269.348 335.84 268.932 335.976C268.524 336.112 268.044 336.18 267.492 336.18C267.276 336.18 267.048 336.164 266.808 336.132C266.576 336.108 266.348 336.072 266.124 336.024C265.908 335.984 265.712 335.94 265.536 335.892C265.36 335.844 265.224 335.796 265.128 335.748L265.452 334.272C265.652 334.36 265.916 334.448 266.244 334.536C266.572 334.616 266.964 334.656 267.42 334.656C267.972 334.656 268.372 334.548 268.62 334.332C268.868 334.108 268.992 333.848 268.992 333.552ZM277.9 331.824C277.9 333.224 277.632 334.3 277.096 335.052C276.568 335.796 275.836 336.168 274.9 336.168C273.964 336.168 273.228 335.796 272.692 335.052C272.164 334.3 271.9 333.224 271.9 331.824C271.9 331.128 271.968 330.512 272.104 329.976C272.248 329.44 272.452 328.988 272.716 328.62C272.98 328.252 273.296 327.972 273.664 327.78C274.032 327.588 274.444 327.492 274.9 327.492C275.836 327.492 276.568 327.868 277.096 328.62C277.632 329.364 277.9 330.432 277.9 331.824ZM276.076 331.824C276.076 331.408 276.056 331.032 276.016 330.696C275.976 330.352 275.912 330.056 275.824 329.808C275.736 329.56 275.616 329.368 275.464 329.232C275.312 329.096 275.124 329.028 274.9 329.028C274.676 329.028 274.488 329.096 274.336 329.232C274.192 329.368 274.072 329.56 273.976 329.808C273.888 330.056 273.824 330.352 273.784 330.696C273.744 331.032 273.724 331.408 273.724 331.824C273.724 332.24 273.744 332.62 273.784 332.964C273.824 333.308 273.888 333.604 273.976 333.852C274.072 334.1 274.192 334.292 274.336 334.428C274.488 334.564 274.676 334.632 274.9 334.632C275.124 334.632 275.312 334.564 275.464 334.428C275.616 334.292 275.736 334.1 275.824 333.852C275.912 333.604 275.976 333.308 276.016 332.964C276.056 332.62 276.076 332.24 276.076 331.824ZM282.981 329.82C282.981 330.572 282.789 331.148 282.405 331.548C282.021 331.948 281.505 332.148 280.857 332.148C280.209 332.148 279.693 331.948 279.309 331.548C278.925 331.148 278.733 330.572 278.733 329.82C278.733 329.068 278.925 328.492 279.309 328.092C279.693 327.692 280.209 327.492 280.857 327.492C281.505 327.492 282.021 327.692 282.405 328.092C282.789 328.492 282.981 329.068 282.981 329.82ZM281.625 329.82C281.625 329.412 281.553 329.116 281.409 328.932C281.265 328.748 281.081 328.656 280.857 328.656C280.625 328.656 280.437 328.748 280.293 328.932C280.157 329.116 280.089 329.412 280.089 329.82C280.089 330.228 280.157 330.528 280.293 330.72C280.437 330.904 280.625 330.996 280.857 330.996C281.081 330.996 281.265 330.904 281.409 330.72C281.553 330.528 281.625 330.228 281.625 329.82ZM285.321 327.684H286.989L282.297 336H280.629L285.321 327.684ZM288.909 333.864C288.909 334.616 288.717 335.192 288.333 335.592C287.949 335.992 287.433 336.192 286.785 336.192C286.137 336.192 285.621 335.992 285.237 335.592C284.853 335.192 284.661 334.616 284.661 333.864C284.661 333.112 284.853 332.536 285.237 332.136C285.621 331.736 286.137 331.536 286.785 331.536C287.433 331.536 287.949 331.736 288.333 332.136C288.717 332.536 288.909 333.112 288.909 333.864ZM287.553 333.864C287.553 333.456 287.481 333.16 287.337 332.976C287.193 332.792 287.009 332.7 286.785 332.7C286.553 332.7 286.365 332.792 286.221 332.976C286.085 333.16 286.017 333.456 286.017 333.864C286.017 334.272 286.085 334.572 286.221 334.764C286.365 334.948 286.553 335.04 286.785 335.04C287.009 335.04 287.193 334.948 287.337 334.764C287.481 334.572 287.553 334.272 287.553 333.864Z" fill="white" fill-opacity="0.2"/>
<rect x="325" y="304" width="44" height="8" rx="2" transform="rotate(-90 325 304)" fill="white" fill-opacity="0.05"/>
<rect x="345" y="321" width="61" height="8" rx="2" transform="rotate(-90 345 321)" fill="white" fill-opacity="0.05"/>
<rect x="365" y="304" width="44" height="8" rx="2" transform="rotate(-90 365 304)" fill="white" fill-opacity="0.05"/>
<path d="M338.376 336C338.424 335.416 338.524 334.808 338.676 334.176C338.828 333.544 339.012 332.924 339.228 332.316C339.452 331.708 339.7 331.136 339.972 330.6C340.244 330.056 340.52 329.588 340.8 329.196H337.188V327.672H343.008V328.968C342.752 329.248 342.468 329.636 342.156 330.132C341.852 330.628 341.56 331.192 341.28 331.824C341.008 332.448 340.768 333.12 340.56 333.84C340.36 334.56 340.236 335.28 340.188 336H338.376ZM347.812 333.552C347.812 333.32 347.76 333.116 347.656 332.94C347.552 332.756 347.372 332.604 347.116 332.484C346.86 332.364 346.516 332.272 346.084 332.208C345.652 332.144 345.108 332.112 344.452 332.112C344.54 331.368 344.612 330.612 344.668 329.844C344.724 329.076 344.768 328.356 344.8 327.684H349.3V329.184H346.3C346.284 329.472 346.264 329.752 346.24 330.024C346.224 330.288 346.204 330.52 346.18 330.72C347.348 330.8 348.208 331.076 348.76 331.548C349.32 332.012 349.6 332.66 349.6 333.492C349.6 333.876 349.532 334.232 349.396 334.56C349.26 334.888 349.056 335.172 348.784 335.412C348.512 335.652 348.168 335.84 347.752 335.976C347.344 336.112 346.864 336.18 346.312 336.18C346.096 336.18 345.868 336.164 345.628 336.132C345.396 336.108 345.168 336.072 344.944 336.024C344.728 335.984 344.532 335.94 344.356 335.892C344.18 335.844 344.044 335.796 343.948 335.748L344.272 334.272C344.472 334.36 344.736 334.448 345.064 334.536C345.392 334.616 345.784 334.656 346.24 334.656C346.792 334.656 347.192 334.548 347.44 334.332C347.688 334.108 347.812 333.848 347.812 333.552ZM354.981 329.82C354.981 330.572 354.789 331.148 354.405 331.548C354.021 331.948 353.505 332.148 352.857 332.148C352.209 332.148 351.693 331.948 351.309 331.548C350.925 331.148 350.733 330.572 350.733 329.82C350.733 329.068 350.925 328.492 351.309 328.092C351.693 327.692 352.209 327.492 352.857 327.492C353.505 327.492 354.021 327.692 354.405 328.092C354.789 328.492 354.981 329.068 354.981 329.82ZM353.625 329.82C353.625 329.412 353.553 329.116 353.409 328.932C353.265 328.748 353.081 328.656 352.857 328.656C352.625 328.656 352.437 328.748 352.293 328.932C352.157 329.116 352.089 329.412 352.089 329.82C352.089 330.228 352.157 330.528 352.293 330.72C352.437 330.904 352.625 330.996 352.857 330.996C353.081 330.996 353.265 330.904 353.409 330.72C353.553 330.528 353.625 330.228 353.625 329.82ZM357.321 327.684H358.989L354.297 336H352.629L357.321 327.684ZM360.909 333.864C360.909 334.616 360.717 335.192 360.333 335.592C359.949 335.992 359.433 336.192 358.785 336.192C358.137 336.192 357.621 335.992 357.237 335.592C356.853 335.192 356.661 334.616 356.661 333.864C356.661 333.112 356.853 332.536 357.237 332.136C357.621 331.736 358.137 331.536 358.785 331.536C359.433 331.536 359.949 331.736 360.333 332.136C360.717 332.536 360.909 333.112 360.909 333.864ZM359.553 333.864C359.553 333.456 359.481 333.16 359.337 332.976C359.193 332.792 359.009 332.7 358.785 332.7C358.553 332.7 358.365 332.792 358.221 332.976C358.085 333.16 358.017 333.456 358.017 333.864C358.017 334.272 358.085 334.572 358.221 334.764C358.365 334.948 358.553 335.04 358.785 335.04C359.009 335.04 359.193 334.948 359.337 334.764C359.481 334.572 359.553 334.272 359.553 333.864Z" fill="white" fill-opacity="0.2"/>
<rect x="397" y="304" width="44" height="8" rx="2" transform="rotate(-90 397 304)" fill="white" fill-opacity="0.05"/>
<rect x="417" y="321" width="61" height="8" rx="2" transform="rotate(-90 417 321)" fill="white" fill-opacity="0.05"/>
<path d="M406.102 329.412C406.334 329.316 406.574 329.208 406.822 329.088C407.078 328.96 407.326 328.824 407.566 328.68C407.806 328.528 408.034 328.372 408.25 328.212C408.474 328.044 408.674 327.868 408.85 327.684H410.098V336H408.31V330.012C408.07 330.172 407.802 330.32 407.506 330.456C407.21 330.584 406.922 330.696 406.642 330.792L406.102 329.412ZM418.49 331.824C418.49 333.224 418.222 334.3 417.686 335.052C417.158 335.796 416.426 336.168 415.49 336.168C414.554 336.168 413.818 335.796 413.282 335.052C412.754 334.3 412.49 333.224 412.49 331.824C412.49 331.128 412.558 330.512 412.694 329.976C412.838 329.44 413.042 328.988 413.306 328.62C413.57 328.252 413.886 327.972 414.254 327.78C414.622 327.588 415.034 327.492 415.49 327.492C416.426 327.492 417.158 327.868 417.686 328.62C418.222 329.364 418.49 330.432 418.49 331.824ZM416.666 331.824C416.666 331.408 416.646 331.032 416.606 330.696C416.566 330.352 416.502 330.056 416.414 329.808C416.326 329.56 416.206 329.368 416.054 329.232C415.902 329.096 415.714 329.028 415.49 329.028C415.266 329.028 415.078 329.096 414.926 329.232C414.782 329.368 414.662 329.56 414.566 329.808C414.478 330.056 414.414 330.352 414.374 330.696C414.334 331.032 414.314 331.408 414.314 331.824C414.314 332.24 414.334 332.62 414.374 332.964C414.414 333.308 414.478 333.604 414.566 333.852C414.662 334.1 414.782 334.292 414.926 334.428C415.078 334.564 415.266 334.632 415.49 334.632C415.714 334.632 415.902 334.564 416.054 334.428C416.206 334.292 416.326 334.1 416.414 333.852C416.502 333.604 416.566 333.308 416.606 332.964C416.646 332.62 416.666 332.24 416.666 331.824ZM425.31 331.824C425.31 333.224 425.042 334.3 424.506 335.052C423.978 335.796 423.246 336.168 422.31 336.168C421.374 336.168 420.638 335.796 420.102 335.052C419.574 334.3 419.31 333.224 419.31 331.824C419.31 331.128 419.378 330.512 419.514 329.976C419.658 329.44 419.862 328.988 420.126 328.62C420.39 328.252 420.706 327.972 421.074 327.78C421.442 327.588 421.854 327.492 422.31 327.492C423.246 327.492 423.978 327.868 424.506 328.62C425.042 329.364 425.31 330.432 425.31 331.824ZM423.486 331.824C423.486 331.408 423.466 331.032 423.426 330.696C423.386 330.352 423.322 330.056 423.234 329.808C423.146 329.56 423.026 329.368 422.874 329.232C422.722 329.096 422.534 329.028 422.31 329.028C422.086 329.028 421.898 329.096 421.746 329.232C421.602 329.368 421.482 329.56 421.386 329.808C421.298 330.056 421.234 330.352 421.194 330.696C421.154 331.032 421.134 331.408 421.134 331.824C421.134 332.24 421.154 332.62 421.194 332.964C421.234 333.308 421.298 333.604 421.386 333.852C421.482 334.1 421.602 334.292 421.746 334.428C421.898 334.564 422.086 334.632 422.31 334.632C422.534 334.632 422.722 334.564 422.874 334.428C423.026 334.292 423.146 334.1 423.234 333.852C423.322 333.604 423.386 333.308 423.426 332.964C423.466 332.62 423.486 332.24 423.486 331.824ZM430.391 329.82C430.391 330.572 430.199 331.148 429.815 331.548C429.431 331.948 428.915 332.148 428.267 332.148C427.619 332.148 427.103 331.948 426.719 331.548C426.335 331.148 426.143 330.572 426.143 329.82C426.143 329.068 426.335 328.492 426.719 328.092C427.103 327.692 427.619 327.492 428.267 327.492C428.915 327.492 429.431 327.692 429.815 328.092C430.199 328.492 430.391 329.068 430.391 329.82ZM429.035 329.82C429.035 329.412 428.963 329.116 428.819 328.932C428.675 328.748 428.491 328.656 428.267 328.656C428.035 328.656 427.847 328.748 427.703 328.932C427.567 329.116 427.499 329.412 427.499 329.82C427.499 330.228 427.567 330.528 427.703 330.72C427.847 330.904 428.035 330.996 428.267 330.996C428.491 330.996 428.675 330.904 428.819 330.72C428.963 330.528 429.035 330.228 429.035 329.82ZM432.731 327.684H434.399L429.707 336H428.039L432.731 327.684ZM436.319 333.864C436.319 334.616 436.127 335.192 435.743 335.592C435.359 335.992 434.843 336.192 434.195 336.192C433.547 336.192 433.031 335.992 432.647 335.592C432.263 335.192 432.071 334.616 432.071 333.864C432.071 333.112 432.263 332.536 432.647 332.136C433.031 331.736 433.547 331.536 434.195 331.536C434.843 331.536 435.359 331.736 435.743 332.136C436.127 332.536 436.319 333.112 436.319 333.864ZM434.963 333.864C434.963 333.456 434.891 333.16 434.747 332.976C434.603 332.792 434.419 332.7 434.195 332.7C433.963 332.7 433.775 332.792 433.631 332.976C433.495 333.16 433.427 333.456 433.427 333.864C433.427 334.272 433.495 334.572 433.631 334.764C433.775 334.948 433.963 335.04 434.195 335.04C434.419 335.04 434.603 334.948 434.747 334.764C434.891 334.572 434.963 334.272 434.963 333.864Z" fill="white" fill-opacity="0.2"/>
<rect x="105" y="200" width="16" height="40" rx="4" fill="url(#paint1_linear_1140_1059)"/>
<rect x="125" y="168" width="16" height="72" rx="4" fill="url(#paint2_linear_1140_1059)"/>
<rect x="145" y="111" width="16" height="129" rx="4" fill="url(#paint3_linear_1140_1059)"/>
<rect x="177" y="200" width="16" height="40" rx="4" fill="url(#paint4_linear_1140_1059)"/>
<rect x="197" y="168" width="16" height="72" rx="4" fill="url(#paint5_linear_1140_1059)"/>
<rect x="217" y="111" width="16" height="129" rx="4" fill="#A98BED"/>
<rect x="249" y="200" width="16" height="40" rx="4" fill="#A98BED"/>
<rect x="269" y="168" width="16" height="72" rx="4" fill="#A98BED"/>
<rect x="289" y="111" width="16" height="129" rx="4" fill="#A98BED"/>
<rect x="321" y="200" width="16" height="40" rx="4" fill="#A98BED"/>
<rect x="341" y="168" width="16" height="72" rx="4" fill="#A98BED"/>
<rect x="361" y="111" width="16" height="129" rx="4" fill="#A98BED"/>
<rect x="393" y="200" width="16" height="40" rx="4" fill="#A98BED"/>
<rect x="413" y="168" width="16" height="72" rx="4" fill="#A98BED"/>
<circle cx="24" cy="24" r="8" fill="#0F0E10"/>
<circle cx="24" cy="24" r="7.5" stroke="white" stroke-opacity="0.2"/>
<circle cx="56" cy="24" r="8" fill="#0F0E10"/>
<circle cx="56" cy="24" r="7.5" stroke="white" stroke-opacity="0.2"/>
<circle cx="88" cy="24" r="8" fill="#0F0E10"/>
<circle cx="88" cy="24" r="7.5" stroke="white" stroke-opacity="0.2"/>
<path d="M121.32 18.8C122.877 18.8 124.072 19.0987 124.904 19.696C125.747 20.2827 126.168 21.1627 126.168 22.336C126.168 22.976 126.051 23.5253 125.816 23.984C125.592 24.432 125.261 24.8 124.824 25.088C124.397 25.3653 123.875 25.568 123.256 25.696C122.637 25.824 121.939 25.888 121.16 25.888H119.928V30H118.376V19.072C118.813 18.9653 119.299 18.896 119.832 18.864C120.376 18.8213 120.872 18.8 121.32 18.8ZM121.448 20.16C120.787 20.16 120.28 20.176 119.928 20.208V24.56H121.096C121.629 24.56 122.109 24.528 122.536 24.464C122.963 24.3893 123.32 24.272 123.608 24.112C123.907 23.9413 124.136 23.712 124.296 23.424C124.456 23.136 124.536 22.768 124.536 22.32C124.536 21.8933 124.451 21.5413 124.28 21.264C124.12 20.9867 123.896 20.768 123.608 20.608C123.331 20.4373 123.005 20.32 122.632 20.256C122.259 20.192 121.864 20.16 121.448 20.16ZM127.035 25.856C127.035 25.12 127.141 24.48 127.355 23.936C127.568 23.3813 127.851 22.9227 128.203 22.56C128.555 22.1973 128.96 21.9253 129.419 21.744C129.877 21.5627 130.347 21.472 130.827 21.472C131.947 21.472 132.805 21.824 133.403 22.528C134 23.2213 134.299 24.2827 134.299 25.712C134.299 25.776 134.299 25.8613 134.299 25.968C134.299 26.064 134.293 26.1547 134.283 26.24H128.587C128.651 27.104 128.901 27.76 129.339 28.208C129.776 28.656 130.459 28.88 131.387 28.88C131.909 28.88 132.347 28.8373 132.699 28.752C133.061 28.656 133.333 28.5653 133.515 28.48L133.723 29.728C133.541 29.824 133.221 29.9253 132.763 30.032C132.315 30.1387 131.803 30.192 131.227 30.192C130.501 30.192 129.872 30.0853 129.339 29.872C128.816 29.648 128.384 29.344 128.043 28.96C127.701 28.576 127.445 28.1227 127.275 27.6C127.115 27.0667 127.035 26.4853 127.035 25.856ZM132.747 25.04C132.757 24.368 132.587 23.8187 132.235 23.392C131.893 22.9547 131.419 22.736 130.811 22.736C130.469 22.736 130.165 22.8053 129.899 22.944C129.643 23.072 129.424 23.2427 129.243 23.456C129.061 23.6693 128.917 23.9147 128.811 24.192C128.715 24.4693 128.651 24.752 128.619 25.04H132.747ZM139.508 21.504C139.636 21.504 139.78 21.5147 139.94 21.536C140.111 21.5467 140.276 21.568 140.436 21.6C140.596 21.6213 140.74 21.648 140.868 21.68C141.007 21.7013 141.108 21.7227 141.172 21.744L140.916 23.04C140.799 22.9973 140.602 22.9493 140.324 22.896C140.058 22.832 139.711 22.8 139.284 22.8C139.007 22.8 138.73 22.832 138.452 22.896C138.186 22.9493 138.01 22.9867 137.924 23.008V30H136.436V22.032C136.788 21.904 137.226 21.7867 137.748 21.68C138.271 21.5627 138.858 21.504 139.508 21.504ZM145.856 17.584C146.293 17.584 146.667 17.616 146.976 17.68C147.296 17.744 147.52 17.8027 147.648 17.856L147.376 19.136C147.248 19.072 147.067 19.0133 146.832 18.96C146.597 18.896 146.309 18.864 145.968 18.864C145.275 18.864 144.789 19.056 144.512 19.44C144.235 19.8133 144.096 20.32 144.096 20.96V21.68H147.296V22.928H144.096V30H142.608V20.928C142.608 19.8613 142.869 19.04 143.392 18.464C143.915 17.8773 144.736 17.584 145.856 17.584ZM156.124 25.84C156.124 26.5013 156.028 27.0987 155.836 27.632C155.644 28.1653 155.372 28.624 155.02 29.008C154.679 29.392 154.268 29.6907 153.788 29.904C153.308 30.1067 152.785 30.208 152.22 30.208C151.655 30.208 151.132 30.1067 150.652 29.904C150.172 29.6907 149.756 29.392 149.404 29.008C149.063 28.624 148.796 28.1653 148.604 27.632C148.412 27.0987 148.316 26.5013 148.316 25.84C148.316 25.1893 148.412 24.5973 148.604 24.064C148.796 23.52 149.063 23.056 149.404 22.672C149.756 22.288 150.172 21.9947 150.652 21.792C151.132 21.5787 151.655 21.472 152.22 21.472C152.785 21.472 153.308 21.5787 153.788 21.792C154.268 21.9947 154.679 22.288 155.02 22.672C155.372 23.056 155.644 23.52 155.836 24.064C156.028 24.5973 156.124 25.1893 156.124 25.84ZM154.572 25.84C154.572 24.9013 154.359 24.16 153.932 23.616C153.516 23.0613 152.945 22.784 152.22 22.784C151.495 22.784 150.919 23.0613 150.492 23.616C150.076 24.16 149.868 24.9013 149.868 25.84C149.868 26.7787 150.076 27.5253 150.492 28.08C150.919 28.624 151.495 28.896 152.22 28.896C152.945 28.896 153.516 28.624 153.932 28.08C154.359 27.5253 154.572 26.7787 154.572 25.84ZM161.29 21.504C161.418 21.504 161.562 21.5147 161.722 21.536C161.892 21.5467 162.058 21.568 162.218 21.6C162.378 21.6213 162.522 21.648 162.65 21.68C162.788 21.7013 162.89 21.7227 162.954 21.744L162.698 23.04C162.58 22.9973 162.383 22.9493 162.106 22.896C161.839 22.832 161.492 22.8 161.066 22.8C160.788 22.8 160.511 22.832 160.234 22.896C159.967 22.9493 159.791 22.9867 159.706 23.008V30H158.218V22.032C158.57 21.904 159.007 21.7867 159.53 21.68C160.052 21.5627 160.639 21.504 161.29 21.504ZM164.389 21.92C164.731 21.8347 165.179 21.744 165.733 21.648C166.299 21.552 166.949 21.504 167.685 21.504C168.219 21.504 168.667 21.5787 169.029 21.728C169.392 21.8667 169.696 22.0747 169.941 22.352C170.016 22.2987 170.133 22.224 170.293 22.128C170.453 22.032 170.651 21.9413 170.885 21.856C171.12 21.76 171.381 21.68 171.669 21.616C171.957 21.5413 172.267 21.504 172.597 21.504C173.237 21.504 173.76 21.6 174.165 21.792C174.571 21.9733 174.885 22.2347 175.109 22.576C175.344 22.9173 175.499 23.3227 175.573 23.792C175.659 24.2613 175.701 24.7733 175.701 25.328V30H174.213V25.648C174.213 25.1573 174.187 24.736 174.133 24.384C174.091 24.032 174 23.7387 173.861 23.504C173.733 23.2693 173.552 23.0987 173.317 22.992C173.093 22.8747 172.8 22.816 172.437 22.816C171.936 22.816 171.52 22.8853 171.189 23.024C170.869 23.152 170.651 23.2693 170.533 23.376C170.619 23.6533 170.683 23.9573 170.725 24.288C170.768 24.6187 170.789 24.9653 170.789 25.328V30H169.301V25.648C169.301 25.1573 169.275 24.736 169.221 24.384C169.168 24.032 169.072 23.7387 168.933 23.504C168.805 23.2693 168.624 23.0987 168.389 22.992C168.165 22.8747 167.877 22.816 167.525 22.816C167.376 22.816 167.216 22.8213 167.045 22.832C166.875 22.8427 166.709 22.8587 166.549 22.88C166.4 22.8907 166.261 22.9067 166.133 22.928C166.005 22.9493 165.92 22.9653 165.877 22.976V30H164.389V21.92ZM180.987 28.928C181.339 28.928 181.648 28.9227 181.915 28.912C182.192 28.8907 182.421 28.8587 182.603 28.816V26.336C182.496 26.2827 182.32 26.24 182.075 26.208C181.84 26.1653 181.552 26.144 181.211 26.144C180.987 26.144 180.747 26.16 180.491 26.192C180.245 26.224 180.016 26.2933 179.803 26.4C179.6 26.496 179.429 26.6347 179.291 26.816C179.152 26.9867 179.083 27.216 179.083 27.504C179.083 28.0373 179.253 28.4107 179.595 28.624C179.936 28.8267 180.4 28.928 180.987 28.928ZM180.859 21.472C181.456 21.472 181.957 21.552 182.363 21.712C182.779 21.8613 183.109 22.08 183.355 22.368C183.611 22.6453 183.792 22.9813 183.899 23.376C184.005 23.76 184.059 24.1867 184.059 24.656V29.856C183.931 29.8773 183.749 29.9093 183.515 29.952C183.291 29.984 183.035 30.016 182.747 30.048C182.459 30.08 182.144 30.1067 181.803 30.128C181.472 30.16 181.141 30.176 180.811 30.176C180.341 30.176 179.909 30.128 179.515 30.032C179.12 29.936 178.779 29.7867 178.491 29.584C178.203 29.3707 177.979 29.0933 177.819 28.752C177.659 28.4107 177.579 28 177.579 27.52C177.579 27.0613 177.669 26.6667 177.851 26.336C178.043 26.0053 178.299 25.7387 178.619 25.536C178.939 25.3333 179.312 25.184 179.739 25.088C180.165 24.992 180.613 24.944 181.083 24.944C181.232 24.944 181.387 24.9547 181.547 24.976C181.707 24.9867 181.856 25.008 181.995 25.04C182.144 25.0613 182.272 25.0827 182.379 25.104C182.485 25.1253 182.56 25.1413 182.603 25.152V24.736C182.603 24.4907 182.576 24.2507 182.523 24.016C182.469 23.7707 182.373 23.5573 182.235 23.376C182.096 23.184 181.904 23.0347 181.659 22.928C181.424 22.8107 181.115 22.752 180.731 22.752C180.24 22.752 179.808 22.7893 179.435 22.864C179.072 22.928 178.8 22.9973 178.619 23.072L178.443 21.84C178.635 21.7547 178.955 21.6747 179.403 21.6C179.851 21.5147 180.336 21.472 180.859 21.472ZM186.53 21.92C186.871 21.8347 187.325 21.744 187.89 21.648C188.455 21.552 189.106 21.504 189.842 21.504C190.503 21.504 191.053 21.6 191.49 21.792C191.927 21.9733 192.274 22.2347 192.53 22.576C192.797 22.9067 192.983 23.3067 193.09 23.776C193.197 24.2453 193.25 24.7627 193.25 25.328V30H191.762V25.648C191.762 25.136 191.725 24.6987 191.65 24.336C191.586 23.9733 191.474 23.68 191.314 23.456C191.154 23.232 190.941 23.072 190.674 22.976C190.407 22.8693 190.077 22.816 189.682 22.816C189.522 22.816 189.357 22.8213 189.186 22.832C189.015 22.8427 188.85 22.8587 188.69 22.88C188.541 22.8907 188.402 22.9067 188.274 22.928C188.157 22.9493 188.071 22.9653 188.018 22.976V30H186.53V21.92ZM199.334 30.192C198.662 30.192 198.07 30.0853 197.558 29.872C197.056 29.6587 196.63 29.36 196.278 28.976C195.936 28.592 195.68 28.1387 195.51 27.616C195.339 27.0827 195.254 26.496 195.254 25.856C195.254 25.216 195.344 24.6293 195.526 24.096C195.718 23.5627 195.984 23.104 196.326 22.72C196.667 22.3253 197.083 22.0213 197.574 21.808C198.075 21.584 198.63 21.472 199.238 21.472C199.611 21.472 199.984 21.504 200.358 21.568C200.731 21.632 201.088 21.7333 201.43 21.872L201.094 23.136C200.87 23.0293 200.608 22.944 200.31 22.88C200.022 22.816 199.712 22.784 199.382 22.784C198.55 22.784 197.91 23.0453 197.462 23.568C197.024 24.0907 196.806 24.8533 196.806 25.856C196.806 26.304 196.854 26.7147 196.95 27.088C197.056 27.4613 197.216 27.7813 197.43 28.048C197.654 28.3147 197.936 28.5227 198.278 28.672C198.619 28.8107 199.035 28.88 199.526 28.88C199.92 28.88 200.278 28.8427 200.598 28.768C200.918 28.6933 201.168 28.6133 201.35 28.528L201.558 29.776C201.472 29.8293 201.35 29.8827 201.19 29.936C201.03 29.9787 200.848 30.016 200.646 30.048C200.443 30.0907 200.224 30.1227 199.99 30.144C199.766 30.176 199.547 30.192 199.334 30.192ZM202.691 25.856C202.691 25.12 202.798 24.48 203.011 23.936C203.224 23.3813 203.507 22.9227 203.859 22.56C204.211 22.1973 204.616 21.9253 205.075 21.744C205.534 21.5627 206.003 21.472 206.483 21.472C207.603 21.472 208.462 21.824 209.059 22.528C209.656 23.2213 209.955 24.2827 209.955 25.712C209.955 25.776 209.955 25.8613 209.955 25.968C209.955 26.064 209.95 26.1547 209.939 26.24H204.243C204.307 27.104 204.558 27.76 204.995 28.208C205.432 28.656 206.115 28.88 207.043 28.88C207.566 28.88 208.003 28.8373 208.355 28.752C208.718 28.656 208.99 28.5653 209.171 28.48L209.379 29.728C209.198 29.824 208.878 29.9253 208.419 30.032C207.971 30.1387 207.459 30.192 206.883 30.192C206.158 30.192 205.528 30.0853 204.995 29.872C204.472 29.648 204.04 29.344 203.699 28.96C203.358 28.576 203.102 28.1227 202.931 27.6C202.771 27.0667 202.691 26.4853 202.691 25.856ZM208.403 25.04C208.414 24.368 208.243 23.8187 207.891 23.392C207.55 22.9547 207.075 22.736 206.467 22.736C206.126 22.736 205.822 22.8053 205.555 22.944C205.299 23.072 205.08 23.2427 204.899 23.456C204.718 23.6693 204.574 23.9147 204.467 24.192C204.371 24.4693 204.307 24.752 204.275 25.04H208.403Z" fill="white" fill-opacity="0.8"/>
<rect x="437" y="252" width="340" height="4" rx="2" transform="rotate(-180 437 252)" fill="white" fill-opacity="0.05"/>
<defs>
<filter id="filter0_b_1140_1059" x="-100" y="-100" width="673" height="560" filterUnits="userSpaceOnUse" color-interpolation-filters="sRGB">
<feFlood flood-opacity="0" result="BackgroundImageFix"/>
<feGaussianBlur in="BackgroundImageFix" stdDeviation="50"/>
<feComposite in2="SourceAlpha" operator="in" result="effect1_backgroundBlur_1140_1059"/>
<feBlend mode="normal" in="SourceGraphic" in2="effect1_backgroundBlur_1140_1059" result="shape"/>
</filter>
<linearGradient id="paint0_linear_1140_1059" x1="16" y1="56" x2="42" y2="56" gradientUnits="userSpaceOnUse">
<stop stop-color="#A98BED"/>
<stop offset="1" stop-color="#6DF8D8"/>
</linearGradient>
<linearGradient id="paint1_linear_1140_1059" x1="105" y1="220" x2="121" y2="220" gradientUnits="userSpaceOnUse">
<stop stop-color="#A98BED"/>
<stop offset="1" stop-color="#6DF8D8"/>
</linearGradient>
<linearGradient id="paint2_linear_1140_1059" x1="125" y1="204" x2="141" y2="204" gradientUnits="userSpaceOnUse">
<stop stop-color="#A98BED"/>
<stop offset="1" stop-color="#6DF8D8"/>
</linearGradient>
<linearGradient id="paint3_linear_1140_1059" x1="145" y1="175.5" x2="161" y2="175.5" gradientUnits="userSpaceOnUse">
<stop stop-color="#A98BED"/>
<stop offset="1" stop-color="#6DF8D8"/>
</linearGradient>
<linearGradient id="paint4_linear_1140_1059" x1="177" y1="220" x2="193" y2="220" gradientUnits="userSpaceOnUse">
<stop stop-color="#A98BED"/>
<stop offset="1" stop-color="#6DF8D8"/>
</linearGradient>
<linearGradient id="paint5_linear_1140_1059" x1="197" y1="204" x2="213" y2="204" gradientUnits="userSpaceOnUse">
<stop stop-color="#A98BED"/>
<stop offset="1" stop-color="#6DF8D8"/>
</linearGradient>
</defs>
</svg>
