<svg width="142" height="32" viewBox="0 0 142 32" fill="none" xmlns="http://www.w3.org/2000/svg">
<g clip-path="url(#clip0_841_295)">
<path d="M44.1076 4.94621C43.8489 3.99009 43.3442 3.11845 42.6438 2.41809C41.9434 1.71773 41.0717 1.21311 40.1156 0.954483C36.6151 0 22.5285 0 22.5285 0C22.5285 0 8.44135 0.0289655 4.94149 0.983448C3.98541 1.24211 3.11378 1.74676 2.41343 2.44711C1.71307 3.14747 1.20843 4.01909 0.949763 4.97517C-0.108996 11.1945 -0.519754 20.6706 0.978728 26.6408C1.23739 27.5969 1.74204 28.4685 2.44239 29.1689C3.14275 29.8692 4.01437 30.3739 4.97045 30.6326C8.47059 31.587 22.5575 31.587 22.5575 31.587C22.5575 31.587 36.6444 31.587 40.1445 30.6326C41.1006 30.3739 41.9722 29.8692 42.6726 29.1689C43.3729 28.4685 43.8776 27.5969 44.1362 26.6408C45.2527 20.413 45.5969 10.9426 44.1073 4.94648" fill="#FF0000"/>
<path d="M18.045 22.5622L29.731 15.7937L18.045 9.02483V22.5622Z" fill="white"/>
<path d="M135.514 9.16965C137.047 9.16965 138.204 9.45875 139.014 10.0083C139.823 10.558 140.402 11.4258 140.749 12.6119C141.096 13.7978 141.241 15.4174 141.241 17.5001V20.8847H133.807V21.9258L133.923 24.7895C134.009 25.4259 134.154 25.8888 134.385 26.1779C134.617 26.4673 134.993 26.6119 135.485 26.6119C136.15 26.6119 136.613 26.3517 136.844 25.8312C137.105 25.3103 137.22 24.4425 137.249 23.2565L141.096 23.488C141.125 23.6615 141.125 23.893 141.125 24.1821C141.125 26.0044 140.633 27.3641 139.621 28.2607C138.609 29.1572 137.22 29.6201 135.398 29.6201C133.199 29.6201 131.666 28.9261 130.799 27.5666C129.931 26.2069 129.468 24.0662 129.468 21.2028V17.7026C129.566 12.7854 130.431 9.184 135.514 9.16965ZM82.0295 9.54565V24.0375C82.0295 24.9054 82.1161 25.5418 82.3186 25.9178C82.7294 26.7219 83.7939 26.5164 84.3724 26.1203C84.7063 25.8944 84.9755 25.5854 85.1534 25.2237V9.54538H89.579V29.3018H86.1079L85.7319 26.872H85.6452C84.6908 28.6943 83.2731 29.6199 81.3931 29.6199C78.4993 29.6127 77.7912 27.5277 77.6226 25.4102L77.6116 25.261C77.5907 24.9402 77.5785 24.619 77.5749 24.2977V9.54565H82.0295ZM104.852 9.54565V24.0375C104.852 24.9054 104.939 25.5418 105.141 25.9178C105.552 26.7219 106.617 26.5164 107.195 26.1203C107.529 25.8944 107.798 25.5854 107.976 25.2237V9.54538H112.402V29.3018H108.93L108.554 26.872H108.468C107.513 28.6943 106.096 29.6199 104.216 29.6199C101.322 29.6127 100.614 27.5277 100.445 25.4102L100.434 25.261C100.413 24.9402 100.401 24.619 100.398 24.2977V9.54565H104.852ZM69.1862 9.16965C70.6326 9.16965 71.8185 9.45876 72.6864 10.0662C73.5539 10.6737 74.2193 11.5994 74.6243 12.872C75.0292 14.1448 75.2317 15.8513 75.2317 17.963V20.8265C75.2317 22.9382 75.0292 24.616 74.6243 25.8885C74.2193 27.1617 73.5829 28.0872 72.6864 28.6946C71.7898 29.2731 70.5746 29.5912 69.0706 29.5912C67.5084 29.6201 66.2935 29.3021 65.397 28.7236C64.5004 28.1161 63.8637 27.1903 63.488 25.9178C63.1117 24.645 62.9382 22.9672 62.9382 20.8557V17.9917C62.9382 15.88 63.1407 14.1445 63.5746 12.8717C64.0086 11.5702 64.6737 10.6444 65.5995 10.0662C66.525 9.48744 67.7109 9.16938 69.1862 9.16938M119.344 1.24386V11.6571H119.373C119.778 10.9051 120.298 10.2977 121.022 9.83476C121.697 9.38084 122.493 9.13914 123.307 9.14069C124.377 9.14069 125.187 9.42979 125.794 9.97931C126.402 10.5581 126.836 11.4546 127.096 12.6985C127.348 13.9034 127.492 15.5699 127.501 17.6714L127.501 17.8764V21.0003C127.501 23.9216 127.125 26.0913 126.431 27.4797C125.708 28.8681 124.609 29.5625 123.104 29.5625C122.266 29.5625 121.513 29.36 120.819 28.984C120.206 28.626 119.697 28.1131 119.343 27.4965L119.286 27.3928H119.199L118.737 29.2731H115.063V1.24413L119.344 1.24386ZM101.641 2.25627V5.84276H97.2444V29.3018H92.9057V5.84303H88.48V2.25655L101.641 2.25627ZM53.9421 2.25627L53.9448 2.26731C53.987 2.45517 54.5719 5.05517 55.2152 8.08441L55.2659 8.32441L55.3426 8.68717L55.3939 8.93076L55.4196 9.05296L55.4709 9.29793L55.4966 9.42069L55.5476 9.66648L55.6221 10.0259C56.0566 12.1236 56.4712 14.2273 56.7192 15.7357H56.835C57.0726 14.3826 57.4177 12.651 57.7857 10.883L57.8822 10.4212C57.9306 10.1899 57.9793 9.95889 58.0284 9.72827L58.104 9.37048C58.6037 7.02754 59.1184 4.68781 59.648 2.35144L59.6563 2.3142L59.6695 2.25627H64.0952L58.9752 20.5087V29.2731H54.6075V20.5374H54.5785L49.5164 2.256L53.9421 2.25627ZM69.0993 12.2356C68.4919 12.2356 68.0869 12.5539 67.8268 13.2193C67.5666 13.8847 67.4508 14.8968 67.4508 16.3145V22.4756C67.4508 23.9219 67.5664 24.992 67.7978 25.6287C68.0293 26.265 68.4632 26.5832 69.0993 26.5832C69.7068 26.5832 70.1407 26.265 70.4011 25.6287C70.6615 24.992 70.7771 23.9219 70.7771 22.4756V16.3142C70.7771 14.8968 70.6612 13.8554 70.4011 13.219C70.1407 12.5539 69.7068 12.2356 69.0993 12.2356ZM120.125 12.8143C119.772 13.1399 119.522 13.5412 119.372 14.043L119.344 14.1448V25.368C119.703 25.9754 120.212 26.3804 121.108 26.4094C121.571 26.4094 121.947 26.2359 122.237 25.8888C122.526 25.5418 122.728 24.9632 122.844 24.1531C122.955 23.3757 123.013 22.305 123.017 20.941V18.1945C123.017 16.6325 122.959 15.4466 122.873 14.6077C122.757 13.7688 122.613 13.1614 122.352 12.8143C121.849 12.091 120.761 12.0999 120.125 12.8143ZM135.427 12.149C134.935 12.1778 134.588 12.3225 134.385 12.5829C134.154 12.872 134.009 13.3059 133.923 13.9423C133.838 14.5658 133.808 16.7451 133.807 16.8323V18.2524H137.047V17V17.024C137.045 17.4618 137.036 16.7699 137.016 15.9205L137.013 15.8063C136.995 15.0599 136.968 14.2276 136.931 13.9423C136.844 13.277 136.699 12.8141 136.468 12.5539C136.237 12.2935 135.89 12.149 135.427 12.149" fill="white"/>
</g>
<defs>
<clipPath id="clip0_841_295">
<rect width="141.241" height="32" fill="white"/>
</clipPath>
</defs>
</svg>
