<svg width="214" height="290" viewBox="0 0 214 290" fill="none" xmlns="http://www.w3.org/2000/svg">
<rect width="214" height="290" rx="20" fill="#0F0E10"/>
<rect x="16" y="47" width="182" height="32" rx="5" fill="white" fill-opacity="0.05"/>
<path d="M40.144 66.12C40.144 66.568 40.064 66.984 39.904 67.368C39.7547 67.7413 39.5253 68.072 39.216 68.36C38.9173 68.6373 38.5387 68.8507 38.08 69C37.6213 69.16 37.0933 69.24 36.496 69.24C35.8027 69.24 35.2213 69.144 34.752 68.952C34.2933 68.7493 33.9253 68.4987 33.648 68.2C33.3707 67.9013 33.1733 67.576 33.056 67.224C32.9387 66.8613 32.88 66.52 32.88 66.2C32.88 65.8907 32.928 65.5973 33.024 65.32C33.1307 65.032 33.264 64.7653 33.424 64.52C33.5947 64.2747 33.7867 64.056 34 63.864C34.224 63.6613 34.4587 63.4853 34.704 63.336C33.6587 62.7387 33.136 61.8587 33.136 60.696C33.136 60.2907 33.216 59.9067 33.376 59.544C33.536 59.1707 33.76 58.8453 34.048 58.568C34.3467 58.2907 34.704 58.072 35.12 57.912C35.536 57.7413 36 57.656 36.512 57.656C37.1093 57.656 37.6213 57.7467 38.048 57.928C38.4747 58.1093 38.8213 58.344 39.088 58.632C39.3653 58.9093 39.5627 59.2187 39.68 59.56C39.808 59.9013 39.872 60.232 39.872 60.552C39.872 60.8613 39.824 61.1547 39.728 61.432C39.6427 61.6987 39.52 61.9493 39.36 62.184C39.2107 62.4187 39.0347 62.6267 38.832 62.808C38.64 62.9893 38.4373 63.1493 38.224 63.288C39.4827 63.8853 40.1227 64.8293 40.144 66.12ZM34.384 66.216C34.384 66.408 34.416 66.6107 34.48 66.824C34.5547 67.0267 34.6773 67.2187 34.848 67.4C35.0187 67.5707 35.2373 67.7147 35.504 67.832C35.7707 67.9493 36.1067 68.008 36.512 68.008C36.8747 68.008 37.1893 67.9547 37.456 67.848C37.7333 67.7413 37.9573 67.608 38.128 67.448C38.2987 67.2773 38.4267 67.0853 38.512 66.872C38.5973 66.6587 38.64 66.44 38.64 66.216C38.64 65.8747 38.576 65.576 38.448 65.32C38.32 65.064 38.1333 64.84 37.888 64.648C37.6533 64.456 37.3653 64.296 37.024 64.168C36.6933 64.0293 36.3147 63.912 35.888 63.816C35.408 64.0827 35.0347 64.4133 34.768 64.808C34.512 65.2027 34.384 65.672 34.384 66.216ZM38.384 60.536C38.384 60.376 38.3467 60.2 38.272 60.008C38.208 59.816 38.1013 59.64 37.952 59.48C37.8027 59.3093 37.6107 59.1707 37.376 59.064C37.1413 58.9467 36.8533 58.888 36.512 58.888C36.1707 58.888 35.8773 58.9413 35.632 59.048C35.3973 59.1547 35.2053 59.2933 35.056 59.464C34.9067 59.624 34.7947 59.8053 34.72 60.008C34.656 60.2 34.624 60.392 34.624 60.584C34.624 60.8187 34.6667 61.0533 34.752 61.288C34.8373 61.5227 34.9707 61.7413 35.152 61.944C35.3333 62.1467 35.568 62.328 35.856 62.488C36.1547 62.648 36.5067 62.776 36.912 62.872C37.36 62.6053 37.7173 62.296 37.984 61.944C38.2507 61.5813 38.384 61.112 38.384 60.536Z" fill="white" fill-opacity="0.4"/>
<path d="M170 64.1714L174.95 59.2217L176.364 60.6359L170 66.9999L163.636 60.6359L165.05 59.2217L170 64.1714Z" fill="white" fill-opacity="0.4"/>
<path d="M23.042 38.824V40H17.204V30.298H18.562V38.824H23.042ZM25.6818 40H24.3798V32.72H25.6818V40ZM25.0238 31.404C24.7904 31.404 24.5898 31.3293 24.4218 31.18C24.2631 31.0213 24.1838 30.8113 24.1838 30.55C24.1838 30.2887 24.2631 30.0833 24.4218 29.934C24.5898 29.7753 24.7904 29.696 25.0238 29.696C25.2571 29.696 25.4531 29.7753 25.6118 29.934C25.7798 30.0833 25.8638 30.2887 25.8638 30.55C25.8638 30.8113 25.7798 31.0213 25.6118 31.18C25.4531 31.3293 25.2571 31.404 25.0238 31.404ZM27.9208 32.93C28.2194 32.8553 28.6161 32.776 29.1108 32.692C29.6054 32.608 30.1748 32.566 30.8188 32.566C31.3974 32.566 31.8781 32.65 32.2608 32.818C32.6434 32.9767 32.9468 33.2053 33.1708 33.504C33.4041 33.7933 33.5674 34.1433 33.6608 34.554C33.7541 34.9647 33.8008 35.4173 33.8008 35.912V40H32.4988V36.192C32.4988 35.744 32.4661 35.3613 32.4008 35.044C32.3448 34.7267 32.2468 34.47 32.1068 34.274C31.9668 34.078 31.7801 33.938 31.5468 33.854C31.3134 33.7607 31.0241 33.714 30.6788 33.714C30.5388 33.714 30.3941 33.7187 30.2448 33.728C30.0954 33.7373 29.9508 33.7513 29.8108 33.77C29.6801 33.7793 29.5588 33.7933 29.4468 33.812C29.3441 33.8307 29.2694 33.8447 29.2228 33.854V40H27.9208V32.93ZM35.9598 40V29.36L37.2618 29.136V32.86C37.5045 32.7667 37.7612 32.6967 38.0318 32.65C38.3118 32.594 38.5872 32.566 38.8578 32.566C39.4365 32.566 39.9172 32.65 40.2998 32.818C40.6825 32.9767 40.9858 33.2053 41.2098 33.504C41.4432 33.7933 41.6065 34.1433 41.6998 34.554C41.7932 34.9647 41.8398 35.4173 41.8398 35.912V40H40.5378V36.192C40.5378 35.744 40.5052 35.3613 40.4398 35.044C40.3838 34.7267 40.2858 34.47 40.1458 34.274C40.0058 34.078 39.8192 33.938 39.5858 33.854C39.3525 33.7607 39.0632 33.714 38.7178 33.714C38.5778 33.714 38.4332 33.7233 38.2838 33.742C38.1345 33.7607 37.9898 33.784 37.8498 33.812C37.7192 33.8307 37.5978 33.854 37.4858 33.882C37.3832 33.91 37.3085 33.9333 37.2618 33.952V40H35.9598ZM46.4219 39.062C46.7299 39.062 47.0006 39.0573 47.2339 39.048C47.4766 39.0293 47.6772 39.0013 47.8359 38.964V36.794C47.7426 36.7473 47.5886 36.71 47.3739 36.682C47.1686 36.6447 46.9166 36.626 46.6179 36.626C46.4219 36.626 46.2119 36.64 45.9879 36.668C45.7732 36.696 45.5726 36.7567 45.3859 36.85C45.2086 36.934 45.0592 37.0553 44.9379 37.214C44.8166 37.3633 44.7559 37.564 44.7559 37.816C44.7559 38.2827 44.9052 38.6093 45.2039 38.796C45.5026 38.9733 45.9086 39.062 46.4219 39.062ZM46.3099 32.538C46.8326 32.538 47.2712 32.608 47.6259 32.748C47.9899 32.8787 48.2792 33.07 48.4939 33.322C48.7179 33.5647 48.8766 33.8587 48.9699 34.204C49.0632 34.54 49.1099 34.9133 49.1099 35.324V39.874C48.9979 39.8927 48.8392 39.9207 48.6339 39.958C48.4379 39.986 48.2139 40.014 47.9619 40.042C47.7099 40.07 47.4346 40.0933 47.1359 40.112C46.8466 40.14 46.5572 40.154 46.2679 40.154C45.8572 40.154 45.4792 40.112 45.1339 40.028C44.7886 39.944 44.4899 39.8133 44.2379 39.636C43.9859 39.4493 43.7899 39.2067 43.6499 38.908C43.5099 38.6093 43.4399 38.25 43.4399 37.83C43.4399 37.4287 43.5192 37.0833 43.6779 36.794C43.8459 36.5047 44.0699 36.2713 44.3499 36.094C44.6299 35.9167 44.9566 35.786 45.3299 35.702C45.7032 35.618 46.0952 35.576 46.5059 35.576C46.6366 35.576 46.7719 35.5853 46.9119 35.604C47.0519 35.6133 47.1826 35.632 47.3039 35.66C47.4346 35.6787 47.5466 35.6973 47.6399 35.716C47.7332 35.7347 47.7986 35.7487 47.8359 35.758V35.394C47.8359 35.1793 47.8126 34.9693 47.7659 34.764C47.7192 34.5493 47.6352 34.3627 47.5139 34.204C47.3926 34.036 47.2246 33.9053 47.0099 33.812C46.8046 33.7093 46.5339 33.658 46.1979 33.658C45.7686 33.658 45.3906 33.6907 45.0639 33.756C44.7466 33.812 44.5086 33.8727 44.3499 33.938L44.1959 32.86C44.3639 32.7853 44.6439 32.7153 45.0359 32.65C45.4279 32.5753 45.8526 32.538 46.3099 32.538ZM52.9663 39.062C53.4983 39.062 53.8903 38.992 54.1423 38.852C54.4037 38.712 54.5343 38.488 54.5343 38.18C54.5343 37.8627 54.4083 37.6107 54.1563 37.424C53.9043 37.2373 53.489 37.0273 52.9103 36.794C52.6303 36.682 52.3597 36.57 52.0983 36.458C51.8463 36.3367 51.627 36.1967 51.4403 36.038C51.2537 35.8793 51.1043 35.688 50.9923 35.464C50.8803 35.24 50.8243 34.9647 50.8243 34.638C50.8243 33.994 51.0623 33.4853 51.5383 33.112C52.0143 32.7293 52.663 32.538 53.4843 32.538C53.6897 32.538 53.895 32.552 54.1003 32.58C54.3057 32.5987 54.497 32.6267 54.6743 32.664C54.8517 32.692 55.0057 32.7247 55.1363 32.762C55.2763 32.7993 55.3837 32.832 55.4583 32.86L55.2203 33.98C55.0803 33.9053 54.861 33.8307 54.5623 33.756C54.2637 33.672 53.9043 33.63 53.4843 33.63C53.1203 33.63 52.803 33.7047 52.5323 33.854C52.2617 33.994 52.1263 34.218 52.1263 34.526C52.1263 34.6847 52.1543 34.8247 52.2103 34.946C52.2757 35.0673 52.369 35.1793 52.4903 35.282C52.621 35.3753 52.7797 35.464 52.9663 35.548C53.153 35.632 53.377 35.7207 53.6383 35.814C53.9837 35.9447 54.2917 36.0753 54.5623 36.206C54.833 36.3273 55.0617 36.472 55.2483 36.64C55.4443 36.808 55.5937 37.0133 55.6963 37.256C55.799 37.4893 55.8503 37.7787 55.8503 38.124C55.8503 38.796 55.5983 39.3047 55.0943 39.65C54.5997 39.9953 53.8903 40.168 52.9663 40.168C52.3223 40.168 51.8183 40.112 51.4543 40C51.0903 39.8973 50.843 39.818 50.7123 39.762L50.9503 38.642C51.0997 38.698 51.3377 38.782 51.6643 38.894C51.991 39.006 52.425 39.062 52.9663 39.062Z" fill="white" fill-opacity="0.4"/>
<rect x="16" y="115" width="182" height="32" rx="5" fill="white" fill-opacity="0.05"/>
<path d="M33.488 128.2C34.096 127.965 34.688 127.667 35.264 127.304C35.84 126.931 36.368 126.467 36.848 125.912H37.904V137H36.416V127.976C36.288 128.093 36.128 128.216 35.936 128.344C35.7547 128.472 35.552 128.595 35.328 128.712C35.1147 128.829 34.8853 128.941 34.64 129.048C34.4053 129.155 34.176 129.245 33.952 129.32L33.488 128.2ZM48.5033 128.744C48.5033 129.128 48.4233 129.501 48.2633 129.864C48.1139 130.216 47.9113 130.568 47.6553 130.92C47.3993 131.261 47.1113 131.603 46.7913 131.944C46.4713 132.275 46.1513 132.6 45.8313 132.92C45.6499 133.101 45.4366 133.315 45.1913 133.56C44.9566 133.805 44.7326 134.061 44.5193 134.328C44.3059 134.595 44.1246 134.851 43.9753 135.096C43.8366 135.341 43.7673 135.555 43.7673 135.736H48.8713V137H42.1513C42.1406 136.936 42.1353 136.872 42.1353 136.808C42.1353 136.744 42.1353 136.685 42.1353 136.632C42.1353 136.131 42.2153 135.667 42.3753 135.24C42.5459 134.803 42.7646 134.392 43.0312 134.008C43.2979 133.624 43.5966 133.261 43.9273 132.92C44.2579 132.579 44.5833 132.248 44.9033 131.928C45.1699 131.672 45.4206 131.421 45.6553 131.176C45.9006 130.92 46.1139 130.669 46.2953 130.424C46.4873 130.168 46.6366 129.907 46.7433 129.64C46.8606 129.373 46.9193 129.091 46.9193 128.792C46.9193 128.472 46.8659 128.2 46.7593 127.976C46.6633 127.752 46.5299 127.565 46.3593 127.416C46.1886 127.267 45.9859 127.16 45.7513 127.096C45.5273 127.021 45.2873 126.984 45.0312 126.984C44.7219 126.984 44.4393 127.027 44.1833 127.112C43.9273 127.197 43.6979 127.299 43.4953 127.416C43.2926 127.523 43.1219 127.64 42.9833 127.768C42.8446 127.885 42.7379 127.976 42.6633 128.04L41.9273 126.984C42.0233 126.877 42.1673 126.749 42.3593 126.6C42.5513 126.44 42.7806 126.291 43.0473 126.152C43.3139 126.013 43.6126 125.896 43.9433 125.8C44.2739 125.704 44.6313 125.656 45.0153 125.656C46.1779 125.656 47.0473 125.928 47.6233 126.472C48.2099 127.005 48.5033 127.763 48.5033 128.744Z" fill="white" fill-opacity="0.4"/>
<path d="M170 132.171L174.95 127.222L176.364 128.636L170 135L163.636 128.636L165.05 127.222L170 132.171Z" fill="white" fill-opacity="0.4"/>
<path d="M21.376 108.21C20.6947 108.21 20.074 108.098 19.514 107.874C18.954 107.65 18.4733 107.323 18.072 106.894C17.6707 106.465 17.358 105.937 17.134 105.312C16.9193 104.677 16.812 103.954 16.812 103.142C16.812 102.33 16.9333 101.611 17.176 100.986C17.428 100.351 17.764 99.8193 18.184 99.39C18.604 98.9607 19.094 98.634 19.654 98.41C20.214 98.186 20.8113 98.074 21.446 98.074C21.8473 98.074 22.2067 98.102 22.524 98.158C22.8507 98.214 23.1307 98.2793 23.364 98.354C23.6067 98.4287 23.8027 98.5033 23.952 98.578C24.1013 98.6527 24.204 98.7087 24.26 98.746L23.868 99.866C23.784 99.81 23.6627 99.7493 23.504 99.684C23.3453 99.6187 23.1633 99.5533 22.958 99.488C22.762 99.4227 22.5427 99.3713 22.3 99.334C22.0667 99.2873 21.8287 99.264 21.586 99.264C21.0727 99.264 20.6107 99.3527 20.2 99.53C19.7893 99.7073 19.4393 99.964 19.15 100.3C18.8607 100.636 18.6367 101.047 18.478 101.532C18.3287 102.008 18.254 102.545 18.254 103.142C18.254 103.721 18.3193 104.248 18.45 104.724C18.59 105.2 18.7953 105.611 19.066 105.956C19.3367 106.292 19.6727 106.553 20.074 106.74C20.4847 106.927 20.9607 107.02 21.502 107.02C22.1273 107.02 22.6453 106.955 23.056 106.824C23.4667 106.693 23.7747 106.577 23.98 106.474L24.33 107.594C24.2647 107.641 24.148 107.701 23.98 107.776C23.812 107.841 23.602 107.907 23.35 107.972C23.098 108.037 22.804 108.093 22.468 108.14C22.132 108.187 21.768 108.21 21.376 108.21ZM32.0226 104.36C32.0226 104.939 31.9386 105.461 31.7706 105.928C31.6026 106.395 31.3646 106.796 31.0566 107.132C30.7579 107.468 30.3986 107.729 29.9786 107.916C29.5586 108.093 29.1012 108.182 28.6066 108.182C28.1119 108.182 27.6546 108.093 27.2346 107.916C26.8146 107.729 26.4506 107.468 26.1426 107.132C25.8439 106.796 25.6106 106.395 25.4426 105.928C25.2746 105.461 25.1906 104.939 25.1906 104.36C25.1906 103.791 25.2746 103.273 25.4426 102.806C25.6106 102.33 25.8439 101.924 26.1426 101.588C26.4506 101.252 26.8146 100.995 27.2346 100.818C27.6546 100.631 28.1119 100.538 28.6066 100.538C29.1012 100.538 29.5586 100.631 29.9786 100.818C30.3986 100.995 30.7579 101.252 31.0566 101.588C31.3646 101.924 31.6026 102.33 31.7706 102.806C31.9386 103.273 32.0226 103.791 32.0226 104.36ZM30.6646 104.36C30.6646 103.539 30.4779 102.89 30.1046 102.414C29.7406 101.929 29.2412 101.686 28.6066 101.686C27.9719 101.686 27.4679 101.929 27.0946 102.414C26.7306 102.89 26.5486 103.539 26.5486 104.36C26.5486 105.181 26.7306 105.835 27.0946 106.32C27.4679 106.796 27.9719 107.034 28.6066 107.034C29.2412 107.034 29.7406 106.796 30.1046 106.32C30.4779 105.835 30.6646 105.181 30.6646 104.36ZM36.0384 108.14C35.2357 108.121 34.6664 107.949 34.3304 107.622C33.9944 107.295 33.8264 106.787 33.8264 106.096V97.36L35.1284 97.136V105.886C35.1284 106.101 35.147 106.278 35.1844 106.418C35.2217 106.558 35.2824 106.67 35.3664 106.754C35.4504 106.838 35.5624 106.903 35.7024 106.95C35.8424 106.987 36.015 107.02 36.2204 107.048L36.0384 108.14ZM43.4785 107.79C43.1798 107.865 42.7832 107.944 42.2885 108.028C41.8032 108.112 41.2385 108.154 40.5945 108.154C40.0345 108.154 39.5632 108.075 39.1805 107.916C38.7978 107.748 38.4898 107.515 38.2565 107.216C38.0232 106.917 37.8552 106.567 37.7525 106.166C37.6498 105.755 37.5985 105.303 37.5985 104.808V100.72H38.9005V104.528C38.9005 105.415 39.0405 106.049 39.3205 106.432C39.6005 106.815 40.0718 107.006 40.7345 107.006C40.8745 107.006 41.0192 107.001 41.1685 106.992C41.3178 106.983 41.4578 106.973 41.5885 106.964C41.7192 106.945 41.8358 106.931 41.9385 106.922C42.0505 106.903 42.1298 106.885 42.1765 106.866V100.72H43.4785V107.79ZM45.7216 100.93C46.0202 100.855 46.4169 100.776 46.9116 100.692C47.4062 100.608 47.9756 100.566 48.6196 100.566C49.1982 100.566 49.6789 100.65 50.0616 100.818C50.4442 100.977 50.7476 101.205 50.9716 101.504C51.2049 101.793 51.3682 102.143 51.4616 102.554C51.5549 102.965 51.6016 103.417 51.6016 103.912V108H50.2996V104.192C50.2996 103.744 50.2669 103.361 50.2016 103.044C50.1456 102.727 50.0476 102.47 49.9076 102.274C49.7676 102.078 49.5809 101.938 49.3476 101.854C49.1142 101.761 48.8249 101.714 48.4796 101.714C48.3396 101.714 48.1949 101.719 48.0456 101.728C47.8962 101.737 47.7516 101.751 47.6116 101.77C47.4809 101.779 47.3596 101.793 47.2476 101.812C47.1449 101.831 47.0702 101.845 47.0236 101.854V108H45.7216V100.93ZM56.2246 107.062C56.5326 107.062 56.8033 107.057 57.0366 107.048C57.2793 107.029 57.48 107.001 57.6386 106.964V104.794C57.5453 104.747 57.3913 104.71 57.1766 104.682C56.9713 104.645 56.7193 104.626 56.4206 104.626C56.2246 104.626 56.0146 104.64 55.7906 104.668C55.576 104.696 55.3753 104.757 55.1886 104.85C55.0113 104.934 54.862 105.055 54.7406 105.214C54.6193 105.363 54.5586 105.564 54.5586 105.816C54.5586 106.283 54.708 106.609 55.0066 106.796C55.3053 106.973 55.7113 107.062 56.2246 107.062ZM56.1126 100.538C56.6353 100.538 57.074 100.608 57.4286 100.748C57.7926 100.879 58.082 101.07 58.2966 101.322C58.5206 101.565 58.6793 101.859 58.7726 102.204C58.866 102.54 58.9126 102.913 58.9126 103.324V107.874C58.8006 107.893 58.642 107.921 58.4366 107.958C58.2406 107.986 58.0166 108.014 57.7646 108.042C57.5126 108.07 57.2373 108.093 56.9386 108.112C56.6493 108.14 56.36 108.154 56.0706 108.154C55.66 108.154 55.282 108.112 54.9366 108.028C54.5913 107.944 54.2926 107.813 54.0406 107.636C53.7886 107.449 53.5926 107.207 53.4526 106.908C53.3126 106.609 53.2426 106.25 53.2426 105.83C53.2426 105.429 53.322 105.083 53.4806 104.794C53.6486 104.505 53.8726 104.271 54.1526 104.094C54.4326 103.917 54.7593 103.786 55.1326 103.702C55.506 103.618 55.898 103.576 56.3086 103.576C56.4393 103.576 56.5746 103.585 56.7146 103.604C56.8546 103.613 56.9853 103.632 57.1066 103.66C57.2373 103.679 57.3493 103.697 57.4426 103.716C57.536 103.735 57.6013 103.749 57.6386 103.758V103.394C57.6386 103.179 57.6153 102.969 57.5686 102.764C57.522 102.549 57.438 102.363 57.3166 102.204C57.1953 102.036 57.0273 101.905 56.8126 101.812C56.6073 101.709 56.3366 101.658 56.0006 101.658C55.5713 101.658 55.1933 101.691 54.8666 101.756C54.5493 101.812 54.3113 101.873 54.1526 101.938L53.9986 100.86C54.1666 100.785 54.4466 100.715 54.8386 100.65C55.2306 100.575 55.6553 100.538 56.1126 100.538ZM62.7691 107.062C63.3011 107.062 63.6931 106.992 63.9451 106.852C64.2064 106.712 64.3371 106.488 64.3371 106.18C64.3371 105.863 64.2111 105.611 63.9591 105.424C63.7071 105.237 63.2917 105.027 62.7131 104.794C62.4331 104.682 62.1624 104.57 61.9011 104.458C61.6491 104.337 61.4297 104.197 61.2431 104.038C61.0564 103.879 60.9071 103.688 60.7951 103.464C60.6831 103.24 60.6271 102.965 60.6271 102.638C60.6271 101.994 60.8651 101.485 61.3411 101.112C61.8171 100.729 62.4657 100.538 63.2871 100.538C63.4924 100.538 63.6977 100.552 63.9031 100.58C64.1084 100.599 64.2997 100.627 64.4771 100.664C64.6544 100.692 64.8084 100.725 64.9391 100.762C65.0791 100.799 65.1864 100.832 65.2611 100.86L65.0231 101.98C64.8831 101.905 64.6637 101.831 64.3651 101.756C64.0664 101.672 63.7071 101.63 63.2871 101.63C62.9231 101.63 62.6057 101.705 62.3351 101.854C62.0644 101.994 61.9291 102.218 61.9291 102.526C61.9291 102.685 61.9571 102.825 62.0131 102.946C62.0784 103.067 62.1717 103.179 62.2931 103.282C62.4237 103.375 62.5824 103.464 62.7691 103.548C62.9557 103.632 63.1797 103.721 63.4411 103.814C63.7864 103.945 64.0944 104.075 64.3651 104.206C64.6357 104.327 64.8644 104.472 65.0511 104.64C65.2471 104.808 65.3964 105.013 65.4991 105.256C65.6017 105.489 65.6531 105.779 65.6531 106.124C65.6531 106.796 65.4011 107.305 64.8971 107.65C64.4024 107.995 63.6931 108.168 62.7691 108.168C62.1251 108.168 61.6211 108.112 61.2571 108C60.8931 107.897 60.6457 107.818 60.5151 107.762L60.7531 106.642C60.9024 106.698 61.1404 106.782 61.4671 106.894C61.7937 107.006 62.2277 107.062 62.7691 107.062Z" fill="white" fill-opacity="0.4"/>
<rect x="16" y="215" width="32" height="8" rx="2" transform="rotate(-90 16 215)" fill="white" fill-opacity="0.05"/>
<rect x="28" y="215" width="32" height="8" rx="2" transform="rotate(-90 28 215)" fill="white" fill-opacity="0.05"/>
<rect x="40" y="215" width="32" height="8" rx="2" transform="rotate(-90 40 215)" fill="white" fill-opacity="0.05"/>
<rect x="54" y="183" width="142" height="32" rx="5" fill="white" fill-opacity="0.05"/>
<path d="M71.488 196.2C72.096 195.965 72.688 195.667 73.264 195.304C73.84 194.931 74.368 194.467 74.848 193.912H75.904V205H74.416V195.976C74.288 196.093 74.128 196.216 73.936 196.344C73.7547 196.472 73.552 196.595 73.328 196.712C73.1147 196.829 72.8853 196.941 72.64 197.048C72.4053 197.155 72.176 197.245 71.952 197.32L71.488 196.2ZM86.5033 196.744C86.5033 197.128 86.4233 197.501 86.2633 197.864C86.1139 198.216 85.9113 198.568 85.6553 198.92C85.3993 199.261 85.1113 199.603 84.7913 199.944C84.4713 200.275 84.1513 200.6 83.8313 200.92C83.6499 201.101 83.4366 201.315 83.1913 201.56C82.9566 201.805 82.7326 202.061 82.5193 202.328C82.3059 202.595 82.1246 202.851 81.9753 203.096C81.8366 203.341 81.7673 203.555 81.7673 203.736H86.8713V205H80.1513C80.1406 204.936 80.1353 204.872 80.1353 204.808C80.1353 204.744 80.1353 204.685 80.1353 204.632C80.1353 204.131 80.2153 203.667 80.3753 203.24C80.5459 202.803 80.7646 202.392 81.0312 202.008C81.2979 201.624 81.5966 201.261 81.9273 200.92C82.2579 200.579 82.5833 200.248 82.9033 199.928C83.1699 199.672 83.4206 199.421 83.6553 199.176C83.9006 198.92 84.1139 198.669 84.2953 198.424C84.4873 198.168 84.6366 197.907 84.7433 197.64C84.8606 197.373 84.9193 197.091 84.9193 196.792C84.9193 196.472 84.8659 196.2 84.7593 195.976C84.6633 195.752 84.5299 195.565 84.3593 195.416C84.1886 195.267 83.9859 195.16 83.7513 195.096C83.5273 195.021 83.2873 194.984 83.0312 194.984C82.7219 194.984 82.4393 195.027 82.1833 195.112C81.9273 195.197 81.6979 195.299 81.4953 195.416C81.2926 195.523 81.1219 195.64 80.9833 195.768C80.8446 195.885 80.7379 195.976 80.6633 196.04L79.9273 194.984C80.0233 194.877 80.1673 194.749 80.3593 194.6C80.5513 194.44 80.7806 194.291 81.0473 194.152C81.3139 194.013 81.6126 193.896 81.9433 193.8C82.2739 193.704 82.6313 193.656 83.0153 193.656C84.1779 193.656 85.0473 193.928 85.6233 194.472C86.2099 195.005 86.5033 195.763 86.5033 196.744Z" fill="white" fill-opacity="0.4"/>
<path d="M168 200.171L172.95 195.222L174.364 196.636L168 203L161.636 196.636L163.05 195.222L168 200.171Z" fill="white" fill-opacity="0.4"/>
<path d="M59.376 176.21C58.6947 176.21 58.074 176.098 57.514 175.874C56.954 175.65 56.4733 175.323 56.072 174.894C55.6707 174.465 55.358 173.937 55.134 173.312C54.9193 172.677 54.812 171.954 54.812 171.142C54.812 170.33 54.9333 169.611 55.176 168.986C55.428 168.351 55.764 167.819 56.184 167.39C56.604 166.961 57.094 166.634 57.654 166.41C58.214 166.186 58.8113 166.074 59.446 166.074C59.8473 166.074 60.2067 166.102 60.524 166.158C60.8507 166.214 61.1307 166.279 61.364 166.354C61.6067 166.429 61.8027 166.503 61.952 166.578C62.1013 166.653 62.204 166.709 62.26 166.746L61.868 167.866C61.784 167.81 61.6627 167.749 61.504 167.684C61.3453 167.619 61.1633 167.553 60.958 167.488C60.762 167.423 60.5427 167.371 60.3 167.334C60.0667 167.287 59.8287 167.264 59.586 167.264C59.0727 167.264 58.6107 167.353 58.2 167.53C57.7893 167.707 57.4393 167.964 57.15 168.3C56.8607 168.636 56.6367 169.047 56.478 169.532C56.3287 170.008 56.254 170.545 56.254 171.142C56.254 171.721 56.3193 172.248 56.45 172.724C56.59 173.2 56.7953 173.611 57.066 173.956C57.3367 174.292 57.6727 174.553 58.074 174.74C58.4847 174.927 58.9607 175.02 59.502 175.02C60.1273 175.02 60.6453 174.955 61.056 174.824C61.4667 174.693 61.7747 174.577 61.98 174.474L62.33 175.594C62.2647 175.641 62.148 175.701 61.98 175.776C61.812 175.841 61.602 175.907 61.35 175.972C61.098 176.037 60.804 176.093 60.468 176.14C60.132 176.187 59.768 176.21 59.376 176.21ZM66.2656 175.062C66.5736 175.062 66.8443 175.057 67.0776 175.048C67.3203 175.029 67.521 175.001 67.6796 174.964V172.794C67.5863 172.747 67.4323 172.71 67.2176 172.682C67.0123 172.645 66.7603 172.626 66.4616 172.626C66.2656 172.626 66.0556 172.64 65.8316 172.668C65.617 172.696 65.4163 172.757 65.2296 172.85C65.0523 172.934 64.903 173.055 64.7816 173.214C64.6603 173.363 64.5996 173.564 64.5996 173.816C64.5996 174.283 64.749 174.609 65.0476 174.796C65.3463 174.973 65.7523 175.062 66.2656 175.062ZM66.1536 168.538C66.6763 168.538 67.115 168.608 67.4696 168.748C67.8336 168.879 68.123 169.07 68.3376 169.322C68.5616 169.565 68.7203 169.859 68.8136 170.204C68.907 170.54 68.9536 170.913 68.9536 171.324V175.874C68.8416 175.893 68.683 175.921 68.4776 175.958C68.2816 175.986 68.0576 176.014 67.8056 176.042C67.5536 176.07 67.2783 176.093 66.9796 176.112C66.6903 176.14 66.401 176.154 66.1116 176.154C65.701 176.154 65.323 176.112 64.9776 176.028C64.6323 175.944 64.3336 175.813 64.0816 175.636C63.8296 175.449 63.6336 175.207 63.4936 174.908C63.3536 174.609 63.2836 174.25 63.2836 173.83C63.2836 173.429 63.363 173.083 63.5216 172.794C63.6896 172.505 63.9136 172.271 64.1936 172.094C64.4736 171.917 64.8003 171.786 65.1736 171.702C65.547 171.618 65.939 171.576 66.3496 171.576C66.4803 171.576 66.6156 171.585 66.7556 171.604C66.8956 171.613 67.0263 171.632 67.1476 171.66C67.2783 171.679 67.3903 171.697 67.4836 171.716C67.577 171.735 67.6423 171.749 67.6796 171.758V171.394C67.6796 171.179 67.6563 170.969 67.6096 170.764C67.563 170.549 67.479 170.363 67.3576 170.204C67.2363 170.036 67.0683 169.905 66.8536 169.812C66.6483 169.709 66.3776 169.658 66.0416 169.658C65.6123 169.658 65.2343 169.691 64.9076 169.756C64.5903 169.812 64.3523 169.873 64.1936 169.938L64.0396 168.86C64.2076 168.785 64.4876 168.715 64.8796 168.65C65.2716 168.575 65.6963 168.538 66.1536 168.538ZM71.1161 168.93C71.4148 168.855 71.8068 168.776 72.2921 168.692C72.7868 168.608 73.3561 168.566 74.0001 168.566C74.4668 168.566 74.8588 168.631 75.1761 168.762C75.4934 168.883 75.7594 169.065 75.9741 169.308C76.0394 169.261 76.1421 169.196 76.2821 169.112C76.4221 169.028 76.5948 168.949 76.8001 168.874C77.0054 168.79 77.2341 168.72 77.4861 168.664C77.7381 168.599 78.0088 168.566 78.2981 168.566C78.8581 168.566 79.3154 168.65 79.6701 168.818C80.0248 168.977 80.3001 169.205 80.4961 169.504C80.7014 169.803 80.8368 170.157 80.9021 170.568C80.9768 170.979 81.0141 171.427 81.0141 171.912V176H79.7121V172.192C79.7121 171.763 79.6888 171.394 79.6421 171.086C79.6048 170.778 79.5254 170.521 79.4041 170.316C79.2921 170.111 79.1334 169.961 78.9281 169.868C78.7321 169.765 78.4754 169.714 78.1581 169.714C77.7194 169.714 77.3554 169.775 77.0661 169.896C76.7861 170.008 76.5948 170.111 76.4921 170.204C76.5668 170.447 76.6228 170.713 76.6601 171.002C76.6974 171.291 76.7161 171.595 76.7161 171.912V176H75.4141V172.192C75.4141 171.763 75.3908 171.394 75.3441 171.086C75.2974 170.778 75.2134 170.521 75.0921 170.316C74.9801 170.111 74.8214 169.961 74.6161 169.868C74.4201 169.765 74.1681 169.714 73.8601 169.714C73.7294 169.714 73.5894 169.719 73.4401 169.728C73.2908 169.737 73.1461 169.751 73.0061 169.77C72.8754 169.779 72.7541 169.793 72.6421 169.812C72.5301 169.831 72.4554 169.845 72.4181 169.854V176H71.1161V168.93ZM85.6387 175.062C85.9467 175.062 86.2174 175.057 86.4507 175.048C86.6934 175.029 86.894 175.001 87.0527 174.964V172.794C86.9594 172.747 86.8054 172.71 86.5907 172.682C86.3854 172.645 86.1334 172.626 85.8347 172.626C85.6387 172.626 85.4287 172.64 85.2047 172.668C84.99 172.696 84.7894 172.757 84.6027 172.85C84.4254 172.934 84.276 173.055 84.1547 173.214C84.0334 173.363 83.9727 173.564 83.9727 173.816C83.9727 174.283 84.122 174.609 84.4207 174.796C84.7194 174.973 85.1254 175.062 85.6387 175.062ZM85.5267 168.538C86.0494 168.538 86.488 168.608 86.8427 168.748C87.2067 168.879 87.496 169.07 87.7107 169.322C87.9347 169.565 88.0934 169.859 88.1867 170.204C88.28 170.54 88.3267 170.913 88.3267 171.324V175.874C88.2147 175.893 88.056 175.921 87.8507 175.958C87.6547 175.986 87.4307 176.014 87.1787 176.042C86.9267 176.07 86.6514 176.093 86.3527 176.112C86.0634 176.14 85.774 176.154 85.4847 176.154C85.074 176.154 84.696 176.112 84.3507 176.028C84.0054 175.944 83.7067 175.813 83.4547 175.636C83.2027 175.449 83.0067 175.207 82.8667 174.908C82.7267 174.609 82.6567 174.25 82.6567 173.83C82.6567 173.429 82.736 173.083 82.8947 172.794C83.0627 172.505 83.2867 172.271 83.5667 172.094C83.8467 171.917 84.1734 171.786 84.5467 171.702C84.92 171.618 85.312 171.576 85.7227 171.576C85.8534 171.576 85.9887 171.585 86.1287 171.604C86.2687 171.613 86.3994 171.632 86.5207 171.66C86.6514 171.679 86.7634 171.697 86.8567 171.716C86.95 171.735 87.0154 171.749 87.0527 171.758V171.394C87.0527 171.179 87.0294 170.969 86.9827 170.764C86.936 170.549 86.852 170.363 86.7307 170.204C86.6094 170.036 86.4414 169.905 86.2267 169.812C86.0214 169.709 85.7507 169.658 85.4147 169.658C84.9854 169.658 84.6074 169.691 84.2807 169.756C83.9634 169.812 83.7254 169.873 83.5667 169.938L83.4127 168.86C83.5807 168.785 83.8607 168.715 84.2527 168.65C84.6447 168.575 85.0694 168.538 85.5267 168.538ZM95.1931 170.26C95.0345 170.129 94.8058 170.003 94.5071 169.882C94.2085 169.761 93.8818 169.7 93.5271 169.7C93.1538 169.7 92.8318 169.77 92.5611 169.91C92.2998 170.041 92.0851 170.227 91.9171 170.47C91.7491 170.703 91.6278 170.983 91.5531 171.31C91.4785 171.637 91.4411 171.987 91.4411 172.36C91.4411 173.209 91.6511 173.867 92.0711 174.334C92.4911 174.791 93.0511 175.02 93.7511 175.02C94.1058 175.02 94.3998 175.006 94.6331 174.978C94.8758 174.941 95.0625 174.903 95.1931 174.866V170.26ZM95.1931 165.36L96.4951 165.136V175.79C96.1965 175.874 95.8138 175.958 95.3471 176.042C94.8805 176.126 94.3438 176.168 93.7371 176.168C93.1771 176.168 92.6731 176.079 92.2251 175.902C91.7771 175.725 91.3945 175.473 91.0771 175.146C90.7598 174.819 90.5125 174.423 90.3351 173.956C90.1671 173.48 90.0831 172.948 90.0831 172.36C90.0831 171.8 90.1531 171.287 90.2931 170.82C90.4425 170.353 90.6571 169.952 90.9371 169.616C91.2171 169.28 91.5578 169.019 91.9591 168.832C92.3698 168.645 92.8365 168.552 93.3591 168.552C93.7791 168.552 94.1478 168.608 94.4651 168.72C94.7918 168.832 95.0345 168.939 95.1931 169.042V165.36ZM101.197 175.062C101.505 175.062 101.776 175.057 102.009 175.048C102.252 175.029 102.453 175.001 102.611 174.964V172.794C102.518 172.747 102.364 172.71 102.149 172.682C101.944 172.645 101.692 172.626 101.393 172.626C101.197 172.626 100.987 172.64 100.763 172.668C100.549 172.696 100.348 172.757 100.161 172.85C99.9839 172.934 99.8346 173.055 99.7133 173.214C99.5919 173.363 99.5313 173.564 99.5313 173.816C99.5313 174.283 99.6806 174.609 99.9793 174.796C100.278 174.973 100.684 175.062 101.197 175.062ZM101.085 168.538C101.608 168.538 102.047 168.608 102.401 168.748C102.765 168.879 103.055 169.07 103.269 169.322C103.493 169.565 103.652 169.859 103.745 170.204C103.839 170.54 103.885 170.913 103.885 171.324V175.874C103.773 175.893 103.615 175.921 103.409 175.958C103.213 175.986 102.989 176.014 102.737 176.042C102.485 176.07 102.21 176.093 101.911 176.112C101.622 176.14 101.333 176.154 101.043 176.154C100.633 176.154 100.255 176.112 99.9093 176.028C99.5639 175.944 99.2653 175.813 99.0133 175.636C98.7613 175.449 98.5653 175.207 98.4253 174.908C98.2853 174.609 98.2153 174.25 98.2153 173.83C98.2153 173.429 98.2946 173.083 98.4533 172.794C98.6213 172.505 98.8453 172.271 99.1253 172.094C99.4053 171.917 99.7319 171.786 100.105 171.702C100.479 171.618 100.871 171.576 101.281 171.576C101.412 171.576 101.547 171.585 101.687 171.604C101.827 171.613 101.958 171.632 102.079 171.66C102.21 171.679 102.322 171.697 102.415 171.716C102.509 171.735 102.574 171.749 102.611 171.758V171.394C102.611 171.179 102.588 170.969 102.541 170.764C102.495 170.549 102.411 170.363 102.289 170.204C102.168 170.036 102 169.905 101.785 169.812C101.58 169.709 101.309 169.658 100.973 169.658C100.544 169.658 100.166 169.691 99.8393 169.756C99.5219 169.812 99.2839 169.873 99.1253 169.938L98.9713 168.86C99.1393 168.785 99.4193 168.715 99.8113 168.65C100.203 168.575 100.628 168.538 101.085 168.538ZM107.742 175.062C108.274 175.062 108.666 174.992 108.918 174.852C109.179 174.712 109.31 174.488 109.31 174.18C109.31 173.863 109.184 173.611 108.932 173.424C108.68 173.237 108.264 173.027 107.686 172.794C107.406 172.682 107.135 172.57 106.874 172.458C106.622 172.337 106.402 172.197 106.216 172.038C106.029 171.879 105.88 171.688 105.768 171.464C105.656 171.24 105.6 170.965 105.6 170.638C105.6 169.994 105.838 169.485 106.314 169.112C106.79 168.729 107.438 168.538 108.26 168.538C108.465 168.538 108.67 168.552 108.876 168.58C109.081 168.599 109.272 168.627 109.45 168.664C109.627 168.692 109.781 168.725 109.912 168.762C110.052 168.799 110.159 168.832 110.234 168.86L109.996 169.98C109.856 169.905 109.636 169.831 109.338 169.756C109.039 169.672 108.68 169.63 108.26 169.63C107.896 169.63 107.578 169.705 107.308 169.854C107.037 169.994 106.902 170.218 106.902 170.526C106.902 170.685 106.93 170.825 106.986 170.946C107.051 171.067 107.144 171.179 107.266 171.282C107.396 171.375 107.555 171.464 107.742 171.548C107.928 171.632 108.152 171.721 108.414 171.814C108.759 171.945 109.067 172.075 109.338 172.206C109.608 172.327 109.837 172.472 110.024 172.64C110.22 172.808 110.369 173.013 110.472 173.256C110.574 173.489 110.626 173.779 110.626 174.124C110.626 174.796 110.374 175.305 109.87 175.65C109.375 175.995 108.666 176.168 107.742 176.168C107.098 176.168 106.594 176.112 106.23 176C105.866 175.897 105.618 175.818 105.488 175.762L105.726 174.642C105.875 174.698 106.113 174.782 106.44 174.894C106.766 175.006 107.2 175.062 107.742 175.062Z" fill="white" fill-opacity="0.4"/>
<rect x="16" y="231" width="180" height="32" rx="5" fill="white" fill-opacity="0.05"/>
<path d="M76.376 252.21C75.6947 252.21 75.074 252.098 74.514 251.874C73.954 251.65 73.4733 251.323 73.072 250.894C72.6707 250.465 72.358 249.937 72.134 249.312C71.9193 248.677 71.812 247.954 71.812 247.142C71.812 246.33 71.9333 245.611 72.176 244.986C72.428 244.351 72.764 243.819 73.184 243.39C73.604 242.961 74.094 242.634 74.654 242.41C75.214 242.186 75.8113 242.074 76.446 242.074C76.8473 242.074 77.2067 242.102 77.524 242.158C77.8507 242.214 78.1307 242.279 78.364 242.354C78.6067 242.429 78.8027 242.503 78.952 242.578C79.1013 242.653 79.204 242.709 79.26 242.746L78.868 243.866C78.784 243.81 78.6627 243.749 78.504 243.684C78.3453 243.619 78.1633 243.553 77.958 243.488C77.762 243.423 77.5427 243.371 77.3 243.334C77.0667 243.287 76.8287 243.264 76.586 243.264C76.0727 243.264 75.6107 243.353 75.2 243.53C74.7893 243.707 74.4393 243.964 74.15 244.3C73.8607 244.636 73.6367 245.047 73.478 245.532C73.3287 246.008 73.254 246.545 73.254 247.142C73.254 247.721 73.3193 248.248 73.45 248.724C73.59 249.2 73.7953 249.611 74.066 249.956C74.3367 250.292 74.6727 250.553 75.074 250.74C75.4847 250.927 75.9607 251.02 76.502 251.02C77.1273 251.02 77.6453 250.955 78.056 250.824C78.4667 250.693 78.7747 250.577 78.98 250.474L79.33 251.594C79.2647 251.641 79.148 251.701 78.98 251.776C78.812 251.841 78.602 251.907 78.35 251.972C78.098 252.037 77.804 252.093 77.468 252.14C77.132 252.187 76.768 252.21 76.376 252.21ZM87.0226 248.36C87.0226 248.939 86.9386 249.461 86.7706 249.928C86.6026 250.395 86.3646 250.796 86.0566 251.132C85.7579 251.468 85.3986 251.729 84.9786 251.916C84.5586 252.093 84.1012 252.182 83.6066 252.182C83.1119 252.182 82.6546 252.093 82.2346 251.916C81.8146 251.729 81.4506 251.468 81.1426 251.132C80.8439 250.796 80.6106 250.395 80.4426 249.928C80.2746 249.461 80.1906 248.939 80.1906 248.36C80.1906 247.791 80.2746 247.273 80.4426 246.806C80.6106 246.33 80.8439 245.924 81.1426 245.588C81.4506 245.252 81.8146 244.995 82.2346 244.818C82.6546 244.631 83.1119 244.538 83.6066 244.538C84.1012 244.538 84.5586 244.631 84.9786 244.818C85.3986 244.995 85.7579 245.252 86.0566 245.588C86.3646 245.924 86.6026 246.33 86.7706 246.806C86.9386 247.273 87.0226 247.791 87.0226 248.36ZM85.6646 248.36C85.6646 247.539 85.4779 246.89 85.1046 246.414C84.7406 245.929 84.2412 245.686 83.6066 245.686C82.9719 245.686 82.4679 245.929 82.0946 246.414C81.7306 246.89 81.5486 247.539 81.5486 248.36C81.5486 249.181 81.7306 249.835 82.0946 250.32C82.4679 250.796 82.9719 251.034 83.6066 251.034C84.2412 251.034 84.7406 250.796 85.1046 250.32C85.4779 249.835 85.6646 249.181 85.6646 248.36ZM88.8544 244.93C89.153 244.855 89.5497 244.776 90.0444 244.692C90.539 244.608 91.1084 244.566 91.7524 244.566C92.331 244.566 92.8117 244.65 93.1944 244.818C93.577 244.977 93.8804 245.205 94.1044 245.504C94.3377 245.793 94.501 246.143 94.5944 246.554C94.6877 246.965 94.7344 247.417 94.7344 247.912V252H93.4324V248.192C93.4324 247.744 93.3997 247.361 93.3344 247.044C93.2784 246.727 93.1804 246.47 93.0404 246.274C92.9004 246.078 92.7137 245.938 92.4804 245.854C92.247 245.761 91.9577 245.714 91.6124 245.714C91.4724 245.714 91.3277 245.719 91.1784 245.728C91.029 245.737 90.8844 245.751 90.7444 245.77C90.6137 245.779 90.4924 245.793 90.3804 245.812C90.2777 245.831 90.203 245.845 90.1564 245.854V252H88.8544V244.93ZM99.7354 241.136C100.062 241.136 100.342 241.159 100.575 241.206C100.809 241.243 100.977 241.281 101.079 241.318L100.897 242.438C100.795 242.401 100.655 242.363 100.477 242.326C100.3 242.279 100.085 242.256 99.8334 242.256C99.2268 242.256 98.8021 242.424 98.5594 242.76C98.3168 243.087 98.1954 243.53 98.1954 244.09V244.72H100.995V245.812H98.1954V252H96.8934V244.062C96.8934 243.129 97.1221 242.41 97.5794 241.906C98.0368 241.393 98.7554 241.136 99.7354 241.136ZM103.655 252H102.353V244.72H103.655V252ZM102.997 243.404C102.764 243.404 102.563 243.329 102.395 243.18C102.237 243.021 102.157 242.811 102.157 242.55C102.157 242.289 102.237 242.083 102.395 241.934C102.563 241.775 102.764 241.696 102.997 241.696C103.231 241.696 103.427 241.775 103.585 241.934C103.753 242.083 103.837 242.289 103.837 242.55C103.837 242.811 103.753 243.021 103.585 243.18C103.427 243.329 103.231 243.404 102.997 243.404ZM108.578 244.566C108.69 244.566 108.816 244.575 108.956 244.594C109.105 244.603 109.25 244.622 109.39 244.65C109.53 244.669 109.656 244.692 109.768 244.72C109.889 244.739 109.978 244.757 110.034 244.776L109.81 245.91C109.707 245.873 109.534 245.831 109.292 245.784C109.058 245.728 108.755 245.7 108.382 245.7C108.139 245.7 107.896 245.728 107.654 245.784C107.42 245.831 107.266 245.863 107.192 245.882V252H105.89V245.028C106.198 244.916 106.58 244.813 107.038 244.72C107.495 244.617 108.008 244.566 108.578 244.566ZM111.29 244.93C111.589 244.855 111.981 244.776 112.466 244.692C112.961 244.608 113.53 244.566 114.174 244.566C114.641 244.566 115.033 244.631 115.35 244.762C115.667 244.883 115.933 245.065 116.148 245.308C116.213 245.261 116.316 245.196 116.456 245.112C116.596 245.028 116.769 244.949 116.974 244.874C117.179 244.79 117.408 244.72 117.66 244.664C117.912 244.599 118.183 244.566 118.472 244.566C119.032 244.566 119.489 244.65 119.844 244.818C120.199 244.977 120.474 245.205 120.67 245.504C120.875 245.803 121.011 246.157 121.076 246.568C121.151 246.979 121.188 247.427 121.188 247.912V252H119.886V248.192C119.886 247.763 119.863 247.394 119.816 247.086C119.779 246.778 119.699 246.521 119.578 246.316C119.466 246.111 119.307 245.961 119.102 245.868C118.906 245.765 118.649 245.714 118.332 245.714C117.893 245.714 117.529 245.775 117.24 245.896C116.96 246.008 116.769 246.111 116.666 246.204C116.741 246.447 116.797 246.713 116.834 247.002C116.871 247.291 116.89 247.595 116.89 247.912V252H115.588V248.192C115.588 247.763 115.565 247.394 115.518 247.086C115.471 246.778 115.387 246.521 115.266 246.316C115.154 246.111 114.995 245.961 114.79 245.868C114.594 245.765 114.342 245.714 114.034 245.714C113.903 245.714 113.763 245.719 113.614 245.728C113.465 245.737 113.32 245.751 113.18 245.77C113.049 245.779 112.928 245.793 112.816 245.812C112.704 245.831 112.629 245.845 112.592 245.854V252H111.29V244.93ZM125.813 251.062C126.121 251.062 126.391 251.057 126.625 251.048C126.867 251.029 127.068 251.001 127.227 250.964V248.794C127.133 248.747 126.979 248.71 126.765 248.682C126.559 248.645 126.307 248.626 126.009 248.626C125.813 248.626 125.603 248.64 125.379 248.668C125.164 248.696 124.963 248.757 124.777 248.85C124.599 248.934 124.45 249.055 124.329 249.214C124.207 249.363 124.147 249.564 124.147 249.816C124.147 250.283 124.296 250.609 124.595 250.796C124.893 250.973 125.299 251.062 125.813 251.062ZM125.701 244.538C126.223 244.538 126.662 244.608 127.017 244.748C127.381 244.879 127.67 245.07 127.885 245.322C128.109 245.565 128.267 245.859 128.361 246.204C128.454 246.54 128.501 246.913 128.501 247.324V251.874C128.389 251.893 128.23 251.921 128.025 251.958C127.829 251.986 127.605 252.014 127.353 252.042C127.101 252.07 126.825 252.093 126.527 252.112C126.237 252.14 125.948 252.154 125.659 252.154C125.248 252.154 124.87 252.112 124.525 252.028C124.179 251.944 123.881 251.813 123.629 251.636C123.377 251.449 123.181 251.207 123.041 250.908C122.901 250.609 122.831 250.25 122.831 249.83C122.831 249.429 122.91 249.083 123.069 248.794C123.237 248.505 123.461 248.271 123.741 248.094C124.021 247.917 124.347 247.786 124.721 247.702C125.094 247.618 125.486 247.576 125.897 247.576C126.027 247.576 126.163 247.585 126.303 247.604C126.443 247.613 126.573 247.632 126.695 247.66C126.825 247.679 126.937 247.697 127.031 247.716C127.124 247.735 127.189 247.749 127.227 247.758V247.394C127.227 247.179 127.203 246.969 127.157 246.764C127.11 246.549 127.026 246.363 126.905 246.204C126.783 246.036 126.615 245.905 126.401 245.812C126.195 245.709 125.925 245.658 125.589 245.658C125.159 245.658 124.781 245.691 124.455 245.756C124.137 245.812 123.899 245.873 123.741 245.938L123.587 244.86C123.755 244.785 124.035 244.715 124.427 244.65C124.819 244.575 125.243 244.538 125.701 244.538ZM133.351 244.566C133.463 244.566 133.589 244.575 133.729 244.594C133.878 244.603 134.023 244.622 134.163 244.65C134.303 244.669 134.429 244.692 134.541 244.72C134.662 244.739 134.751 244.757 134.807 244.776L134.583 245.91C134.48 245.873 134.308 245.831 134.065 245.784C133.832 245.728 133.528 245.7 133.155 245.7C132.912 245.7 132.67 245.728 132.427 245.784C132.194 245.831 132.04 245.863 131.965 245.882V252H130.663V245.028C130.971 244.916 131.354 244.813 131.811 244.72C132.268 244.617 132.782 244.566 133.351 244.566Z" fill="white" fill-opacity="0.4"/>
</svg>
