<svg width="473" height="360" viewBox="0 0 473 360" fill="none" xmlns="http://www.w3.org/2000/svg">
<g filter="url(#filter0_b_1140_1169)">
<path d="M473 340C473 351.046 464.046 360 453 360H313.044C301.998 360 293.044 351.046 293.044 340V332C293.044 320.954 284.089 312 273.044 312L20 312C8.95429 312 0 303.046 0 292L0 20C0 8.95431 8.95431 0 20 0L273.044 0C284.089 0 293.044 8.95431 293.044 20V50C293.044 61.0457 301.998 70 313.044 70H453C464.046 70 473 78.9543 473 90V340Z" fill="#0F0E10"/>
<path d="M0.5 292L0.5 20C0.5 9.23047 9.23044 0.5 20 0.5L273.044 0.5C283.813 0.5 292.544 9.23044 292.544 20V50C292.544 61.3218 301.722 70.5 313.044 70.5H453C463.77 70.5 472.5 79.2304 472.5 90L472.5 340C472.5 350.77 463.77 359.5 453 359.5H313.044C302.274 359.5 293.544 350.77 293.544 340V332C293.544 320.678 284.365 311.5 273.044 311.5L20 311.5C9.23044 311.5 0.5 302.77 0.5 292Z" stroke="white" stroke-opacity="0.6"/>
</g>
<circle cx="24" cy="24" r="8" fill="#0F0E10"/>
<circle cx="24" cy="24" r="7.5" stroke="white" stroke-opacity="0.2"/>
<circle cx="56" cy="24" r="8" fill="#0F0E10"/>
<circle cx="56" cy="24" r="7.5" stroke="white" stroke-opacity="0.2"/>
<circle cx="88" cy="24" r="8" fill="#0F0E10"/>
<circle cx="88" cy="24" r="7.5" stroke="white" stroke-opacity="0.2"/>
<path d="M121.32 18.8C122.877 18.8 124.072 19.0987 124.904 19.696C125.747 20.2827 126.168 21.1627 126.168 22.336C126.168 22.976 126.051 23.5253 125.816 23.984C125.592 24.432 125.261 24.8 124.824 25.088C124.397 25.3653 123.875 25.568 123.256 25.696C122.637 25.824 121.939 25.888 121.16 25.888H119.928V30H118.376V19.072C118.813 18.9653 119.299 18.896 119.832 18.864C120.376 18.8213 120.872 18.8 121.32 18.8ZM121.448 20.16C120.787 20.16 120.28 20.176 119.928 20.208V24.56H121.096C121.629 24.56 122.109 24.528 122.536 24.464C122.963 24.3893 123.32 24.272 123.608 24.112C123.907 23.9413 124.136 23.712 124.296 23.424C124.456 23.136 124.536 22.768 124.536 22.32C124.536 21.8933 124.451 21.5413 124.28 21.264C124.12 20.9867 123.896 20.768 123.608 20.608C123.331 20.4373 123.005 20.32 122.632 20.256C122.259 20.192 121.864 20.16 121.448 20.16ZM135.015 25.84C135.015 26.5013 134.919 27.0987 134.727 27.632C134.535 28.1653 134.263 28.624 133.911 29.008C133.569 29.392 133.159 29.6907 132.679 29.904C132.199 30.1067 131.676 30.208 131.111 30.208C130.545 30.208 130.023 30.1067 129.543 29.904C129.063 29.6907 128.647 29.392 128.295 29.008C127.953 28.624 127.687 28.1653 127.495 27.632C127.303 27.0987 127.207 26.5013 127.207 25.84C127.207 25.1893 127.303 24.5973 127.495 24.064C127.687 23.52 127.953 23.056 128.295 22.672C128.647 22.288 129.063 21.9947 129.543 21.792C130.023 21.5787 130.545 21.472 131.111 21.472C131.676 21.472 132.199 21.5787 132.679 21.792C133.159 21.9947 133.569 22.288 133.911 22.672C134.263 23.056 134.535 23.52 134.727 24.064C134.919 24.5973 135.015 25.1893 135.015 25.84ZM133.463 25.84C133.463 24.9013 133.249 24.16 132.823 23.616C132.407 23.0613 131.836 22.784 131.111 22.784C130.385 22.784 129.809 23.0613 129.383 23.616C128.967 24.16 128.759 24.9013 128.759 25.84C128.759 26.7787 128.967 27.5253 129.383 28.08C129.809 28.624 130.385 28.896 131.111 28.896C131.836 28.896 132.407 28.624 132.823 28.08C133.249 27.5253 133.463 26.7787 133.463 25.84ZM138.5 21.68H141.652V22.928H138.5V26.768C138.5 27.184 138.532 27.5307 138.596 27.808C138.66 28.0747 138.756 28.288 138.884 28.448C139.012 28.5973 139.172 28.704 139.364 28.768C139.556 28.832 139.78 28.864 140.036 28.864C140.484 28.864 140.841 28.816 141.108 28.72C141.385 28.6133 141.577 28.5387 141.684 28.496L141.972 29.728C141.823 29.8027 141.561 29.8933 141.188 30C140.815 30.1173 140.388 30.176 139.908 30.176C139.343 30.176 138.873 30.1067 138.5 29.968C138.137 29.8187 137.844 29.6 137.62 29.312C137.396 29.024 137.236 28.672 137.14 28.256C137.055 27.8293 137.012 27.3387 137.012 26.784V19.36L138.5 19.104V21.68ZM150.671 25.84C150.671 26.5013 150.575 27.0987 150.383 27.632C150.191 28.1653 149.919 28.624 149.567 29.008C149.226 29.392 148.815 29.6907 148.335 29.904C147.855 30.1067 147.332 30.208 146.767 30.208C146.202 30.208 145.679 30.1067 145.199 29.904C144.719 29.6907 144.303 29.392 143.951 29.008C143.61 28.624 143.343 28.1653 143.151 27.632C142.959 27.0987 142.863 26.5013 142.863 25.84C142.863 25.1893 142.959 24.5973 143.151 24.064C143.343 23.52 143.61 23.056 143.951 22.672C144.303 22.288 144.719 21.9947 145.199 21.792C145.679 21.5787 146.202 21.472 146.767 21.472C147.332 21.472 147.855 21.5787 148.335 21.792C148.815 21.9947 149.226 22.288 149.567 22.672C149.919 23.056 150.191 23.52 150.383 24.064C150.575 24.5973 150.671 25.1893 150.671 25.84ZM149.119 25.84C149.119 24.9013 148.906 24.16 148.479 23.616C148.063 23.0613 147.492 22.784 146.767 22.784C146.042 22.784 145.466 23.0613 145.039 23.616C144.623 24.16 144.415 24.9013 144.415 25.84C144.415 26.7787 144.623 27.5253 145.039 28.08C145.466 28.624 146.042 28.896 146.767 28.896C147.492 28.896 148.063 28.624 148.479 28.08C148.906 27.5253 149.119 26.7787 149.119 25.84ZM148.703 18.528L146.447 20.72L145.695 20.048L147.743 17.584L148.703 18.528ZM154.156 21.68H157.308V22.928H154.156V26.768C154.156 27.184 154.188 27.5307 154.252 27.808C154.316 28.0747 154.412 28.288 154.54 28.448C154.668 28.5973 154.828 28.704 155.02 28.768C155.212 28.832 155.436 28.864 155.692 28.864C156.14 28.864 156.498 28.816 156.764 28.72C157.042 28.6133 157.234 28.5387 157.34 28.496L157.628 29.728C157.479 29.8027 157.218 29.8933 156.844 30C156.471 30.1173 156.044 30.176 155.564 30.176C154.999 30.176 154.53 30.1067 154.156 29.968C153.794 29.8187 153.5 29.6 153.276 29.312C153.052 29.024 152.892 28.672 152.796 28.256C152.711 27.8293 152.668 27.3387 152.668 26.784V19.36L154.156 19.104V21.68ZM160.69 30H159.202V21.68H160.69V30ZM159.938 20.176C159.671 20.176 159.442 20.0907 159.25 19.92C159.069 19.7387 158.978 19.4987 158.978 19.2C158.978 18.9013 159.069 18.6667 159.25 18.496C159.442 18.3147 159.671 18.224 159.938 18.224C160.205 18.224 160.429 18.3147 160.61 18.496C160.802 18.6667 160.898 18.9013 160.898 19.2C160.898 19.4987 160.802 19.7387 160.61 19.92C160.429 20.0907 160.205 20.176 159.938 20.176ZM169.025 25.856C169.025 24.8853 168.785 24.1387 168.305 23.616C167.825 23.0933 167.185 22.832 166.385 22.832C165.937 22.832 165.585 22.848 165.329 22.88C165.083 22.912 164.886 22.9493 164.737 22.992V28.24C164.918 28.3893 165.179 28.5333 165.521 28.672C165.862 28.8107 166.235 28.88 166.641 28.88C167.067 28.88 167.43 28.8053 167.729 28.656C168.038 28.496 168.289 28.2827 168.481 28.016C168.673 27.7387 168.811 27.4187 168.897 27.056C168.982 26.6827 169.025 26.2827 169.025 25.856ZM170.577 25.856C170.577 26.4853 170.491 27.0667 170.321 27.6C170.161 28.1333 169.921 28.592 169.601 28.976C169.281 29.36 168.886 29.6587 168.417 29.872C167.958 30.0853 167.43 30.192 166.833 30.192C166.353 30.192 165.926 30.128 165.553 30C165.19 29.872 164.918 29.7493 164.737 29.632V32.96H163.249V21.936C163.601 21.8507 164.038 21.76 164.561 21.664C165.094 21.5573 165.707 21.504 166.401 21.504C167.041 21.504 167.617 21.6053 168.129 21.808C168.641 22.0107 169.078 22.2987 169.441 22.672C169.803 23.0453 170.081 23.504 170.273 24.048C170.475 24.5813 170.577 25.184 170.577 25.856ZM180.015 25.84C180.015 26.5013 179.919 27.0987 179.727 27.632C179.535 28.1653 179.263 28.624 178.911 29.008C178.569 29.392 178.159 29.6907 177.679 29.904C177.199 30.1067 176.676 30.208 176.111 30.208C175.545 30.208 175.023 30.1067 174.543 29.904C174.063 29.6907 173.647 29.392 173.295 29.008C172.953 28.624 172.687 28.1653 172.495 27.632C172.303 27.0987 172.207 26.5013 172.207 25.84C172.207 25.1893 172.303 24.5973 172.495 24.064C172.687 23.52 172.953 23.056 173.295 22.672C173.647 22.288 174.063 21.9947 174.543 21.792C175.023 21.5787 175.545 21.472 176.111 21.472C176.676 21.472 177.199 21.5787 177.679 21.792C178.159 21.9947 178.569 22.288 178.911 22.672C179.263 23.056 179.535 23.52 179.727 24.064C179.919 24.5973 180.015 25.1893 180.015 25.84ZM178.463 25.84C178.463 24.9013 178.249 24.16 177.823 23.616C177.407 23.0613 176.836 22.784 176.111 22.784C175.385 22.784 174.809 23.0613 174.383 23.616C173.967 24.16 173.759 24.9013 173.759 25.84C173.759 26.7787 173.967 27.5253 174.383 28.08C174.809 28.624 175.385 28.896 176.111 28.896C176.836 28.896 177.407 28.624 177.823 28.08C178.249 27.5253 178.463 26.7787 178.463 25.84Z" fill="white" fill-opacity="0.8"/>
<path d="M23.375 65.7812L24.625 64.2192L20.601 61.0002L24.625 57.7812L23.375 56.2192L18.375 60.2192C18.2578 60.3129 18.1632 60.4317 18.0983 60.5669C18.0333 60.7021 17.9995 60.8502 17.9995 61.0002C17.9995 61.1502 18.0333 61.2983 18.0983 61.4335C18.1632 61.5687 18.2578 61.6875 18.375 61.7812L23.375 65.7812ZM32.625 56.2192L31.375 57.7812L35.399 61.0002L31.375 64.2192L32.625 65.7812L37.625 61.7812C37.7421 61.6875 37.8367 61.5687 37.9017 61.4335C37.9667 61.2983 38.0005 61.1502 38.0005 61.0002C38.0005 60.8502 37.9667 60.7021 37.9017 60.5669C37.8367 60.4317 37.7421 60.3129 37.625 60.2192L32.625 56.2192ZM30.976 52.2162L26.976 70.2162L25.023 69.7822L29.023 51.7822L30.976 52.2162Z" fill="white" fill-opacity="0.6"/>
<path d="M24.488 94.2C25.096 93.9653 25.688 93.6667 26.264 93.304C26.84 92.9307 27.368 92.4667 27.848 91.912H28.904V103H27.416V93.976C27.288 94.0933 27.128 94.216 26.936 94.344C26.7547 94.472 26.552 94.5947 26.328 94.712C26.1147 94.8293 25.8853 94.9413 25.64 95.048C25.4053 95.1547 25.176 95.2453 24.952 95.32L24.488 94.2Z" fill="white" fill-opacity="0.6"/>
<rect x="48.8391" y="89" width="17.7103" height="16" rx="8" fill="#1B1A1C"/>
<rect x="82.5493" y="89" width="27.5494" height="16" rx="8" fill="#1B1A1C"/>
<rect x="126.099" y="89" width="325.674" height="16" rx="8" fill="#1B1A1C"/>
<path d="M30.472 125.744C30.472 126.128 30.392 126.501 30.232 126.864C30.0827 127.216 29.88 127.568 29.624 127.92C29.368 128.261 29.08 128.603 28.76 128.944C28.44 129.275 28.12 129.6 27.8 129.92C27.6187 130.101 27.4053 130.315 27.16 130.56C26.9253 130.805 26.7013 131.061 26.488 131.328C26.2747 131.595 26.0933 131.851 25.944 132.096C25.8053 132.341 25.736 132.555 25.736 132.736H30.84V134H24.12C24.1093 133.936 24.104 133.872 24.104 133.808C24.104 133.744 24.104 133.685 24.104 133.632C24.104 133.131 24.184 132.667 24.344 132.24C24.5147 131.803 24.7333 131.392 25 131.008C25.2667 130.624 25.5653 130.261 25.896 129.92C26.2267 129.579 26.552 129.248 26.872 128.928C27.1387 128.672 27.3893 128.421 27.624 128.176C27.8693 127.92 28.0827 127.669 28.264 127.424C28.456 127.168 28.6053 126.907 28.712 126.64C28.8293 126.373 28.888 126.091 28.888 125.792C28.888 125.472 28.8347 125.2 28.728 124.976C28.632 124.752 28.4987 124.565 28.328 124.416C28.1573 124.267 27.9547 124.16 27.72 124.096C27.496 124.021 27.256 123.984 27 123.984C26.6907 123.984 26.408 124.027 26.152 124.112C25.896 124.197 25.6667 124.299 25.464 124.416C25.2613 124.523 25.0907 124.64 24.952 124.768C24.8133 124.885 24.7067 124.976 24.632 125.04L23.896 123.984C23.992 123.877 24.136 123.749 24.328 123.6C24.52 123.44 24.7493 123.291 25.016 123.152C25.2827 123.013 25.5813 122.896 25.912 122.8C26.2427 122.704 26.6 122.656 26.984 122.656C28.1467 122.656 29.016 122.928 29.592 123.472C30.1787 124.005 30.472 124.763 30.472 125.744Z" fill="white" fill-opacity="0.6"/>
<rect x="48.8391" y="120" width="325.674" height="16" rx="8" fill="#0F0E10"/>
<rect x="49.3391" y="120.5" width="324.674" height="15" rx="7.5" stroke="white" stroke-opacity="0.2"/>
<path d="M26.616 163.912C27.5653 163.912 28.2427 163.725 28.648 163.352C29.064 162.979 29.272 162.477 29.272 161.848C29.272 161.443 29.1867 161.101 29.016 160.824C28.8453 160.547 28.6213 160.328 28.344 160.168C28.0667 159.997 27.7413 159.88 27.368 159.816C27.0053 159.741 26.632 159.704 26.248 159.704H25.864V158.488H26.392C26.6587 158.488 26.9307 158.461 27.208 158.408C27.496 158.355 27.7573 158.259 27.992 158.12C28.2267 157.981 28.4187 157.795 28.568 157.56C28.7173 157.315 28.792 157.011 28.792 156.648C28.792 156.349 28.7387 156.093 28.632 155.88C28.5253 155.667 28.3813 155.491 28.2 155.352C28.0293 155.213 27.8267 155.117 27.592 155.064C27.368 155 27.128 154.968 26.872 154.968C26.36 154.968 25.9227 155.043 25.56 155.192C25.208 155.341 24.9093 155.496 24.664 155.656L24.088 154.52C24.216 154.435 24.376 154.344 24.568 154.248C24.7707 154.141 24.9947 154.045 25.24 153.96C25.4853 153.875 25.7467 153.805 26.024 153.752C26.312 153.688 26.6107 153.656 26.92 153.656C27.5067 153.656 28.0133 153.731 28.44 153.88C28.8667 154.019 29.2187 154.221 29.496 154.488C29.7733 154.744 29.9813 155.053 30.12 155.416C30.2587 155.768 30.328 156.152 30.328 156.568C30.328 157.144 30.1627 157.64 29.832 158.056C29.5013 158.461 29.1013 158.771 28.632 158.984C28.92 159.069 29.1973 159.192 29.464 159.352C29.7307 159.512 29.96 159.715 30.152 159.96C30.3547 160.205 30.5147 160.488 30.632 160.808C30.76 161.128 30.824 161.485 30.824 161.88C30.824 162.36 30.7387 162.808 30.568 163.224C30.408 163.629 30.152 163.981 29.8 164.28C29.4587 164.579 29.0267 164.813 28.504 164.984C27.9813 165.155 27.3627 165.24 26.648 165.24C26.3707 165.24 26.0827 165.219 25.784 165.176C25.496 165.133 25.224 165.08 24.968 165.016C24.712 164.952 24.488 164.888 24.296 164.824C24.104 164.76 23.9653 164.707 23.88 164.664L24.168 163.368C24.3493 163.453 24.648 163.565 25.064 163.704C25.4907 163.843 26.008 163.912 26.616 163.912Z" fill="white" fill-opacity="0.6"/>
<rect x="48.8391" y="151" width="132" height="16" rx="8" fill="#1B1A1C"/>
<rect x="196.839" y="151" width="105" height="16" rx="8" fill="#0F0E10"/>
<rect x="197.339" y="151.5" width="104" height="15" rx="7.5" stroke="white" stroke-opacity="0.2"/>
<rect x="317.839" y="151" width="109" height="16" rx="8" fill="#1B1A1C"/>
<path d="M23.64 192.16C23.8427 191.691 24.12 191.147 24.472 190.528C24.824 189.899 25.2187 189.253 25.656 188.592C26.104 187.931 26.5787 187.28 27.08 186.64C27.592 186 28.104 185.424 28.616 184.912H30.04V191.952H31.352V193.168H30.04V196H28.6V193.168H23.64V192.16ZM28.6 186.672C28.28 187.013 27.9547 187.397 27.624 187.824C27.304 188.24 26.9893 188.677 26.68 189.136C26.3707 189.595 26.0773 190.064 25.8 190.544C25.5333 191.024 25.2933 191.493 25.08 191.952H28.6V186.672Z" fill="white" fill-opacity="0.6"/>
<rect x="48.8391" y="182" width="107" height="16" rx="8" fill="#0F0E10"/>
<rect x="49.3391" y="182.5" width="106" height="15" rx="7.5" stroke="white" stroke-opacity="0.2"/>
<rect x="171.839" y="182" width="62" height="16" rx="8" fill="#1B1A1C"/>
<rect x="249.839" y="182" width="16" height="16" rx="8" fill="#1B1A1C"/>
<rect x="281.839" y="182" width="39" height="16" rx="8" fill="#0F0E10"/>
<rect x="282.339" y="182.5" width="38" height="15" rx="7.5" stroke="white" stroke-opacity="0.2"/>
<rect x="336.839" y="182" width="114" height="16" rx="8" fill="#1B1A1C"/>
<path d="M26.184 220.184C27.7947 220.248 28.9733 220.6 29.72 221.24C30.4773 221.88 30.856 222.749 30.856 223.848C30.856 224.339 30.7707 224.792 30.6 225.208C30.44 225.624 30.1893 225.981 29.848 226.28C29.5173 226.579 29.096 226.813 28.584 226.984C28.072 227.155 27.464 227.24 26.76 227.24C26.4827 227.24 26.2 227.219 25.912 227.176C25.624 227.133 25.3573 227.08 25.112 227.016C24.8667 226.952 24.648 226.888 24.456 226.824C24.264 226.76 24.1253 226.707 24.04 226.664L24.328 225.368C24.5093 225.453 24.8027 225.565 25.208 225.704C25.624 225.843 26.1307 225.912 26.728 225.912C27.208 225.912 27.608 225.859 27.928 225.752C28.2587 225.645 28.5253 225.501 28.728 225.32C28.9307 225.139 29.0747 224.931 29.16 224.696C29.256 224.451 29.304 224.195 29.304 223.928C29.304 223.523 29.2347 223.165 29.096 222.856C28.9573 222.536 28.712 222.269 28.36 222.056C28.008 221.843 27.5387 221.683 26.952 221.576C26.3653 221.459 25.624 221.4 24.728 221.4C24.792 220.877 24.84 220.387 24.872 219.928C24.9147 219.469 24.952 219.021 24.984 218.584C25.016 218.147 25.0427 217.715 25.064 217.288C25.0853 216.851 25.1067 216.392 25.128 215.912H30.472V217.176H26.424C26.4133 217.336 26.3973 217.555 26.376 217.832C26.3547 218.099 26.3333 218.381 26.312 218.68C26.2907 218.968 26.2693 219.251 26.248 219.528C26.2267 219.805 26.2053 220.024 26.184 220.184Z" fill="white" fill-opacity="0.6"/>
<rect x="48.8391" y="213" width="31" height="16" rx="8" fill="#1B1A1C"/>
<rect x="95.8391" y="213" width="109" height="16" rx="8" fill="#1B1A1C"/>
<rect x="220.839" y="213" width="233" height="16" rx="8" fill="#0F0E10"/>
<rect x="221.339" y="213.5" width="232" height="15" rx="7.5" stroke="white" stroke-opacity="0.2"/>
<path d="M24.008 253.552C24.008 252.475 24.1573 251.525 24.456 250.704C24.7547 249.872 25.176 249.173 25.72 248.608C26.2747 248.043 26.9413 247.616 27.72 247.328C28.5093 247.029 29.3947 246.875 30.376 246.864L30.488 248.112C29.8587 248.123 29.2827 248.192 28.76 248.32C28.248 248.448 27.7893 248.651 27.384 248.928C26.9787 249.205 26.6373 249.568 26.36 250.016C26.0827 250.453 25.8747 250.997 25.736 251.648C26.0133 251.52 26.3227 251.413 26.664 251.328C27.016 251.243 27.3787 251.2 27.752 251.2C28.3813 251.2 28.9147 251.296 29.352 251.488C29.7893 251.68 30.1467 251.936 30.424 252.256C30.7013 252.565 30.8987 252.928 31.016 253.344C31.144 253.749 31.208 254.176 31.208 254.624C31.208 255.029 31.1387 255.445 31 255.872C30.8613 256.299 30.648 256.688 30.36 257.04C30.0827 257.392 29.7253 257.68 29.288 257.904C28.8507 258.128 28.3333 258.24 27.736 258.24C26.52 258.24 25.592 257.824 24.952 256.992C24.3227 256.16 24.008 255.013 24.008 253.552ZM27.592 252.416C27.2187 252.416 26.872 252.453 26.552 252.528C26.232 252.592 25.912 252.693 25.592 252.832C25.5813 252.949 25.5707 253.072 25.56 253.2C25.56 253.317 25.56 253.435 25.56 253.552C25.56 254.021 25.592 254.464 25.656 254.88C25.72 255.296 25.832 255.664 25.992 255.984C26.1627 256.293 26.3867 256.544 26.664 256.736C26.9413 256.917 27.2933 257.008 27.72 257.008C28.072 257.008 28.3707 256.933 28.616 256.784C28.8613 256.635 29.064 256.443 29.224 256.208C29.384 255.973 29.496 255.723 29.56 255.456C29.6347 255.179 29.672 254.912 29.672 254.656C29.672 253.931 29.496 253.376 29.144 252.992C28.8027 252.608 28.2853 252.416 27.592 252.416Z" fill="white" fill-opacity="0.6"/>
<rect x="48.8391" y="244" width="266" height="16" rx="8" fill="#0F0E10"/>
<rect x="49.3391" y="244.5" width="265" height="15" rx="7.5" stroke="white" stroke-opacity="0.2"/>
<rect x="330.839" y="244" width="32" height="16" rx="8" fill="#1B1A1C"/>
<rect x="378.839" y="244" width="55" height="16" rx="8" fill="#1B1A1C"/>
<path d="M25.608 289C25.672 288.147 25.8213 287.251 26.056 286.312C26.3013 285.363 26.6 284.445 26.952 283.56C27.304 282.664 27.688 281.837 28.104 281.08C28.5307 280.312 28.9467 279.688 29.352 279.208H23.96V277.912H31.016V279.144C30.664 279.549 30.2747 280.109 29.848 280.824C29.4213 281.528 29.016 282.323 28.632 283.208C28.2587 284.083 27.9333 285.021 27.656 286.024C27.3893 287.016 27.224 288.008 27.16 289H25.608Z" fill="white" fill-opacity="0.6"/>
<rect x="48.8391" y="275" width="132" height="16" rx="8" fill="#1B1A1C"/>
<rect x="196.839" y="275" width="36" height="16" rx="8" fill="#0F0E10"/>
<rect x="197.339" y="275.5" width="35" height="15" rx="7.5" stroke="white" stroke-opacity="0.2"/>
<rect x="248.839" y="275" width="109" height="16" rx="8" fill="#1B1A1C"/>
<rect x="373.839" y="275" width="36" height="16" rx="8" fill="#0F0E10"/>
<rect x="374.339" y="275.5" width="35" height="15" rx="7.5" stroke="white" stroke-opacity="0.2"/>
<rect x="425.839" y="275" width="21" height="16" rx="8" fill="#1B1A1C"/>
<rect x="309" y="312" width="148" height="32" rx="5" fill="url(#paint0_linear_1140_1169)"/>
<path d="M355.376 333.21C354.695 333.21 354.074 333.098 353.514 332.874C352.954 332.65 352.473 332.323 352.072 331.894C351.671 331.465 351.358 330.937 351.134 330.312C350.919 329.677 350.812 328.954 350.812 328.142C350.812 327.33 350.933 326.611 351.176 325.986C351.428 325.351 351.764 324.819 352.184 324.39C352.604 323.961 353.094 323.634 353.654 323.41C354.214 323.186 354.811 323.074 355.446 323.074C355.847 323.074 356.207 323.102 356.524 323.158C356.851 323.214 357.131 323.279 357.364 323.354C357.607 323.429 357.803 323.503 357.952 323.578C358.101 323.653 358.204 323.709 358.26 323.746L357.868 324.866C357.784 324.81 357.663 324.749 357.504 324.684C357.345 324.619 357.163 324.553 356.958 324.488C356.762 324.423 356.543 324.371 356.3 324.334C356.067 324.287 355.829 324.264 355.586 324.264C355.073 324.264 354.611 324.353 354.2 324.53C353.789 324.707 353.439 324.964 353.15 325.3C352.861 325.636 352.637 326.047 352.478 326.532C352.329 327.008 352.254 327.545 352.254 328.142C352.254 328.721 352.319 329.248 352.45 329.724C352.59 330.2 352.795 330.611 353.066 330.956C353.337 331.292 353.673 331.553 354.074 331.74C354.485 331.927 354.961 332.02 355.502 332.02C356.127 332.02 356.645 331.955 357.056 331.824C357.467 331.693 357.775 331.577 357.98 331.474L358.33 332.594C358.265 332.641 358.148 332.701 357.98 332.776C357.812 332.841 357.602 332.907 357.35 332.972C357.098 333.037 356.804 333.093 356.468 333.14C356.132 333.187 355.768 333.21 355.376 333.21ZM366.023 329.36C366.023 329.939 365.939 330.461 365.771 330.928C365.603 331.395 365.365 331.796 365.057 332.132C364.758 332.468 364.399 332.729 363.979 332.916C363.559 333.093 363.101 333.182 362.607 333.182C362.112 333.182 361.655 333.093 361.235 332.916C360.815 332.729 360.451 332.468 360.143 332.132C359.844 331.796 359.611 331.395 359.443 330.928C359.275 330.461 359.191 329.939 359.191 329.36C359.191 328.791 359.275 328.273 359.443 327.806C359.611 327.33 359.844 326.924 360.143 326.588C360.451 326.252 360.815 325.995 361.235 325.818C361.655 325.631 362.112 325.538 362.607 325.538C363.101 325.538 363.559 325.631 363.979 325.818C364.399 325.995 364.758 326.252 365.057 326.588C365.365 326.924 365.603 327.33 365.771 327.806C365.939 328.273 366.023 328.791 366.023 329.36ZM364.665 329.36C364.665 328.539 364.478 327.89 364.105 327.414C363.741 326.929 363.241 326.686 362.607 326.686C361.972 326.686 361.468 326.929 361.095 327.414C360.731 327.89 360.549 328.539 360.549 329.36C360.549 330.181 360.731 330.835 361.095 331.32C361.468 331.796 361.972 332.034 362.607 332.034C363.241 332.034 363.741 331.796 364.105 331.32C364.478 330.835 364.665 330.181 364.665 329.36ZM367.854 325.93C368.153 325.855 368.55 325.776 369.044 325.692C369.539 325.608 370.108 325.566 370.752 325.566C371.331 325.566 371.812 325.65 372.194 325.818C372.577 325.977 372.88 326.205 373.104 326.504C373.338 326.793 373.501 327.143 373.594 327.554C373.688 327.965 373.734 328.417 373.734 328.912V333H372.432V329.192C372.432 328.744 372.4 328.361 372.334 328.044C372.278 327.727 372.18 327.47 372.04 327.274C371.9 327.078 371.714 326.938 371.48 326.854C371.247 326.761 370.958 326.714 370.612 326.714C370.472 326.714 370.328 326.719 370.178 326.728C370.029 326.737 369.884 326.751 369.744 326.77C369.614 326.779 369.492 326.793 369.38 326.812C369.278 326.831 369.203 326.845 369.156 326.854V333H367.854V325.93ZM378.735 322.136C379.062 322.136 379.342 322.159 379.575 322.206C379.809 322.243 379.977 322.281 380.079 322.318L379.897 323.438C379.795 323.401 379.655 323.363 379.477 323.326C379.3 323.279 379.085 323.256 378.833 323.256C378.227 323.256 377.802 323.424 377.559 323.76C377.317 324.087 377.195 324.53 377.195 325.09V325.72H379.995V326.812H377.195V333H375.893V325.062C375.893 324.129 376.122 323.41 376.579 322.906C377.037 322.393 377.755 322.136 378.735 322.136ZM382.655 333H381.353V325.72H382.655V333ZM381.997 324.404C381.764 324.404 381.563 324.329 381.395 324.18C381.237 324.021 381.157 323.811 381.157 323.55C381.157 323.289 381.237 323.083 381.395 322.934C381.563 322.775 381.764 322.696 381.997 322.696C382.231 322.696 382.427 322.775 382.585 322.934C382.753 323.083 382.837 323.289 382.837 323.55C382.837 323.811 382.753 324.021 382.585 324.18C382.427 324.329 382.231 324.404 381.997 324.404ZM387.578 325.566C387.69 325.566 387.816 325.575 387.956 325.594C388.105 325.603 388.25 325.622 388.39 325.65C388.53 325.669 388.656 325.692 388.768 325.72C388.889 325.739 388.978 325.757 389.034 325.776L388.81 326.91C388.707 326.873 388.534 326.831 388.292 326.784C388.058 326.728 387.755 326.7 387.382 326.7C387.139 326.7 386.896 326.728 386.654 326.784C386.42 326.831 386.266 326.863 386.192 326.882V333H384.89V326.028C385.198 325.916 385.58 325.813 386.038 325.72C386.495 325.617 387.008 325.566 387.578 325.566ZM390.29 325.93C390.589 325.855 390.981 325.776 391.466 325.692C391.961 325.608 392.53 325.566 393.174 325.566C393.641 325.566 394.033 325.631 394.35 325.762C394.667 325.883 394.933 326.065 395.148 326.308C395.213 326.261 395.316 326.196 395.456 326.112C395.596 326.028 395.769 325.949 395.974 325.874C396.179 325.79 396.408 325.72 396.66 325.664C396.912 325.599 397.183 325.566 397.472 325.566C398.032 325.566 398.489 325.65 398.844 325.818C399.199 325.977 399.474 326.205 399.67 326.504C399.875 326.803 400.011 327.157 400.076 327.568C400.151 327.979 400.188 328.427 400.188 328.912V333H398.886V329.192C398.886 328.763 398.863 328.394 398.816 328.086C398.779 327.778 398.699 327.521 398.578 327.316C398.466 327.111 398.307 326.961 398.102 326.868C397.906 326.765 397.649 326.714 397.332 326.714C396.893 326.714 396.529 326.775 396.24 326.896C395.96 327.008 395.769 327.111 395.666 327.204C395.741 327.447 395.797 327.713 395.834 328.002C395.871 328.291 395.89 328.595 395.89 328.912V333H394.588V329.192C394.588 328.763 394.565 328.394 394.518 328.086C394.471 327.778 394.387 327.521 394.266 327.316C394.154 327.111 393.995 326.961 393.79 326.868C393.594 326.765 393.342 326.714 393.034 326.714C392.903 326.714 392.763 326.719 392.614 326.728C392.465 326.737 392.32 326.751 392.18 326.77C392.049 326.779 391.928 326.793 391.816 326.812C391.704 326.831 391.629 326.845 391.592 326.854V333H390.29V325.93ZM404.813 332.062C405.121 332.062 405.391 332.057 405.625 332.048C405.867 332.029 406.068 332.001 406.227 331.964V329.794C406.133 329.747 405.979 329.71 405.765 329.682C405.559 329.645 405.307 329.626 405.009 329.626C404.813 329.626 404.603 329.64 404.379 329.668C404.164 329.696 403.963 329.757 403.777 329.85C403.599 329.934 403.45 330.055 403.329 330.214C403.207 330.363 403.147 330.564 403.147 330.816C403.147 331.283 403.296 331.609 403.595 331.796C403.893 331.973 404.299 332.062 404.813 332.062ZM404.701 325.538C405.223 325.538 405.662 325.608 406.017 325.748C406.381 325.879 406.67 326.07 406.885 326.322C407.109 326.565 407.267 326.859 407.361 327.204C407.454 327.54 407.501 327.913 407.501 328.324V332.874C407.389 332.893 407.23 332.921 407.025 332.958C406.829 332.986 406.605 333.014 406.353 333.042C406.101 333.07 405.825 333.093 405.527 333.112C405.237 333.14 404.948 333.154 404.659 333.154C404.248 333.154 403.87 333.112 403.525 333.028C403.179 332.944 402.881 332.813 402.629 332.636C402.377 332.449 402.181 332.207 402.041 331.908C401.901 331.609 401.831 331.25 401.831 330.83C401.831 330.429 401.91 330.083 402.069 329.794C402.237 329.505 402.461 329.271 402.741 329.094C403.021 328.917 403.347 328.786 403.721 328.702C404.094 328.618 404.486 328.576 404.897 328.576C405.027 328.576 405.163 328.585 405.303 328.604C405.443 328.613 405.573 328.632 405.695 328.66C405.825 328.679 405.937 328.697 406.031 328.716C406.124 328.735 406.189 328.749 406.227 328.758V328.394C406.227 328.179 406.203 327.969 406.157 327.764C406.11 327.549 406.026 327.363 405.905 327.204C405.783 327.036 405.615 326.905 405.401 326.812C405.195 326.709 404.925 326.658 404.589 326.658C404.159 326.658 403.781 326.691 403.455 326.756C403.137 326.812 402.899 326.873 402.741 326.938L402.587 325.86C402.755 325.785 403.035 325.715 403.427 325.65C403.819 325.575 404.243 325.538 404.701 325.538ZM412.351 325.566C412.463 325.566 412.589 325.575 412.729 325.594C412.878 325.603 413.023 325.622 413.163 325.65C413.303 325.669 413.429 325.692 413.541 325.72C413.662 325.739 413.751 325.757 413.807 325.776L413.583 326.91C413.48 326.873 413.308 326.831 413.065 326.784C412.832 326.728 412.528 326.7 412.155 326.7C411.912 326.7 411.67 326.728 411.427 326.784C411.194 326.831 411.04 326.863 410.965 326.882V333H409.663V326.028C409.971 325.916 410.354 325.813 410.811 325.72C411.268 325.617 411.782 325.566 412.351 325.566Z" fill="white"/>
<defs>
<filter id="filter0_b_1140_1169" x="-100" y="-100" width="673" height="560" filterUnits="userSpaceOnUse" color-interpolation-filters="sRGB">
<feFlood flood-opacity="0" result="BackgroundImageFix"/>
<feGaussianBlur in="BackgroundImageFix" stdDeviation="50"/>
<feComposite in2="SourceAlpha" operator="in" result="effect1_backgroundBlur_1140_1169"/>
<feBlend mode="normal" in="SourceGraphic" in2="effect1_backgroundBlur_1140_1169" result="shape"/>
</filter>
<linearGradient id="paint0_linear_1140_1169" x1="309" y1="328" x2="457" y2="328" gradientUnits="userSpaceOnUse">
<stop stop-color="#A98BED"/>
<stop offset="1" stop-color="#6DF8D8"/>
</linearGradient>
</defs>
</svg>
