<svg width="473" height="360" viewBox="0 0 473 360" fill="none" xmlns="http://www.w3.org/2000/svg">
<g clip-path="url(#clip0_114_237)">
<g opacity="0.67">
<path d="M248.317 0.859497L248.265 0.936852H248.369L248.317 0.859497Z" stroke="#0F0E10" stroke-width="2" stroke-linecap="round" stroke-linejoin="round"/>
<path d="M219.12 0.859497L126.423 1.26346L0.859497 180.09L126.423 358.943L155.371 358.788L30.0824 180.314L155.62 1.48693L218.836 1.23768L219.12 0.859497Z" stroke="#0F0E10" stroke-width="2" stroke-linecap="round" stroke-linejoin="round"/>
<path d="M201.81 67.2727L281.193 180.314L190.886 51.7073L201.81 67.2727Z" stroke="#0F0E10" stroke-width="2" stroke-linecap="round" stroke-linejoin="round"/>
<path d="M281.193 180.314L202.111 292.908L187.594 313.613L155.852 358.788L155.62 359.141L345.638 358.719L471.21 179.884L281.193 180.314Z" stroke="#0F0E10" stroke-width="2" stroke-linecap="round" stroke-linejoin="round"/>
<path d="M248.369 0.936852H248.265L218.836 1.03999L155.62 1.28925L345.638 0.859497L248.369 0.936852Z" stroke="#0F0E10" stroke-width="2" stroke-linecap="round" stroke-linejoin="round"/>
<path d="M155.62 1.48694L190.886 51.7073L187.155 46.3956L155.62 1.48694Z" stroke="#0F0E10" stroke-width="2" stroke-linecap="round" stroke-linejoin="round"/>
<path d="M345.638 0.859497L155.62 1.28925L187.155 46.1893L190.886 51.5096L281.193 180.116L471.21 179.686L345.638 0.859497Z" stroke="#0F0E10" stroke-width="2" stroke-linecap="round" stroke-linejoin="round"/>
</g>
</g>
<defs>
<clipPath id="clip0_114_237">
<rect width="472.061" height="360" fill="white"/>
</clipPath>
</defs>
</svg>
