<svg width="214" height="290" viewBox="0 0 214 290" fill="none" xmlns="http://www.w3.org/2000/svg">
<rect width="214" height="290" rx="20" fill="#0F0E10"/>
<rect x="0.5" y="0.5" width="213" height="289" rx="19.5" stroke="white" stroke-opacity="0.6"/>
<path d="M1 20C1 9.50659 9.50659 1 20 1H194C204.493 1 213 9.50659 213 20V44H1V20Z" fill="url(#paint0_linear_1140_1150)"/>
<path d="M25.784 17.412V18.756H22.296V28.5H20.744V18.756H17.256V17.412H25.784ZM25.9879 24.356C25.9879 23.62 26.0945 22.98 26.3079 22.436C26.5212 21.8813 26.8039 21.4227 27.1559 21.06C27.5079 20.6973 27.9132 20.4253 28.3719 20.244C28.8305 20.0627 29.2999 19.972 29.7799 19.972C30.8999 19.972 31.7585 20.324 32.3559 21.028C32.9532 21.7213 33.2519 22.7827 33.2519 24.212C33.2519 24.276 33.2519 24.3613 33.2519 24.468C33.2519 24.564 33.2465 24.6547 33.2359 24.74H27.5399C27.6039 25.604 27.8545 26.26 28.2919 26.708C28.7292 27.156 29.4119 27.38 30.3399 27.38C30.8625 27.38 31.2999 27.3373 31.6519 27.252C32.0145 27.156 32.2865 27.0653 32.4679 26.98L32.6759 28.228C32.4945 28.324 32.1745 28.4253 31.7159 28.532C31.2679 28.6387 30.7559 28.692 30.1799 28.692C29.4545 28.692 28.8252 28.5853 28.2919 28.372C27.7692 28.148 27.3372 27.844 26.9959 27.46C26.6545 27.076 26.3985 26.6227 26.2279 26.1C26.0679 25.5667 25.9879 24.9853 25.9879 24.356ZM31.6999 23.54C31.7105 22.868 31.5399 22.3187 31.1879 21.892C30.8465 21.4547 30.3719 21.236 29.7639 21.236C29.4225 21.236 29.1185 21.3053 28.8519 21.444C28.5959 21.572 28.3772 21.7427 28.1959 21.956C28.0145 22.1693 27.8705 22.4147 27.7639 22.692C27.6679 22.9693 27.6039 23.252 27.5719 23.54H31.6999ZM39.0054 28.692C38.3334 28.692 37.7414 28.5853 37.2294 28.372C36.728 28.1587 36.3014 27.86 35.9494 27.476C35.608 27.092 35.352 26.6387 35.1814 26.116C35.0107 25.5827 34.9254 24.996 34.9254 24.356C34.9254 23.716 35.016 23.1293 35.1974 22.596C35.3894 22.0627 35.656 21.604 35.9974 21.22C36.3387 20.8253 36.7547 20.5213 37.2454 20.308C37.7467 20.084 38.3014 19.972 38.9094 19.972C39.2827 19.972 39.656 20.004 40.0294 20.068C40.4027 20.132 40.76 20.2333 41.1014 20.372L40.7654 21.636C40.5414 21.5293 40.28 21.444 39.9814 21.38C39.6934 21.316 39.384 21.284 39.0534 21.284C38.2214 21.284 37.5814 21.5453 37.1334 22.068C36.696 22.5907 36.4774 23.3533 36.4774 24.356C36.4774 24.804 36.5254 25.2147 36.6214 25.588C36.728 25.9613 36.888 26.2813 37.1014 26.548C37.3254 26.8147 37.608 27.0227 37.9494 27.172C38.2907 27.3107 38.7067 27.38 39.1974 27.38C39.592 27.38 39.9494 27.3427 40.2694 27.268C40.5894 27.1933 40.84 27.1133 41.0214 27.028L41.2294 28.276C41.144 28.3293 41.0214 28.3827 40.8614 28.436C40.7014 28.4787 40.52 28.516 40.3174 28.548C40.1147 28.5907 39.896 28.6227 39.6614 28.644C39.4374 28.676 39.2187 28.692 39.0054 28.692ZM42.8269 20.42C43.1682 20.3347 43.6215 20.244 44.1869 20.148C44.7522 20.052 45.4029 20.004 46.1389 20.004C46.8002 20.004 47.3495 20.1 47.7869 20.292C48.2242 20.4733 48.5709 20.7347 48.8269 21.076C49.0935 21.4067 49.2802 21.8067 49.3869 22.276C49.4935 22.7453 49.5469 23.2627 49.5469 23.828V28.5H48.0589V24.148C48.0589 23.636 48.0215 23.1987 47.9469 22.836C47.8829 22.4733 47.7709 22.18 47.6109 21.956C47.4509 21.732 47.2375 21.572 46.9709 21.476C46.7042 21.3693 46.3735 21.316 45.9789 21.316C45.8189 21.316 45.6535 21.3213 45.4829 21.332C45.3122 21.3427 45.1469 21.3587 44.9869 21.38C44.8375 21.3907 44.6989 21.4067 44.5709 21.428C44.4535 21.4493 44.3682 21.4653 44.3149 21.476V28.5H42.8269V20.42ZM59.3584 24.34C59.3584 25.0013 59.2624 25.5987 59.0704 26.132C58.8784 26.6653 58.6064 27.124 58.2544 27.508C57.913 27.892 57.5024 28.1907 57.0224 28.404C56.5424 28.6067 56.0197 28.708 55.4544 28.708C54.889 28.708 54.3664 28.6067 53.8864 28.404C53.4064 28.1907 52.9904 27.892 52.6384 27.508C52.297 27.124 52.0304 26.6653 51.8384 26.132C51.6464 25.5987 51.5504 25.0013 51.5504 24.34C51.5504 23.6893 51.6464 23.0973 51.8384 22.564C52.0304 22.02 52.297 21.556 52.6384 21.172C52.9904 20.788 53.4064 20.4947 53.8864 20.292C54.3664 20.0787 54.889 19.972 55.4544 19.972C56.0197 19.972 56.5424 20.0787 57.0224 20.292C57.5024 20.4947 57.913 20.788 58.2544 21.172C58.6064 21.556 58.8784 22.02 59.0704 22.564C59.2624 23.0973 59.3584 23.6893 59.3584 24.34ZM57.8064 24.34C57.8064 23.4013 57.593 22.66 57.1664 22.116C56.7504 21.5613 56.1797 21.284 55.4544 21.284C54.729 21.284 54.153 21.5613 53.7264 22.116C53.3104 22.66 53.1024 23.4013 53.1024 24.34C53.1024 25.2787 53.3104 26.0253 53.7264 26.58C54.153 27.124 54.729 27.396 55.4544 27.396C56.1797 27.396 56.7504 27.124 57.1664 26.58C57.593 26.0253 57.8064 25.2787 57.8064 24.34ZM63.9479 28.66C63.0305 28.6387 62.3799 28.4413 61.9959 28.068C61.6119 27.6947 61.4199 27.1133 61.4199 26.324V16.34L62.9079 16.084V26.084C62.9079 26.3293 62.9292 26.532 62.9719 26.692C63.0145 26.852 63.0839 26.98 63.1799 27.076C63.2759 27.172 63.4039 27.2467 63.5639 27.3C63.7239 27.3427 63.9212 27.38 64.1559 27.412L63.9479 28.66ZM73.1709 24.34C73.1709 25.0013 73.0749 25.5987 72.8829 26.132C72.6909 26.6653 72.4189 27.124 72.0669 27.508C71.7255 27.892 71.3149 28.1907 70.8349 28.404C70.3549 28.6067 69.8322 28.708 69.2669 28.708C68.7015 28.708 68.1789 28.6067 67.6989 28.404C67.2189 28.1907 66.8029 27.892 66.4509 27.508C66.1095 27.124 65.8429 26.6653 65.6509 26.132C65.4589 25.5987 65.3629 25.0013 65.3629 24.34C65.3629 23.6893 65.4589 23.0973 65.6509 22.564C65.8429 22.02 66.1095 21.556 66.4509 21.172C66.8029 20.788 67.2189 20.4947 67.6989 20.292C68.1789 20.0787 68.7015 19.972 69.2669 19.972C69.8322 19.972 70.3549 20.0787 70.8349 20.292C71.3149 20.4947 71.7255 20.788 72.0669 21.172C72.4189 21.556 72.6909 22.02 72.8829 22.564C73.0749 23.0973 73.1709 23.6893 73.1709 24.34ZM71.6189 24.34C71.6189 23.4013 71.4055 22.66 70.9789 22.116C70.5629 21.5613 69.9922 21.284 69.2669 21.284C68.5415 21.284 67.9655 21.5613 67.5389 22.116C67.1229 22.66 66.9149 23.4013 66.9149 24.34C66.9149 25.2787 67.1229 26.0253 67.5389 26.58C67.9655 27.124 68.5415 27.396 69.2669 27.396C69.9922 27.396 70.5629 27.124 70.9789 26.58C71.4055 26.0253 71.6189 25.2787 71.6189 24.34ZM80.4804 27.668C80.3524 27.7533 80.1017 27.8653 79.7284 28.004C79.3657 28.132 78.939 28.196 78.4484 28.196C77.947 28.196 77.4724 28.116 77.0244 27.956C76.587 27.796 76.203 27.5507 75.8724 27.22C75.5417 26.8787 75.2804 26.4573 75.0884 25.956C74.8964 25.4547 74.8004 24.8573 74.8004 24.164C74.8004 23.556 74.891 23.0013 75.0724 22.5C75.2537 21.988 75.515 21.5507 75.8564 21.188C76.2084 20.8147 76.635 20.5267 77.1364 20.324C77.6377 20.1107 78.203 20.004 78.8324 20.004C79.5257 20.004 80.1284 20.0573 80.6404 20.164C81.163 20.26 81.6004 20.3507 81.9524 20.436V27.86C81.9524 29.14 81.6217 30.068 80.9604 30.644C80.299 31.22 79.2964 31.508 77.9524 31.508C77.4297 31.508 76.9337 31.4653 76.4644 31.38C76.0057 31.2947 75.6057 31.1933 75.2644 31.076L75.5364 29.78C75.835 29.8973 76.1977 29.9987 76.6244 30.084C77.0617 30.18 77.515 30.228 77.9844 30.228C78.8697 30.228 79.5044 30.052 79.8884 29.7C80.283 29.348 80.4804 28.788 80.4804 28.02V27.668ZM80.4644 21.492C80.315 21.4493 80.1124 21.412 79.8564 21.38C79.611 21.3373 79.275 21.316 78.8484 21.316C78.0484 21.316 77.4297 21.5773 76.9924 22.1C76.5657 22.6227 76.3524 23.316 76.3524 24.18C76.3524 24.66 76.411 25.0707 76.5284 25.412C76.6564 25.7533 76.8217 26.036 77.0244 26.26C77.2377 26.484 77.4777 26.6493 77.7444 26.756C78.0217 26.8627 78.3044 26.916 78.5924 26.916C78.987 26.916 79.3497 26.8627 79.6804 26.756C80.011 26.6387 80.2724 26.5053 80.4644 26.356V21.492ZM86.0024 28.5H84.5144V20.18H86.0024V28.5ZM85.2504 18.676C84.9837 18.676 84.7544 18.5907 84.5624 18.42C84.381 18.2387 84.2904 17.9987 84.2904 17.7C84.2904 17.4013 84.381 17.1667 84.5624 16.996C84.7544 16.8147 84.9837 16.724 85.2504 16.724C85.517 16.724 85.741 16.8147 85.9224 16.996C86.1144 17.1667 86.2104 17.4013 86.2104 17.7C86.2104 17.9987 86.1144 18.2387 85.9224 18.42C85.741 18.5907 85.517 18.676 85.2504 18.676ZM91.3773 27.428C91.7293 27.428 92.0386 27.4227 92.3053 27.412C92.5826 27.3907 92.8119 27.3587 92.9933 27.316V24.836C92.8866 24.7827 92.7106 24.74 92.4653 24.708C92.2306 24.6653 91.9426 24.644 91.6013 24.644C91.3773 24.644 91.1373 24.66 90.8813 24.692C90.6359 24.724 90.4066 24.7933 90.1933 24.9C89.9906 24.996 89.8199 25.1347 89.6813 25.316C89.5426 25.4867 89.4733 25.716 89.4733 26.004C89.4733 26.5373 89.6439 26.9107 89.9853 27.124C90.3266 27.3267 90.7906 27.428 91.3773 27.428ZM91.2493 19.972C91.8466 19.972 92.3479 20.052 92.7533 20.212C93.1693 20.3613 93.4999 20.58 93.7453 20.868C94.0013 21.1453 94.1826 21.4813 94.2893 21.876C94.3959 22.26 94.4493 22.6867 94.4493 23.156V28.356C94.3213 28.3773 94.1399 28.4093 93.9053 28.452C93.6813 28.484 93.4253 28.516 93.1373 28.548C92.8493 28.58 92.5346 28.6067 92.1933 28.628C91.8626 28.66 91.5319 28.676 91.2013 28.676C90.7319 28.676 90.2999 28.628 89.9053 28.532C89.5106 28.436 89.1693 28.2867 88.8813 28.084C88.5933 27.8707 88.3693 27.5933 88.2093 27.252C88.0493 26.9107 87.9693 26.5 87.9693 26.02C87.9693 25.5613 88.0599 25.1667 88.2413 24.836C88.4333 24.5053 88.6893 24.2387 89.0093 24.036C89.3293 23.8333 89.7026 23.684 90.1293 23.588C90.5559 23.492 91.0039 23.444 91.4733 23.444C91.6226 23.444 91.7773 23.4547 91.9373 23.476C92.0973 23.4867 92.2466 23.508 92.3853 23.54C92.5346 23.5613 92.6626 23.5827 92.7693 23.604C92.8759 23.6253 92.9506 23.6413 92.9933 23.652V23.236C92.9933 22.9907 92.9666 22.7507 92.9133 22.516C92.8599 22.2707 92.7639 22.0573 92.6253 21.876C92.4866 21.684 92.2946 21.5347 92.0493 21.428C91.8146 21.3107 91.5053 21.252 91.1213 21.252C90.6306 21.252 90.1986 21.2893 89.8253 21.364C89.4626 21.428 89.1906 21.4973 89.0093 21.572L88.8333 20.34C89.0253 20.2547 89.3453 20.1747 89.7933 20.1C90.2413 20.0147 90.7266 19.972 91.2493 19.972ZM98.8566 27.428C99.4646 27.428 99.9126 27.348 100.201 27.188C100.499 27.028 100.649 26.772 100.649 26.42C100.649 26.0573 100.505 25.7693 100.217 25.556C99.9286 25.3427 99.454 25.1027 98.7926 24.836C98.4726 24.708 98.1633 24.58 97.8646 24.452C97.5766 24.3133 97.326 24.1533 97.1126 23.972C96.8993 23.7907 96.7286 23.572 96.6006 23.316C96.4726 23.06 96.4086 22.7453 96.4086 22.372C96.4086 21.636 96.6806 21.0547 97.2246 20.628C97.7686 20.1907 98.51 19.972 99.4486 19.972C99.6833 19.972 99.918 19.988 100.153 20.02C100.387 20.0413 100.606 20.0733 100.809 20.116C101.011 20.148 101.187 20.1853 101.337 20.228C101.497 20.2707 101.619 20.308 101.705 20.34L101.433 21.62C101.273 21.5347 101.022 21.4493 100.681 21.364C100.339 21.268 99.9286 21.22 99.4486 21.22C99.0326 21.22 98.67 21.3053 98.3606 21.476C98.0513 21.636 97.8966 21.892 97.8966 22.244C97.8966 22.4253 97.9286 22.5853 97.9926 22.724C98.0673 22.8627 98.174 22.9907 98.3126 23.108C98.462 23.2147 98.6433 23.316 98.8566 23.412C99.07 23.508 99.326 23.6093 99.6246 23.716C100.019 23.8653 100.371 24.0147 100.681 24.164C100.99 24.3027 101.251 24.468 101.465 24.66C101.689 24.852 101.859 25.0867 101.977 25.364C102.094 25.6307 102.153 25.9613 102.153 26.356C102.153 27.124 101.865 27.7053 101.289 28.1C100.723 28.4947 99.9126 28.692 98.8566 28.692C98.1206 28.692 97.5446 28.628 97.1286 28.5C96.7126 28.3827 96.43 28.292 96.2806 28.228L96.5526 26.948C96.7233 27.012 96.9953 27.108 97.3686 27.236C97.742 27.364 98.238 27.428 98.8566 27.428Z" fill="white"/>
<path d="M119 23.6714L123.95 18.7217L125.364 20.1359L119 26.4999L112.636 20.1359L114.05 18.7217L119 23.6714Z" fill="white"/>
<path d="M25.976 74C25.7413 73.6053 25.4693 73.1627 25.16 72.672C24.8613 72.1813 24.536 71.6747 24.184 71.152C23.832 70.6187 23.464 70.08 23.08 69.536C22.7067 68.992 22.3333 68.4693 21.96 67.968C21.5867 67.456 21.224 66.976 20.872 66.528C20.52 66.08 20.1947 65.6853 19.896 65.344V74H18.376V62.912H19.608C20.1093 63.4453 20.6427 64.0693 21.208 64.784C21.784 65.488 22.3493 66.2187 22.904 66.976C23.4693 67.7227 23.9973 68.4587 24.488 69.184C24.9893 69.9093 25.4107 70.5547 25.752 71.12V62.912H27.272V74H25.976ZM29.4566 69.856C29.4566 69.12 29.5633 68.48 29.7766 67.936C29.99 67.3813 30.2726 66.9227 30.6246 66.56C30.9766 66.1973 31.382 65.9253 31.8406 65.744C32.2993 65.5627 32.7686 65.472 33.2486 65.472C34.3686 65.472 35.2273 65.824 35.8246 66.528C36.422 67.2213 36.7206 68.2827 36.7206 69.712C36.7206 69.776 36.7206 69.8613 36.7206 69.968C36.7206 70.064 36.7153 70.1547 36.7046 70.24H31.0086C31.0726 71.104 31.3233 71.76 31.7606 72.208C32.198 72.656 32.8806 72.88 33.8086 72.88C34.3313 72.88 34.7686 72.8373 35.1206 72.752C35.4833 72.656 35.7553 72.5653 35.9366 72.48L36.1446 73.728C35.9633 73.824 35.6433 73.9253 35.1846 74.032C34.7366 74.1387 34.2246 74.192 33.6486 74.192C32.9233 74.192 32.294 74.0853 31.7606 73.872C31.238 73.648 30.806 73.344 30.4646 72.96C30.1233 72.576 29.8673 72.1227 29.6966 71.6C29.5366 71.0667 29.4566 70.4853 29.4566 69.856ZM35.1686 69.04C35.1793 68.368 35.0086 67.8187 34.6566 67.392C34.3153 66.9547 33.8406 66.736 33.2326 66.736C32.8913 66.736 32.5873 66.8053 32.3206 66.944C32.0646 67.072 31.846 67.2427 31.6646 67.456C31.4833 67.6693 31.3393 67.9147 31.2326 68.192C31.1366 68.4693 31.0726 68.752 31.0406 69.04H35.1686ZM43.8341 74C43.7168 73.7653 43.5728 73.504 43.4021 73.216C43.2315 72.928 43.0448 72.6347 42.8421 72.336C42.6395 72.0267 42.4315 71.7227 42.2181 71.424C42.0048 71.1253 41.7968 70.8427 41.5941 70.576C41.3915 70.8427 41.1835 71.1307 40.9701 71.44C40.7568 71.7387 40.5488 72.0427 40.3461 72.352C40.1541 72.6507 39.9728 72.944 39.8021 73.232C39.6315 73.52 39.4875 73.776 39.3701 74H37.8341C38.2075 73.2747 38.6501 72.5387 39.1621 71.792C39.6848 71.0347 40.2021 70.3147 40.7141 69.632L37.9621 65.68H39.6421L41.6261 68.592L43.6261 65.68H45.2101L42.5221 69.536C43.0341 70.2293 43.5568 70.9653 44.0901 71.744C44.6341 72.512 45.0928 73.264 45.4661 74H43.8341ZM48.422 65.68H51.574V66.928H48.422V70.768C48.422 71.184 48.454 71.5307 48.518 71.808C48.582 72.0747 48.678 72.288 48.806 72.448C48.934 72.5973 49.094 72.704 49.286 72.768C49.478 72.832 49.702 72.864 49.958 72.864C50.406 72.864 50.7633 72.816 51.03 72.72C51.3073 72.6133 51.4993 72.5387 51.606 72.496L51.894 73.728C51.7447 73.8027 51.4833 73.8933 51.11 74C50.7367 74.1173 50.31 74.176 49.83 74.176C49.2647 74.176 48.7953 74.1067 48.422 73.968C48.0593 73.8187 47.766 73.6 47.542 73.312C47.318 73.024 47.158 72.672 47.062 72.256C46.9767 71.8293 46.934 71.3387 46.934 70.784V63.36L48.422 63.104V65.68ZM55.3994 73.136C55.3994 73.424 55.3034 73.6747 55.1114 73.888C54.9194 74.1013 54.658 74.208 54.3274 74.208C53.9967 74.208 53.7354 74.1013 53.5434 73.888C53.3514 73.6747 53.2554 73.424 53.2554 73.136C53.2554 72.848 53.3514 72.5973 53.5434 72.384C53.7354 72.1707 53.9967 72.064 54.3274 72.064C54.658 72.064 54.9194 72.1707 55.1114 72.384C55.3034 72.5973 55.3994 72.848 55.3994 73.136ZM56.2169 76.992C56.0889 76.992 55.9235 76.976 55.7209 76.944C55.5182 76.912 55.3475 76.8693 55.2089 76.816L55.4009 75.6C55.5075 75.632 55.6302 75.6587 55.7689 75.68C55.9075 75.7013 56.0355 75.712 56.1529 75.712C56.6649 75.712 57.0275 75.552 57.2409 75.232C57.4649 74.9227 57.5769 74.464 57.5769 73.856V65.68H59.0649V73.84C59.0649 74.9067 58.8195 75.696 58.3289 76.208C57.8489 76.7307 57.1449 76.992 56.2169 76.992ZM58.3129 64.176C58.0462 64.176 57.8169 64.0907 57.6249 63.92C57.4435 63.7387 57.3529 63.4987 57.3529 63.2C57.3529 62.9013 57.4435 62.6667 57.6249 62.496C57.8169 62.3147 58.0462 62.224 58.3129 62.224C58.5795 62.224 58.8035 62.3147 58.9849 62.496C59.1769 62.6667 59.2729 62.9013 59.2729 63.2C59.2729 63.4987 59.1769 63.7387 58.9849 63.92C58.8035 64.0907 58.5795 64.176 58.3129 64.176ZM63.5598 72.928C64.1678 72.928 64.6158 72.848 64.9038 72.688C65.2024 72.528 65.3518 72.272 65.3518 71.92C65.3518 71.5573 65.2078 71.2693 64.9198 71.056C64.6318 70.8427 64.1571 70.6027 63.4958 70.336C63.1758 70.208 62.8664 70.08 62.5678 69.952C62.2798 69.8133 62.0291 69.6533 61.8158 69.472C61.6024 69.2907 61.4318 69.072 61.3038 68.816C61.1758 68.56 61.1118 68.2453 61.1118 67.872C61.1118 67.136 61.3838 66.5547 61.9278 66.128C62.4718 65.6907 63.2131 65.472 64.1518 65.472C64.3864 65.472 64.6211 65.488 64.8558 65.52C65.0904 65.5413 65.3091 65.5733 65.5118 65.616C65.7144 65.648 65.8904 65.6853 66.0398 65.728C66.1998 65.7707 66.3224 65.808 66.4078 65.84L66.1358 67.12C65.9758 67.0347 65.7251 66.9493 65.3838 66.864C65.0424 66.768 64.6318 66.72 64.1518 66.72C63.7358 66.72 63.3731 66.8053 63.0638 66.976C62.7544 67.136 62.5998 67.392 62.5998 67.744C62.5998 67.9253 62.6318 68.0853 62.6957 68.224C62.7704 68.3627 62.8771 68.4907 63.0158 68.608C63.1651 68.7147 63.3464 68.816 63.5598 68.912C63.7731 69.008 64.0291 69.1093 64.3278 69.216C64.7224 69.3653 65.0744 69.5147 65.3838 69.664C65.6931 69.8027 65.9544 69.968 66.1678 70.16C66.3918 70.352 66.5624 70.5867 66.6798 70.864C66.7971 71.1307 66.8558 71.4613 66.8558 71.856C66.8558 72.624 66.5678 73.2053 65.9918 73.6C65.4264 73.9947 64.6158 74.192 63.5598 74.192C62.8238 74.192 62.2478 74.128 61.8318 74C61.4158 73.8827 61.1331 73.792 60.9838 73.728L61.2558 72.448C61.4264 72.512 61.6984 72.608 62.0718 72.736C62.4451 72.864 62.9411 72.928 63.5598 72.928ZM76.3786 65.2C76.9866 64.9653 77.5786 64.6667 78.1546 64.304C78.7306 63.9307 79.2586 63.4667 79.7386 62.912H80.7946V74H79.3066V64.976C79.1786 65.0933 79.0186 65.216 78.8266 65.344C78.6453 65.472 78.4426 65.5947 78.2186 65.712C78.0053 65.8293 77.776 65.9413 77.5306 66.048C77.296 66.1547 77.0666 66.2453 76.8426 66.32L76.3786 65.2ZM84.5619 70.16C84.7645 69.6907 85.0419 69.1467 85.3939 68.528C85.7459 67.8987 86.1405 67.2533 86.5779 66.592C87.0259 65.9307 87.5005 65.28 88.0019 64.64C88.5139 64 89.0259 63.424 89.5379 62.912H90.9619V69.952H92.2739V71.168H90.9619V74H89.5219V71.168H84.5619V70.16ZM89.5219 64.672C89.2019 65.0133 88.8765 65.3973 88.5459 65.824C88.2259 66.24 87.9112 66.6773 87.6019 67.136C87.2925 67.5947 86.9992 68.064 86.7219 68.544C86.4552 69.024 86.2152 69.4933 86.0019 69.952H89.5219V64.672ZM95.9931 73.136C95.9931 73.424 95.8971 73.6747 95.7051 73.888C95.5131 74.1013 95.2518 74.208 94.9211 74.208C94.5905 74.208 94.3291 74.1013 94.1371 73.888C93.9451 73.6747 93.8491 73.424 93.8491 73.136C93.8491 72.848 93.9451 72.5973 94.1371 72.384C94.3291 72.1707 94.5905 72.064 94.9211 72.064C95.2518 72.064 95.5131 72.1707 95.7051 72.384C95.8971 72.5973 95.9931 72.848 95.9931 73.136ZM104.363 65.744C104.363 66.128 104.283 66.5013 104.123 66.864C103.973 67.216 103.771 67.568 103.515 67.92C103.259 68.2613 102.971 68.6027 102.651 68.944C102.331 69.2747 102.011 69.6 101.691 69.92C101.509 70.1013 101.296 70.3147 101.051 70.56C100.816 70.8053 100.592 71.0613 100.379 71.328C100.165 71.5947 99.984 71.8507 99.8346 72.096C99.696 72.3413 99.6266 72.5547 99.6266 72.736H104.731V74H98.0106C98 73.936 97.9946 73.872 97.9946 73.808C97.9946 73.744 97.9946 73.6853 97.9946 73.632C97.9946 73.1307 98.0746 72.6667 98.2346 72.24C98.4053 71.8027 98.624 71.392 98.8906 71.008C99.1573 70.624 99.456 70.2613 99.7866 69.92C100.117 69.5787 100.443 69.248 100.763 68.928C101.029 68.672 101.28 68.4213 101.515 68.176C101.76 67.92 101.973 67.6693 102.155 67.424C102.347 67.168 102.496 66.9067 102.603 66.64C102.72 66.3733 102.779 66.0907 102.779 65.792C102.779 65.472 102.725 65.2 102.619 64.976C102.523 64.752 102.389 64.5653 102.219 64.416C102.048 64.2667 101.845 64.16 101.611 64.096C101.387 64.0213 101.147 63.984 100.891 63.984C100.581 63.984 100.299 64.0267 100.043 64.112C99.7866 64.1973 99.5573 64.2987 99.3546 64.416C99.152 64.5227 98.9813 64.64 98.8426 64.768C98.704 64.8853 98.5973 64.976 98.5226 65.04L97.7866 63.984C97.8826 63.8773 98.0266 63.7493 98.2186 63.6C98.4106 63.44 98.64 63.2907 98.9066 63.152C99.1733 63.0133 99.472 62.896 99.8026 62.8C100.133 62.704 100.491 62.656 100.875 62.656C102.037 62.656 102.907 62.928 103.483 63.472C104.069 64.0053 104.363 64.7627 104.363 65.744ZM108.962 73.136C108.962 73.424 108.866 73.6747 108.674 73.888C108.482 74.1013 108.221 74.208 107.89 74.208C107.559 74.208 107.298 74.1013 107.106 73.888C106.914 73.6747 106.818 73.424 106.818 73.136C106.818 72.848 106.914 72.5973 107.106 72.384C107.298 72.1707 107.559 72.064 107.89 72.064C108.221 72.064 108.482 72.1707 108.674 72.384C108.866 72.5973 108.962 72.848 108.962 73.136ZM113.043 67.184C114.654 67.248 115.833 67.6 116.579 68.24C117.337 68.88 117.715 69.7493 117.715 70.848C117.715 71.3387 117.63 71.792 117.459 72.208C117.299 72.624 117.049 72.9813 116.707 73.28C116.377 73.5787 115.955 73.8133 115.443 73.984C114.931 74.1547 114.323 74.24 113.619 74.24C113.342 74.24 113.059 74.2187 112.771 74.176C112.483 74.1333 112.217 74.08 111.971 74.016C111.726 73.952 111.507 73.888 111.315 73.824C111.123 73.76 110.985 73.7067 110.899 73.664L111.187 72.368C111.369 72.4533 111.662 72.5653 112.067 72.704C112.483 72.8427 112.99 72.912 113.587 72.912C114.067 72.912 114.467 72.8587 114.787 72.752C115.118 72.6453 115.385 72.5013 115.587 72.32C115.79 72.1387 115.934 71.9307 116.019 71.696C116.115 71.4507 116.163 71.1947 116.163 70.928C116.163 70.5227 116.094 70.1653 115.955 69.856C115.817 69.536 115.571 69.2693 115.219 69.056C114.867 68.8427 114.398 68.6827 113.811 68.576C113.225 68.4587 112.483 68.4 111.587 68.4C111.651 67.8773 111.699 67.3867 111.731 66.928C111.774 66.4693 111.811 66.0213 111.843 65.584C111.875 65.1467 111.902 64.7147 111.923 64.288C111.945 63.8507 111.966 63.392 111.987 62.912H117.331V64.176H113.283C113.273 64.336 113.257 64.5547 113.235 64.832C113.214 65.0987 113.193 65.3813 113.171 65.68C113.15 65.968 113.129 66.2507 113.107 66.528C113.086 66.8053 113.065 67.024 113.043 67.184Z" fill="white" fill-opacity="0.6"/>
<rect width="212" height="48" transform="translate(1 93.25)" fill="white" fill-opacity="0.05"/>
<path d="M23.704 119.682C23.704 120.215 23.6453 120.711 23.528 121.17C23.4213 121.629 23.224 122.034 22.936 122.386C22.6587 122.727 22.28 122.999 21.8 123.202C21.3307 123.394 20.7387 123.49 20.024 123.49C19.6613 123.49 19.3253 123.458 19.016 123.394C18.7173 123.341 18.4453 123.271 18.2 123.186C17.9547 123.09 17.7413 122.994 17.56 122.898C17.3787 122.791 17.2347 122.69 17.128 122.594L17.736 121.362C17.96 121.522 18.248 121.693 18.6 121.874C18.9627 122.045 19.4107 122.13 19.944 122.13C20.712 122.13 21.272 121.938 21.624 121.554C21.976 121.159 22.152 120.487 22.152 119.538V112.162H23.704V119.682ZM29.096 122.178C29.448 122.178 29.7573 122.173 30.024 122.162C30.3013 122.141 30.5307 122.109 30.712 122.066V119.586C30.6053 119.533 30.4293 119.49 30.184 119.458C29.9493 119.415 29.6613 119.394 29.32 119.394C29.096 119.394 28.856 119.41 28.6 119.442C28.3547 119.474 28.1253 119.543 27.912 119.65C27.7093 119.746 27.5387 119.885 27.4 120.066C27.2613 120.237 27.192 120.466 27.192 120.754C27.192 121.287 27.3627 121.661 27.704 121.874C28.0453 122.077 28.5093 122.178 29.096 122.178ZM28.968 114.722C29.5653 114.722 30.0667 114.802 30.472 114.962C30.888 115.111 31.2187 115.33 31.464 115.618C31.72 115.895 31.9013 116.231 32.008 116.626C32.1147 117.01 32.168 117.437 32.168 117.906V123.106C32.04 123.127 31.8587 123.159 31.624 123.202C31.4 123.234 31.144 123.266 30.856 123.298C30.568 123.33 30.2533 123.357 29.912 123.378C29.5813 123.41 29.2507 123.426 28.92 123.426C28.4507 123.426 28.0187 123.378 27.624 123.282C27.2293 123.186 26.888 123.037 26.6 122.834C26.312 122.621 26.088 122.343 25.928 122.002C25.768 121.661 25.688 121.25 25.688 120.77C25.688 120.311 25.7787 119.917 25.96 119.586C26.152 119.255 26.408 118.989 26.728 118.786C27.048 118.583 27.4213 118.434 27.848 118.338C28.2747 118.242 28.7227 118.194 29.192 118.194C29.3413 118.194 29.496 118.205 29.656 118.226C29.816 118.237 29.9653 118.258 30.104 118.29C30.2533 118.311 30.3813 118.333 30.488 118.354C30.5947 118.375 30.6693 118.391 30.712 118.402V117.986C30.712 117.741 30.6853 117.501 30.632 117.266C30.5787 117.021 30.4827 116.807 30.344 116.626C30.2053 116.434 30.0133 116.285 29.768 116.178C29.5333 116.061 29.224 116.002 28.84 116.002C28.3493 116.002 27.9173 116.039 27.544 116.114C27.1813 116.178 26.9093 116.247 26.728 116.322L26.552 115.09C26.744 115.005 27.064 114.925 27.512 114.85C27.96 114.765 28.4453 114.722 28.968 114.722ZM40.901 114.93C40.485 116.487 39.9943 117.981 39.429 119.41C38.8743 120.839 38.3357 122.119 37.813 123.25H36.469C35.9463 122.119 35.4023 120.839 34.837 119.41C34.2823 117.981 33.797 116.487 33.381 114.93H34.981C35.109 115.453 35.2583 116.013 35.429 116.61C35.6103 117.197 35.797 117.783 35.989 118.37C36.1917 118.946 36.3943 119.506 36.597 120.05C36.7997 120.594 36.9917 121.079 37.173 121.506C37.3543 121.079 37.5463 120.594 37.749 120.05C37.9517 119.506 38.149 118.946 38.341 118.37C38.5437 117.783 38.7303 117.197 38.901 116.61C39.0823 116.013 39.237 115.453 39.365 114.93H40.901ZM45.2523 122.178C45.6043 122.178 45.9136 122.173 46.1803 122.162C46.4576 122.141 46.6869 122.109 46.8683 122.066V119.586C46.7616 119.533 46.5856 119.49 46.3403 119.458C46.1056 119.415 45.8176 119.394 45.4763 119.394C45.2523 119.394 45.0123 119.41 44.7563 119.442C44.5109 119.474 44.2816 119.543 44.0683 119.65C43.8656 119.746 43.6949 119.885 43.5563 120.066C43.4176 120.237 43.3483 120.466 43.3483 120.754C43.3483 121.287 43.5189 121.661 43.8603 121.874C44.2016 122.077 44.6656 122.178 45.2523 122.178ZM45.1243 114.722C45.7216 114.722 46.2229 114.802 46.6283 114.962C47.0443 115.111 47.3749 115.33 47.6203 115.618C47.8763 115.895 48.0576 116.231 48.1643 116.626C48.2709 117.01 48.3243 117.437 48.3243 117.906V123.106C48.1963 123.127 48.0149 123.159 47.7803 123.202C47.5563 123.234 47.3003 123.266 47.0123 123.298C46.7243 123.33 46.4096 123.357 46.0683 123.378C45.7376 123.41 45.4069 123.426 45.0763 123.426C44.6069 123.426 44.1749 123.378 43.7803 123.282C43.3856 123.186 43.0443 123.037 42.7563 122.834C42.4683 122.621 42.2443 122.343 42.0843 122.002C41.9243 121.661 41.8443 121.25 41.8443 120.77C41.8443 120.311 41.9349 119.917 42.1163 119.586C42.3083 119.255 42.5643 118.989 42.8843 118.786C43.2043 118.583 43.5776 118.434 44.0043 118.338C44.4309 118.242 44.8789 118.194 45.3483 118.194C45.4976 118.194 45.6523 118.205 45.8123 118.226C45.9723 118.237 46.1216 118.258 46.2603 118.29C46.4096 118.311 46.5376 118.333 46.6443 118.354C46.7509 118.375 46.8256 118.391 46.8683 118.402V117.986C46.8683 117.741 46.8416 117.501 46.7883 117.266C46.7349 117.021 46.6389 116.807 46.5003 116.626C46.3616 116.434 46.1696 116.285 45.9243 116.178C45.6896 116.061 45.3803 116.002 44.9963 116.002C44.5056 116.002 44.0736 116.039 43.7003 116.114C43.3376 116.178 43.0656 116.247 42.8843 116.322L42.7083 115.09C42.9003 115.005 43.2203 114.925 43.6683 114.85C44.1163 114.765 44.6016 114.722 45.1243 114.722ZM65.0659 120.37C65.0659 120.818 64.9859 121.234 64.8259 121.618C64.6765 121.991 64.4472 122.322 64.1379 122.61C63.8392 122.887 63.4605 123.101 63.0019 123.25C62.5432 123.41 62.0152 123.49 61.4179 123.49C60.7245 123.49 60.1432 123.394 59.6739 123.202C59.2152 122.999 58.8472 122.749 58.5699 122.45C58.2925 122.151 58.0952 121.826 57.9779 121.474C57.8605 121.111 57.8019 120.77 57.8019 120.45C57.8019 120.141 57.8499 119.847 57.9459 119.57C58.0525 119.282 58.1859 119.015 58.3459 118.77C58.5165 118.525 58.7085 118.306 58.9219 118.114C59.1459 117.911 59.3805 117.735 59.6259 117.586C58.5805 116.989 58.0579 116.109 58.0579 114.946C58.0579 114.541 58.1379 114.157 58.2979 113.794C58.4579 113.421 58.6819 113.095 58.9699 112.818C59.2685 112.541 59.6259 112.322 60.0419 112.162C60.4579 111.991 60.9219 111.906 61.4339 111.906C62.0312 111.906 62.5432 111.997 62.9699 112.178C63.3965 112.359 63.7432 112.594 64.0099 112.882C64.2872 113.159 64.4845 113.469 64.6019 113.81C64.7299 114.151 64.7939 114.482 64.7939 114.802C64.7939 115.111 64.7459 115.405 64.6499 115.682C64.5645 115.949 64.4419 116.199 64.2819 116.434C64.1325 116.669 63.9565 116.877 63.7539 117.058C63.5619 117.239 63.3592 117.399 63.1459 117.538C64.4045 118.135 65.0445 119.079 65.0659 120.37ZM59.3059 120.466C59.3059 120.658 59.3379 120.861 59.4019 121.074C59.4765 121.277 59.5992 121.469 59.7699 121.65C59.9405 121.821 60.1592 121.965 60.4259 122.082C60.6925 122.199 61.0285 122.258 61.4339 122.258C61.7965 122.258 62.1112 122.205 62.3779 122.098C62.6552 121.991 62.8792 121.858 63.0499 121.698C63.2205 121.527 63.3485 121.335 63.4339 121.122C63.5192 120.909 63.5619 120.69 63.5619 120.466C63.5619 120.125 63.4979 119.826 63.3699 119.57C63.2419 119.314 63.0552 119.09 62.8099 118.898C62.5752 118.706 62.2872 118.546 61.9459 118.418C61.6152 118.279 61.2365 118.162 60.8099 118.066C60.3299 118.333 59.9565 118.663 59.6899 119.058C59.4339 119.453 59.3059 119.922 59.3059 120.466ZM63.3059 114.786C63.3059 114.626 63.2685 114.45 63.1939 114.258C63.1299 114.066 63.0232 113.89 62.8739 113.73C62.7245 113.559 62.5325 113.421 62.2979 113.314C62.0632 113.197 61.7752 113.138 61.4339 113.138C61.0925 113.138 60.7992 113.191 60.5539 113.298C60.3192 113.405 60.1272 113.543 59.9779 113.714C59.8285 113.874 59.7165 114.055 59.6419 114.258C59.5779 114.45 59.5459 114.642 59.5459 114.834C59.5459 115.069 59.5885 115.303 59.6739 115.538C59.7592 115.773 59.8925 115.991 60.0739 116.194C60.2552 116.397 60.4899 116.578 60.7779 116.738C61.0765 116.898 61.4285 117.026 61.8339 117.122C62.2819 116.855 62.6392 116.546 62.9059 116.194C63.1725 115.831 63.3059 115.362 63.3059 114.786Z" fill="white"/>
<path d="M21.32 161.3C22.8773 161.3 24.072 161.599 24.904 162.196C25.7467 162.783 26.168 163.663 26.168 164.836C26.168 165.476 26.0507 166.025 25.816 166.484C25.592 166.932 25.2613 167.3 24.824 167.588C24.3973 167.865 23.8747 168.068 23.256 168.196C22.6373 168.324 21.9387 168.388 21.16 168.388H19.928V172.5H18.376V161.572C18.8133 161.465 19.2987 161.396 19.832 161.364C20.376 161.321 20.872 161.3 21.32 161.3ZM21.448 162.66C20.7867 162.66 20.28 162.676 19.928 162.708V167.06H21.096C21.6293 167.06 22.1093 167.028 22.536 166.964C22.9627 166.889 23.32 166.772 23.608 166.612C23.9067 166.441 24.136 166.212 24.296 165.924C24.456 165.636 24.536 165.268 24.536 164.82C24.536 164.393 24.4507 164.041 24.28 163.764C24.12 163.487 23.896 163.268 23.608 163.108C23.3307 162.937 23.0053 162.82 22.632 162.756C22.2587 162.692 21.864 162.66 21.448 162.66ZM35.0864 161.412H36.6384V172.5H35.0864V167.38H29.6624V172.5H28.1104V161.412H29.6624V166.036H35.0864V161.412ZM42.3356 161.3C43.893 161.3 45.0876 161.599 45.9196 162.196C46.7623 162.783 47.1836 163.663 47.1836 164.836C47.1836 165.476 47.0663 166.025 46.8316 166.484C46.6076 166.932 46.277 167.3 45.8396 167.588C45.413 167.865 44.8903 168.068 44.2716 168.196C43.653 168.324 42.9543 168.388 42.1756 168.388H40.9436V172.5H39.3916V161.572C39.829 161.465 40.3143 161.396 40.8476 161.364C41.3916 161.321 41.8876 161.3 42.3356 161.3ZM42.4636 162.66C41.8023 162.66 41.2956 162.676 40.9436 162.708V167.06H42.1116C42.645 167.06 43.125 167.028 43.5516 166.964C43.9783 166.889 44.3356 166.772 44.6236 166.612C44.9223 166.441 45.1516 166.212 45.3116 165.924C45.4716 165.636 45.5516 165.268 45.5516 164.82C45.5516 164.393 45.4663 164.041 45.2956 163.764C45.1356 163.487 44.9116 163.268 44.6236 163.108C44.3463 162.937 44.021 162.82 43.6476 162.756C43.2743 162.692 42.8796 162.66 42.4636 162.66ZM63.3003 169.62C63.3003 170.068 63.2203 170.484 63.0603 170.868C62.9109 171.241 62.6816 171.572 62.3723 171.86C62.0736 172.137 61.6949 172.351 61.2363 172.5C60.7776 172.66 60.2496 172.74 59.6523 172.74C58.9589 172.74 58.3776 172.644 57.9083 172.452C57.4496 172.249 57.0816 171.999 56.8043 171.7C56.5269 171.401 56.3296 171.076 56.2122 170.724C56.0949 170.361 56.0363 170.02 56.0363 169.7C56.0363 169.391 56.0843 169.097 56.1803 168.82C56.2869 168.532 56.4203 168.265 56.5803 168.02C56.7509 167.775 56.9429 167.556 57.1562 167.364C57.3803 167.161 57.6149 166.985 57.8603 166.836C56.8149 166.239 56.2923 165.359 56.2923 164.196C56.2923 163.791 56.3723 163.407 56.5323 163.044C56.6923 162.671 56.9163 162.345 57.2043 162.068C57.5029 161.791 57.8603 161.572 58.2763 161.412C58.6923 161.241 59.1563 161.156 59.6683 161.156C60.2656 161.156 60.7776 161.247 61.2043 161.428C61.6309 161.609 61.9776 161.844 62.2443 162.132C62.5216 162.409 62.7189 162.719 62.8363 163.06C62.9643 163.401 63.0283 163.732 63.0283 164.052C63.0283 164.361 62.9803 164.655 62.8843 164.932C62.7989 165.199 62.6763 165.449 62.5163 165.684C62.3669 165.919 62.1909 166.127 61.9883 166.308C61.7963 166.489 61.5936 166.649 61.3803 166.788C62.6389 167.385 63.2789 168.329 63.3003 169.62ZM57.5403 169.716C57.5403 169.908 57.5723 170.111 57.6363 170.324C57.7109 170.527 57.8336 170.719 58.0043 170.9C58.1749 171.071 58.3936 171.215 58.6603 171.332C58.9269 171.449 59.2629 171.508 59.6683 171.508C60.0309 171.508 60.3456 171.455 60.6123 171.348C60.8896 171.241 61.1136 171.108 61.2843 170.948C61.4549 170.777 61.5829 170.585 61.6683 170.372C61.7536 170.159 61.7963 169.94 61.7963 169.716C61.7963 169.375 61.7323 169.076 61.6043 168.82C61.4763 168.564 61.2896 168.34 61.0443 168.148C60.8096 167.956 60.5216 167.796 60.1803 167.668C59.8496 167.529 59.4709 167.412 59.0443 167.316C58.5643 167.583 58.1909 167.913 57.9243 168.308C57.6683 168.703 57.5403 169.172 57.5403 169.716ZM61.5403 164.036C61.5403 163.876 61.5029 163.7 61.4283 163.508C61.3643 163.316 61.2576 163.14 61.1083 162.98C60.9589 162.809 60.7669 162.671 60.5323 162.564C60.2976 162.447 60.0096 162.388 59.6683 162.388C59.3269 162.388 59.0336 162.441 58.7883 162.548C58.5536 162.655 58.3616 162.793 58.2123 162.964C58.0629 163.124 57.9509 163.305 57.8763 163.508C57.8123 163.7 57.7803 163.892 57.7803 164.084C57.7803 164.319 57.8229 164.553 57.9083 164.788C57.9936 165.023 58.1269 165.241 58.3083 165.444C58.4896 165.647 58.7243 165.828 59.0123 165.988C59.3109 166.148 59.6629 166.276 60.0683 166.372C60.5163 166.105 60.8736 165.796 61.1403 165.444C61.4069 165.081 61.5403 164.612 61.5403 164.036ZM67.2275 171.636C67.2275 171.924 67.1315 172.175 66.9395 172.388C66.7475 172.601 66.4862 172.708 66.1555 172.708C65.8248 172.708 65.5635 172.601 65.3715 172.388C65.1795 172.175 65.0835 171.924 65.0835 171.636C65.0835 171.348 65.1795 171.097 65.3715 170.884C65.5635 170.671 65.8248 170.564 66.1555 170.564C66.4862 170.564 66.7475 170.671 66.9395 170.884C67.1315 171.097 67.2275 171.348 67.2275 171.636ZM71.741 171.412C72.6903 171.412 73.3677 171.225 73.773 170.852C74.189 170.479 74.397 169.977 74.397 169.348C74.397 168.943 74.3117 168.601 74.141 168.324C73.9703 168.047 73.7463 167.828 73.469 167.668C73.1917 167.497 72.8663 167.38 72.493 167.316C72.1303 167.241 71.757 167.204 71.373 167.204H70.989V165.988H71.517C71.7837 165.988 72.0557 165.961 72.333 165.908C72.621 165.855 72.8823 165.759 73.117 165.62C73.3517 165.481 73.5437 165.295 73.693 165.06C73.8423 164.815 73.917 164.511 73.917 164.148C73.917 163.849 73.8637 163.593 73.757 163.38C73.6503 163.167 73.5063 162.991 73.325 162.852C73.1543 162.713 72.9517 162.617 72.717 162.564C72.493 162.5 72.253 162.468 71.997 162.468C71.485 162.468 71.0477 162.543 70.685 162.692C70.333 162.841 70.0343 162.996 69.789 163.156L69.213 162.02C69.341 161.935 69.501 161.844 69.693 161.748C69.8957 161.641 70.1197 161.545 70.365 161.46C70.6103 161.375 70.8717 161.305 71.149 161.252C71.437 161.188 71.7357 161.156 72.045 161.156C72.6317 161.156 73.1383 161.231 73.565 161.38C73.9917 161.519 74.3437 161.721 74.621 161.988C74.8983 162.244 75.1063 162.553 75.245 162.916C75.3837 163.268 75.453 163.652 75.453 164.068C75.453 164.644 75.2877 165.14 74.957 165.556C74.6263 165.961 74.2263 166.271 73.757 166.484C74.045 166.569 74.3223 166.692 74.589 166.852C74.8557 167.012 75.085 167.215 75.277 167.46C75.4797 167.705 75.6397 167.988 75.757 168.308C75.885 168.628 75.949 168.985 75.949 169.38C75.949 169.86 75.8637 170.308 75.693 170.724C75.533 171.129 75.277 171.481 74.925 171.78C74.5837 172.079 74.1517 172.313 73.629 172.484C73.1063 172.655 72.4877 172.74 71.773 172.74C71.4957 172.74 71.2077 172.719 70.909 172.676C70.621 172.633 70.349 172.58 70.093 172.516C69.837 172.452 69.613 172.388 69.421 172.324C69.229 172.26 69.0903 172.207 69.005 172.164L69.293 170.868C69.4743 170.953 69.773 171.065 70.189 171.204C70.6157 171.343 71.133 171.412 71.741 171.412Z" fill="white" fill-opacity="0.6"/>
<path d="M23.8 217.11C23.9707 217.323 24.184 217.606 24.44 217.958C24.7067 218.299 24.9787 218.683 25.256 219.11C25.5333 219.526 25.8053 219.963 26.072 220.422C26.3493 220.881 26.584 221.323 26.776 221.75H25.08C24.8667 221.345 24.632 220.934 24.376 220.518C24.1307 220.102 23.88 219.707 23.624 219.334C23.368 218.95 23.112 218.593 22.856 218.262C22.6107 217.931 22.3867 217.643 22.184 217.398C22.0453 217.409 21.9013 217.414 21.752 217.414C21.6133 217.414 21.4693 217.414 21.32 217.414H19.928V221.75H18.376V210.822C18.8133 210.715 19.2987 210.646 19.832 210.614C20.376 210.571 20.872 210.55 21.32 210.55C22.8773 210.55 24.0613 210.843 24.872 211.43C25.6933 212.017 26.104 212.891 26.104 214.054C26.104 214.79 25.9067 215.419 25.512 215.942C25.128 216.465 24.5573 216.854 23.8 217.11ZM21.448 211.91C20.7867 211.91 20.28 211.926 19.928 211.958V216.134H21.032C21.5653 216.134 22.0453 216.107 22.472 216.054C22.8987 216.001 23.256 215.899 23.544 215.75C23.8427 215.601 24.072 215.393 24.232 215.126C24.392 214.849 24.472 214.486 24.472 214.038C24.472 213.622 24.392 213.275 24.232 212.998C24.072 212.721 23.8533 212.502 23.576 212.342C23.3093 212.182 22.9893 212.07 22.616 212.006C22.2533 211.942 21.864 211.91 21.448 211.91ZM27.8785 217.606C27.8785 216.87 27.9852 216.23 28.1985 215.686C28.4118 215.131 28.6945 214.673 29.0465 214.31C29.3985 213.947 29.8038 213.675 30.2625 213.494C30.7212 213.313 31.1905 213.222 31.6705 213.222C32.7905 213.222 33.6492 213.574 34.2465 214.278C34.8438 214.971 35.1425 216.033 35.1425 217.462C35.1425 217.526 35.1425 217.611 35.1425 217.718C35.1425 217.814 35.1372 217.905 35.1265 217.99H29.4305C29.4945 218.854 29.7452 219.51 30.1825 219.958C30.6198 220.406 31.3025 220.63 32.2305 220.63C32.7532 220.63 33.1905 220.587 33.5425 220.502C33.9052 220.406 34.1772 220.315 34.3585 220.23L34.5665 221.478C34.3852 221.574 34.0652 221.675 33.6065 221.782C33.1585 221.889 32.6465 221.942 32.0705 221.942C31.3452 221.942 30.7158 221.835 30.1825 221.622C29.6598 221.398 29.2278 221.094 28.8865 220.71C28.5452 220.326 28.2892 219.873 28.1185 219.35C27.9585 218.817 27.8785 218.235 27.8785 217.606ZM33.5905 216.79C33.6012 216.118 33.4305 215.569 33.0785 215.142C32.7372 214.705 32.2625 214.486 31.6545 214.486C31.3132 214.486 31.0092 214.555 30.7425 214.694C30.4865 214.822 30.2678 214.993 30.0865 215.206C29.9052 215.419 29.7612 215.665 29.6545 215.942C29.5585 216.219 29.4945 216.502 29.4625 216.79H33.5905ZM40.096 220.678C40.448 220.678 40.7573 220.673 41.024 220.662C41.3013 220.641 41.5307 220.609 41.712 220.566V218.086C41.6053 218.033 41.4293 217.99 41.184 217.958C40.9493 217.915 40.6613 217.894 40.32 217.894C40.096 217.894 39.856 217.91 39.6 217.942C39.3547 217.974 39.1253 218.043 38.912 218.15C38.7093 218.246 38.5387 218.385 38.4 218.566C38.2613 218.737 38.192 218.966 38.192 219.254C38.192 219.787 38.3627 220.161 38.704 220.374C39.0453 220.577 39.5093 220.678 40.096 220.678ZM39.968 213.222C40.5653 213.222 41.0667 213.302 41.472 213.462C41.888 213.611 42.2187 213.83 42.464 214.118C42.72 214.395 42.9013 214.731 43.008 215.126C43.1147 215.51 43.168 215.937 43.168 216.406V221.606C43.04 221.627 42.8587 221.659 42.624 221.702C42.4 221.734 42.144 221.766 41.856 221.798C41.568 221.83 41.2533 221.857 40.912 221.878C40.5813 221.91 40.2507 221.926 39.92 221.926C39.4507 221.926 39.0187 221.878 38.624 221.782C38.2293 221.686 37.888 221.537 37.6 221.334C37.312 221.121 37.088 220.843 36.928 220.502C36.768 220.161 36.688 219.75 36.688 219.27C36.688 218.811 36.7787 218.417 36.96 218.086C37.152 217.755 37.408 217.489 37.728 217.286C38.048 217.083 38.4213 216.934 38.848 216.838C39.2747 216.742 39.7227 216.694 40.192 216.694C40.3413 216.694 40.496 216.705 40.656 216.726C40.816 216.737 40.9653 216.758 41.104 216.79C41.2533 216.811 41.3813 216.833 41.488 216.854C41.5947 216.875 41.6693 216.891 41.712 216.902V216.486C41.712 216.241 41.6853 216.001 41.632 215.766C41.5787 215.521 41.4827 215.307 41.344 215.126C41.2053 214.934 41.0133 214.785 40.768 214.678C40.5333 214.561 40.224 214.502 39.84 214.502C39.3493 214.502 38.9173 214.539 38.544 214.614C38.1813 214.678 37.9093 214.747 37.728 214.822L37.552 213.59C37.744 213.505 38.064 213.425 38.512 213.35C38.96 213.265 39.4453 213.222 39.968 213.222ZM49.2554 221.942C48.5834 221.942 47.9914 221.835 47.4794 221.622C46.978 221.409 46.5514 221.11 46.1994 220.726C45.858 220.342 45.602 219.889 45.4314 219.366C45.2607 218.833 45.1754 218.246 45.1754 217.606C45.1754 216.966 45.266 216.379 45.4474 215.846C45.6394 215.313 45.906 214.854 46.2474 214.47C46.5887 214.075 47.0047 213.771 47.4954 213.558C47.9967 213.334 48.5514 213.222 49.1594 213.222C49.5327 213.222 49.906 213.254 50.2794 213.318C50.6527 213.382 51.01 213.483 51.3514 213.622L51.0154 214.886C50.7914 214.779 50.53 214.694 50.2314 214.63C49.9434 214.566 49.634 214.534 49.3034 214.534C48.4714 214.534 47.8314 214.795 47.3834 215.318C46.946 215.841 46.7274 216.603 46.7274 217.606C46.7274 218.054 46.7754 218.465 46.8714 218.838C46.978 219.211 47.138 219.531 47.3514 219.798C47.5754 220.065 47.858 220.273 48.1994 220.422C48.5407 220.561 48.9567 220.63 49.4474 220.63C49.842 220.63 50.1994 220.593 50.5194 220.518C50.8394 220.443 51.09 220.363 51.2714 220.278L51.4794 221.526C51.394 221.579 51.2714 221.633 51.1114 221.686C50.9514 221.729 50.77 221.766 50.5674 221.798C50.3647 221.841 50.146 221.873 49.9114 221.894C49.6874 221.926 49.4687 221.942 49.2554 221.942ZM54.4689 213.43H57.6209V214.678H54.4689V218.518C54.4689 218.934 54.5009 219.281 54.5649 219.558C54.6289 219.825 54.7249 220.038 54.8529 220.198C54.9809 220.347 55.1409 220.454 55.3329 220.518C55.5249 220.582 55.7489 220.614 56.0049 220.614C56.4529 220.614 56.8102 220.566 57.0769 220.47C57.3542 220.363 57.5462 220.289 57.6529 220.246L57.9409 221.478C57.7915 221.553 57.5302 221.643 57.1569 221.75C56.7835 221.867 56.3569 221.926 55.8769 221.926C55.3115 221.926 54.8422 221.857 54.4689 221.718C54.1062 221.569 53.8129 221.35 53.5889 221.062C53.3649 220.774 53.2049 220.422 53.1089 220.006C53.0235 219.579 52.9809 219.089 52.9809 218.534V211.11L54.4689 210.854V213.43ZM67.1286 212.95C67.7366 212.715 68.3286 212.417 68.9046 212.054C69.4806 211.681 70.0086 211.217 70.4886 210.662H71.5446V221.75H70.0566V212.726C69.9286 212.843 69.7686 212.966 69.5766 213.094C69.3953 213.222 69.1926 213.345 68.9686 213.462C68.7553 213.579 68.526 213.691 68.2806 213.798C68.046 213.905 67.8166 213.995 67.5926 214.07L67.1286 212.95ZM82.8159 218.87C82.8159 219.318 82.7359 219.734 82.5759 220.118C82.4265 220.491 82.1972 220.822 81.8879 221.11C81.5892 221.387 81.2105 221.601 80.7519 221.75C80.2932 221.91 79.7652 221.99 79.1679 221.99C78.4745 221.99 77.8932 221.894 77.4239 221.702C76.9652 221.499 76.5972 221.249 76.3199 220.95C76.0425 220.651 75.8452 220.326 75.7279 219.974C75.6105 219.611 75.5519 219.27 75.5519 218.95C75.5519 218.641 75.5999 218.347 75.6959 218.07C75.8025 217.782 75.9359 217.515 76.0959 217.27C76.2665 217.025 76.4585 216.806 76.6719 216.614C76.8959 216.411 77.1305 216.235 77.3759 216.086C76.3305 215.489 75.8079 214.609 75.8079 213.446C75.8079 213.041 75.8879 212.657 76.0479 212.294C76.2079 211.921 76.4319 211.595 76.7199 211.318C77.0185 211.041 77.3759 210.822 77.7919 210.662C78.2079 210.491 78.6719 210.406 79.1839 210.406C79.7812 210.406 80.2932 210.497 80.7199 210.678C81.1465 210.859 81.4932 211.094 81.7599 211.382C82.0372 211.659 82.2345 211.969 82.3519 212.31C82.4799 212.651 82.5439 212.982 82.5439 213.302C82.5439 213.611 82.4959 213.905 82.3999 214.182C82.3145 214.449 82.1919 214.699 82.0319 214.934C81.8825 215.169 81.7065 215.377 81.5039 215.558C81.3119 215.739 81.1092 215.899 80.8959 216.038C82.1545 216.635 82.7945 217.579 82.8159 218.87ZM77.0559 218.966C77.0559 219.158 77.0879 219.361 77.1519 219.574C77.2265 219.777 77.3492 219.969 77.5199 220.15C77.6905 220.321 77.9092 220.465 78.1759 220.582C78.4425 220.699 78.7785 220.758 79.1839 220.758C79.5465 220.758 79.8612 220.705 80.1279 220.598C80.4052 220.491 80.6292 220.358 80.7999 220.198C80.9705 220.027 81.0985 219.835 81.1839 219.622C81.2692 219.409 81.3119 219.19 81.3119 218.966C81.3119 218.625 81.2479 218.326 81.1199 218.07C80.9919 217.814 80.8052 217.59 80.5599 217.398C80.3252 217.206 80.0372 217.046 79.6959 216.918C79.3652 216.779 78.9865 216.662 78.5599 216.566C78.0799 216.833 77.7065 217.163 77.4399 217.558C77.1839 217.953 77.0559 218.422 77.0559 218.966ZM81.0559 213.286C81.0559 213.126 81.0185 212.95 80.9439 212.758C80.8799 212.566 80.7732 212.39 80.6239 212.23C80.4745 212.059 80.2825 211.921 80.0479 211.814C79.8132 211.697 79.5252 211.638 79.1839 211.638C78.8425 211.638 78.5492 211.691 78.3039 211.798C78.0692 211.905 77.8772 212.043 77.7279 212.214C77.5785 212.374 77.4665 212.555 77.3919 212.758C77.3279 212.95 77.2959 213.142 77.2959 213.334C77.2959 213.569 77.3385 213.803 77.4239 214.038C77.5092 214.273 77.6425 214.491 77.8239 214.694C78.0052 214.897 78.2399 215.078 78.5279 215.238C78.8265 215.398 79.1785 215.526 79.5839 215.622C80.0319 215.355 80.3892 215.046 80.6559 214.694C80.9225 214.331 81.0559 213.862 81.0559 213.286ZM86.7431 220.886C86.7431 221.174 86.6471 221.425 86.4551 221.638C86.2631 221.851 86.0018 221.958 85.6711 221.958C85.3405 221.958 85.0791 221.851 84.8871 221.638C84.6951 221.425 84.5991 221.174 84.5991 220.886C84.5991 220.598 84.6951 220.347 84.8871 220.134C85.0791 219.921 85.3405 219.814 85.6711 219.814C86.0018 219.814 86.2631 219.921 86.4551 220.134C86.6471 220.347 86.7431 220.598 86.7431 220.886ZM91.2566 220.662C92.206 220.662 92.8833 220.475 93.2886 220.102C93.7046 219.729 93.9126 219.227 93.9126 218.598C93.9126 218.193 93.8273 217.851 93.6566 217.574C93.486 217.297 93.262 217.078 92.9846 216.918C92.7073 216.747 92.382 216.63 92.0086 216.566C91.646 216.491 91.2726 216.454 90.8886 216.454H90.5046V215.238H91.0326C91.2993 215.238 91.5713 215.211 91.8486 215.158C92.1366 215.105 92.398 215.009 92.6326 214.87C92.8673 214.731 93.0593 214.545 93.2086 214.31C93.358 214.065 93.4326 213.761 93.4326 213.398C93.4326 213.099 93.3793 212.843 93.2726 212.63C93.166 212.417 93.022 212.241 92.8406 212.102C92.67 211.963 92.4673 211.867 92.2326 211.814C92.0086 211.75 91.7686 211.718 91.5126 211.718C91.0006 211.718 90.5633 211.793 90.2006 211.942C89.8486 212.091 89.55 212.246 89.3046 212.406L88.7286 211.27C88.8566 211.185 89.0166 211.094 89.2086 210.998C89.4113 210.891 89.6353 210.795 89.8806 210.71C90.126 210.625 90.3873 210.555 90.6646 210.502C90.9526 210.438 91.2513 210.406 91.5606 210.406C92.1473 210.406 92.654 210.481 93.0806 210.63C93.5073 210.769 93.8593 210.971 94.1366 211.238C94.414 211.494 94.622 211.803 94.7606 212.166C94.8993 212.518 94.9686 212.902 94.9686 213.318C94.9686 213.894 94.8033 214.39 94.4726 214.806C94.142 215.211 93.742 215.521 93.2726 215.734C93.5606 215.819 93.838 215.942 94.1046 216.102C94.3713 216.262 94.6006 216.465 94.7926 216.71C94.9953 216.955 95.1553 217.238 95.2726 217.558C95.4006 217.878 95.4646 218.235 95.4646 218.63C95.4646 219.11 95.3793 219.558 95.2086 219.974C95.0486 220.379 94.7926 220.731 94.4406 221.03C94.0993 221.329 93.6673 221.563 93.1446 221.734C92.622 221.905 92.0033 221.99 91.2886 221.99C91.0113 221.99 90.7233 221.969 90.4246 221.926C90.1366 221.883 89.8646 221.83 89.6086 221.766C89.3526 221.702 89.1286 221.638 88.9366 221.574C88.7446 221.51 88.606 221.457 88.5206 221.414L88.8086 220.118C88.99 220.203 89.2886 220.315 89.7046 220.454C90.1313 220.593 90.6486 220.662 91.2566 220.662ZM99.7119 220.886C99.7119 221.174 99.6159 221.425 99.4239 221.638C99.2319 221.851 98.9705 221.958 98.6399 221.958C98.3092 221.958 98.0479 221.851 97.8559 221.638C97.6639 221.425 97.5679 221.174 97.5679 220.886C97.5679 220.598 97.6639 220.347 97.8559 220.134C98.0479 219.921 98.3092 219.814 98.6399 219.814C98.9705 219.814 99.2319 219.921 99.4239 220.134C99.6159 220.347 99.7119 220.598 99.7119 220.886ZM102.097 212.95C102.705 212.715 103.297 212.417 103.873 212.054C104.449 211.681 104.977 211.217 105.457 210.662H106.513V221.75H105.025V212.726C104.897 212.843 104.737 212.966 104.545 213.094C104.364 213.222 104.161 213.345 103.937 213.462C103.724 213.579 103.495 213.691 103.249 213.798C103.015 213.905 102.785 213.995 102.561 214.07L102.097 212.95Z" fill="white" fill-opacity="0.6"/>
<path d="M18.376 271V259.912H25.064V261.24H19.928V264.584H24.488V265.896H19.928V271H18.376ZM28.3618 271H26.8738V262.68H28.3618V271ZM27.6098 261.176C27.3431 261.176 27.1138 261.091 26.9218 260.92C26.7404 260.739 26.6497 260.499 26.6497 260.2C26.6497 259.901 26.7404 259.667 26.9218 259.496C27.1138 259.315 27.3431 259.224 27.6098 259.224C27.8764 259.224 28.1004 259.315 28.2818 259.496C28.4738 259.667 28.5698 259.901 28.5698 260.2C28.5698 260.499 28.4738 260.739 28.2818 260.92C28.1004 261.091 27.8764 261.176 27.6098 261.176ZM36.1366 270.168C36.0086 270.253 35.758 270.365 35.3846 270.504C35.022 270.632 34.5953 270.696 34.1046 270.696C33.6033 270.696 33.1286 270.616 32.6806 270.456C32.2433 270.296 31.8593 270.051 31.5286 269.72C31.198 269.379 30.9366 268.957 30.7446 268.456C30.5526 267.955 30.4566 267.357 30.4566 266.664C30.4566 266.056 30.5473 265.501 30.7286 265C30.91 264.488 31.1713 264.051 31.5126 263.688C31.8646 263.315 32.2913 263.027 32.7926 262.824C33.294 262.611 33.8593 262.504 34.4886 262.504C35.182 262.504 35.7846 262.557 36.2966 262.664C36.8193 262.76 37.2566 262.851 37.6086 262.936V270.36C37.6086 271.64 37.278 272.568 36.6166 273.144C35.9553 273.72 34.9526 274.008 33.6086 274.008C33.086 274.008 32.59 273.965 32.1206 273.88C31.662 273.795 31.262 273.693 30.9206 273.576L31.1926 272.28C31.4913 272.397 31.854 272.499 32.2806 272.584C32.718 272.68 33.1713 272.728 33.6406 272.728C34.526 272.728 35.1606 272.552 35.5446 272.2C35.9393 271.848 36.1366 271.288 36.1366 270.52V270.168ZM36.1206 263.992C35.9713 263.949 35.7686 263.912 35.5126 263.88C35.2673 263.837 34.9313 263.816 34.5046 263.816C33.7046 263.816 33.086 264.077 32.6486 264.6C32.222 265.123 32.0086 265.816 32.0086 266.68C32.0086 267.16 32.0673 267.571 32.1846 267.912C32.3126 268.253 32.478 268.536 32.6806 268.76C32.894 268.984 33.134 269.149 33.4006 269.256C33.678 269.363 33.9606 269.416 34.2486 269.416C34.6433 269.416 35.006 269.363 35.3366 269.256C35.6673 269.139 35.9286 269.005 36.1206 268.856V263.992ZM40.1706 262.92C40.512 262.835 40.96 262.744 41.5146 262.648C42.08 262.552 42.7306 262.504 43.4666 262.504C44 262.504 44.448 262.579 44.8106 262.728C45.1733 262.867 45.4773 263.075 45.7226 263.352C45.7973 263.299 45.9146 263.224 46.0746 263.128C46.2346 263.032 46.432 262.941 46.6666 262.856C46.9013 262.76 47.1626 262.68 47.4506 262.616C47.7386 262.541 48.048 262.504 48.3786 262.504C49.0186 262.504 49.5413 262.6 49.9466 262.792C50.352 262.973 50.6666 263.235 50.8906 263.576C51.1253 263.917 51.28 264.323 51.3546 264.792C51.44 265.261 51.4826 265.773 51.4826 266.328V271H49.9946V266.648C49.9946 266.157 49.968 265.736 49.9146 265.384C49.872 265.032 49.7813 264.739 49.6426 264.504C49.5146 264.269 49.3333 264.099 49.0986 263.992C48.8746 263.875 48.5813 263.816 48.2186 263.816C47.7173 263.816 47.3013 263.885 46.9706 264.024C46.6506 264.152 46.432 264.269 46.3146 264.376C46.4 264.653 46.464 264.957 46.5066 265.288C46.5493 265.619 46.5706 265.965 46.5706 266.328V271H45.0826V266.648C45.0826 266.157 45.056 265.736 45.0026 265.384C44.9493 265.032 44.8533 264.739 44.7146 264.504C44.5866 264.269 44.4053 264.099 44.1706 263.992C43.9466 263.875 43.6586 263.816 43.3066 263.816C43.1573 263.816 42.9973 263.821 42.8266 263.832C42.656 263.843 42.4906 263.859 42.3306 263.88C42.1813 263.891 42.0426 263.907 41.9146 263.928C41.7866 263.949 41.7013 263.965 41.6586 263.976V271H40.1706V262.92ZM56.7679 269.928C57.1199 269.928 57.4292 269.923 57.6959 269.912C57.9732 269.891 58.2025 269.859 58.3839 269.816V267.336C58.2772 267.283 58.1012 267.24 57.8559 267.208C57.6212 267.165 57.3332 267.144 56.9919 267.144C56.7679 267.144 56.5279 267.16 56.2719 267.192C56.0265 267.224 55.7972 267.293 55.5839 267.4C55.3812 267.496 55.2105 267.635 55.0719 267.816C54.9332 267.987 54.8639 268.216 54.8639 268.504C54.8639 269.037 55.0345 269.411 55.3759 269.624C55.7172 269.827 56.1812 269.928 56.7679 269.928ZM56.6399 262.472C57.2372 262.472 57.7385 262.552 58.1439 262.712C58.5599 262.861 58.8905 263.08 59.1359 263.368C59.3919 263.645 59.5732 263.981 59.6799 264.376C59.7865 264.76 59.8399 265.187 59.8399 265.656V270.856C59.7119 270.877 59.5305 270.909 59.2959 270.952C59.0719 270.984 58.8159 271.016 58.5279 271.048C58.2399 271.08 57.9252 271.107 57.5839 271.128C57.2532 271.16 56.9225 271.176 56.5919 271.176C56.1225 271.176 55.6905 271.128 55.2959 271.032C54.9012 270.936 54.5599 270.787 54.2719 270.584C53.9839 270.371 53.7599 270.093 53.5999 269.752C53.4399 269.411 53.3599 269 53.3599 268.52C53.3599 268.061 53.4505 267.667 53.6319 267.336C53.8239 267.005 54.0799 266.739 54.3999 266.536C54.7199 266.333 55.0932 266.184 55.5199 266.088C55.9465 265.992 56.3945 265.944 56.8639 265.944C57.0132 265.944 57.1679 265.955 57.3279 265.976C57.4879 265.987 57.6372 266.008 57.7759 266.04C57.9252 266.061 58.0532 266.083 58.1599 266.104C58.2665 266.125 58.3412 266.141 58.3839 266.152V265.736C58.3839 265.491 58.3572 265.251 58.3039 265.016C58.2505 264.771 58.1545 264.557 58.0159 264.376C57.8772 264.184 57.6852 264.035 57.4399 263.928C57.2052 263.811 56.8959 263.752 56.5119 263.752C56.0212 263.752 55.5892 263.789 55.2159 263.864C54.8532 263.928 54.5812 263.997 54.3999 264.072L54.2239 262.84C54.4159 262.755 54.7359 262.675 55.1839 262.6C55.6319 262.515 56.1172 262.472 56.6399 262.472Z" fill="white" fill-opacity="0.6"/>
<defs>
<linearGradient id="paint0_linear_1140_1150" x1="1" y1="22.5" x2="213" y2="22.5" gradientUnits="userSpaceOnUse">
<stop offset="0.275" stop-color="#A98BED"/>
<stop offset="1" stop-color="#6DF8D8"/>
</linearGradient>
</defs>
</svg>
