<svg width="199" height="45" viewBox="0 0 199 45" fill="none" xmlns="http://www.w3.org/2000/svg">
<g clip-path="url(#clip0_1037_1021)">
<path d="M62.0263 6.9556C61.6625 5.61107 60.9528 4.38532 59.9678 3.40044C58.9829 2.41556 57.7571 1.70593 56.4125 1.34224C51.49 0 31.6807 0 31.6807 0C31.6807 0 11.8706 0.0407328 6.94897 1.38297C5.60448 1.74672 4.37876 2.45638 3.39388 3.44125C2.40901 4.42613 1.69935 5.65185 1.3356 6.99634C-0.153275 15.7422 -0.730905 29.0681 1.37634 37.4637C1.74009 38.8081 2.44974 40.0339 3.43461 41.0187C4.41949 42.0036 5.64521 42.7133 6.9897 43.077C11.9118 44.4193 31.7215 44.4193 31.7215 44.4193C31.7215 44.4193 51.5312 44.4193 56.4532 43.077C57.7977 42.7133 59.0234 42.0036 60.0083 41.0187C60.9932 40.0339 61.7029 38.8081 62.0666 37.4637C63.6366 28.7057 64.1207 15.3881 62.0259 6.95599" fill="#FF0000"/>
<path d="M25.3757 31.7281L41.8093 22.2098L25.3757 12.6912V31.7281Z" fill="white"/>
<path d="M190.566 12.8948C192.722 12.8948 194.349 13.3014 195.488 14.0741C196.627 14.8471 197.44 16.0676 197.929 17.7354C198.417 19.4031 198.62 21.6807 198.62 24.6096V29.3691H188.166V30.8331L188.329 34.8603C188.451 35.7552 188.654 36.4062 188.979 36.8127C189.305 37.2196 189.834 37.4229 190.525 37.4229C191.461 37.4229 192.112 37.0571 192.437 36.3251C192.803 35.5927 192.966 34.3722 193.007 32.7045L198.417 33.03C198.457 33.274 198.457 33.5995 198.457 34.006C198.457 36.5687 197.766 38.4808 196.342 39.7416C194.918 41.0024 192.966 41.6533 190.403 41.6533C187.312 41.6533 185.156 40.6773 183.936 38.7656C182.716 36.8534 182.065 33.8431 182.065 29.8164V24.8943C182.203 17.9794 183.419 12.915 190.566 12.8948ZM115.354 13.4236V33.8028C115.354 35.0232 115.476 35.9181 115.761 36.4469C116.338 37.5777 117.835 37.2887 118.649 36.7316C119.118 36.414 119.497 35.9795 119.747 35.4709V13.4232H125.971V41.2056H121.089L120.56 37.7887H120.439C119.096 40.3514 117.103 41.6529 114.459 41.6529C110.39 41.6428 109.394 38.7109 109.157 35.7331L109.141 35.5232C109.112 35.0722 109.095 34.6205 109.09 34.1686V13.4236H115.354ZM147.448 13.4236V33.8028C147.448 35.0232 147.57 35.9181 147.855 36.4469C148.433 37.5777 149.93 37.2887 150.743 36.7316C151.213 36.414 151.591 35.9795 151.841 35.4709V13.4232H158.065V41.2056H153.183L152.655 37.7887H152.533C151.191 40.3514 149.197 41.6529 146.553 41.6529C142.484 41.6428 141.488 38.7109 141.251 35.7331L141.236 35.5232C141.206 35.0722 141.189 34.6205 141.184 34.1686V13.4236H147.448ZM97.2931 12.8948C99.327 12.8948 100.995 13.3014 102.215 14.1556C103.435 15.0098 104.371 16.3117 104.94 18.1012C105.51 19.8912 105.795 22.2909 105.795 25.2605V29.2872C105.795 32.2568 105.51 34.6162 104.94 36.4058C104.371 38.1961 103.476 39.4976 102.215 40.3518C100.954 41.1653 99.2456 41.6126 97.1306 41.6126C94.9337 41.6533 93.2252 41.206 91.9645 40.3925C90.7037 39.5383 89.8084 38.2364 89.28 36.4469C88.7509 34.657 88.5068 32.2976 88.5068 29.3284V25.3009C88.5068 22.3312 88.7916 19.8908 89.4018 18.1009C90.012 16.2706 90.9473 14.9687 92.2492 14.1556C93.5507 13.3417 95.2184 12.8944 97.2931 12.8944M167.827 1.74918V16.3928H167.868C168.438 15.3353 169.17 14.4811 170.187 13.8301C171.137 13.1918 172.256 12.8519 173.4 12.8541C174.905 12.8541 176.044 13.2606 176.898 14.0334C177.753 14.8473 178.363 16.1081 178.729 17.8572C179.084 19.5517 179.285 21.8952 179.298 24.8505L179.298 25.1387V29.5316C179.298 33.6398 178.769 36.6909 177.793 38.6434C176.777 40.5958 175.231 41.5722 173.115 41.5722C171.936 41.5722 170.878 41.2875 169.902 40.7587C169.039 40.2554 168.323 39.534 167.827 38.667L167.746 38.5212H167.624L166.973 41.1653H161.807V1.74956L167.827 1.74918ZM142.933 3.17288V8.21637H136.75V41.2056H130.649V8.21676H124.425V3.17327L142.933 3.17288ZM75.856 3.17288L75.8599 3.1884C75.9193 3.45258 76.7417 7.10883 77.6463 11.3687L77.7177 11.7062L77.8256 12.2163L77.8977 12.5589L77.9338 12.7307L78.0059 13.0752L78.042 13.2478L78.1138 13.5935L78.2185 14.099C78.8295 17.0488 79.4126 20.0071 79.7613 22.1284H79.9243C80.2583 20.2256 80.7436 17.7905 81.2611 15.3043L81.3968 14.6549C81.4649 14.3295 81.5334 14.0047 81.6024 13.6804L81.7087 13.1772C82.4115 9.88247 83.1352 6.59223 83.88 3.30672L83.8916 3.25435L83.9103 3.17288H90.1338L82.9338 28.8403V41.1653H76.7917V28.8807H76.751L69.6324 3.1725L75.856 3.17288ZM97.1709 17.2063C96.3167 17.2063 95.7472 17.654 95.3814 18.5896C95.0156 19.5253 94.8526 20.9487 94.8526 22.9422V31.6063C94.8526 33.6402 95.0152 35.145 95.3406 36.0403C95.6662 36.9352 96.2763 37.3826 97.1709 37.3826C98.0251 37.3826 98.6353 36.9352 99.0015 36.0403C99.3677 35.145 99.5303 33.6402 99.5303 31.6063V22.9418C99.5303 20.9487 99.3674 19.4842 99.0015 18.5893C98.6353 17.654 98.0251 17.2063 97.1709 17.2063ZM168.926 18.0202C168.43 18.4779 168.077 19.0424 167.867 19.748L167.827 19.8912V35.6737C168.332 36.528 169.048 37.0974 170.309 37.1382C170.959 37.1382 171.488 36.8942 171.895 36.4062C172.302 35.9181 172.587 35.1045 172.749 33.9653C172.906 32.8721 172.987 31.3664 172.993 29.4482V25.586C172.993 23.3895 172.912 21.7218 172.79 20.5421C172.627 19.3624 172.424 18.5082 172.058 18.0202C171.35 17.003 169.821 17.0154 168.926 18.0202ZM190.444 17.0845C189.752 17.1251 189.264 17.3285 188.979 17.6947C188.654 18.1012 188.451 18.7115 188.329 19.6064C188.209 20.4831 188.168 23.5478 188.166 23.6704V25.6675H192.722V23.9062V23.94C192.719 24.5556 192.706 23.5827 192.678 22.3883L192.674 22.2277C192.649 21.1779 192.612 20.0075 192.559 19.6064C192.437 18.6707 192.233 18.0198 191.908 17.654C191.583 17.2878 191.095 17.0845 190.444 17.0845" fill="#0F0E10"/>
</g>
<defs>
<clipPath id="clip0_1037_1021">
<rect width="198.621" height="45" fill="white"/>
</clipPath>
</defs>
</svg>
