<svg width="16" height="12" viewBox="0 0 16 12" fill="none" xmlns="http://www.w3.org/2000/svg">
<path fill-rule="evenodd" clip-rule="evenodd" d="M1 6.00002C1 5.86741 1.05268 5.74024 1.14645 5.64647C1.24021 5.5527 1.36739 5.50002 1.5 5.50002H13.293L10.146 2.35402C10.0521 2.26013 9.99937 2.1328 9.99937 2.00002C9.99937 1.86725 10.0521 1.73991 10.146 1.64602C10.2399 1.55213 10.3672 1.49939 10.5 1.49939C10.6328 1.49939 10.7601 1.55213 10.854 1.64602L14.854 5.64602C14.9006 5.69247 14.9375 5.74764 14.9627 5.80839C14.9879 5.86913 15.0009 5.93425 15.0009 6.00002C15.0009 6.06579 14.9879 6.13091 14.9627 6.19165C14.9375 6.2524 14.9006 6.30758 14.854 6.35402L10.854 10.354C10.7601 10.4479 10.6328 10.5007 10.5 10.5007C10.3672 10.5007 10.2399 10.4479 10.146 10.354C10.0521 10.2601 9.99937 10.1328 9.99937 10C9.99937 9.86725 10.0521 9.73991 10.146 9.64602L13.293 6.50002H1.5C1.36739 6.50002 1.24021 6.44734 1.14645 6.35357C1.05268 6.25981 1 6.13263 1 6.00002Z" fill="#A98BED"/>
</svg>
